<svg xmlns="http://www.w3.org/2000/svg" width="93" height="93" viewBox="0 0 93 93">
    <g data-name="Group 10567">
        <g data-name="Group 10566">
            <path data-name="Path 2071" d="M38.75 0A23.273 23.273 0 0 0 15.5 23.25V31a23.121 23.121 0 0 0 3.96 12.966A38.7 38.7 0 0 0 0 77.5v3.875A11.639 11.639 0 0 0 11.625 93H46.5a3.875 3.875 0 1 0 0-7.75H11.625a3.879 3.879 0 0 1-3.875-3.875V77.5a31.026 31.026 0 0 1 17.267-27.78A23.208 23.208 0 0 0 62 31v-7.75A23.273 23.273 0 0 0 38.75 0zm15.5 31a15.5 15.5 0 0 1-31 0v-7.75a15.5 15.5 0 1 1 31 0V31z" style="fill:#e4e4e4"/>
        </g>
    </g>
    <g data-name="Group 10569">
        <g data-name="Group 10568">
            <path data-name="Path 2072" d="M298.625 275.376h-15.5v-15.5a3.875 3.875 0 1 0-7.75 0v15.5h-15.5a3.875 3.875 0 1 0 0 7.75h15.5v15.5a3.875 3.875 0 1 0 7.75 0v-15.5h15.5a3.875 3.875 0 0 0 0-7.75z" transform="translate(-209.5 -209.501)" style="fill:#e4e4e4"/>
        </g>
    </g>
</svg>
