<svg id="Group_10377" data-name="Group 10377" xmlns="http://www.w3.org/2000/svg" width="49" height="49" viewBox="0 0 49 49">
  <circle id="Ellipse_109" data-name="Ellipse 109" cx="24.5" cy="24.5" r="24.5" fill="#f80"/>
  <g id="truck" transform="translate(9.086 13.366)">
    <g id="Group_10301" data-name="Group 10301" transform="translate(20.144 14.125)">
      <g id="Group_10300" data-name="Group 10300" transform="translate(0 0)">
        <g id="Path_1897" data-name="Path 1897" transform="translate(-322.151 -304.403)" fill="#fff">
          <path d="M 326.1866149902344 312.7242431640625 C 323.8235168457031 312.7242431640625 321.9010009765625 310.8016967773438 321.9010009765625 308.4385986328125 C 321.9010009765625 306.0755310058594 323.8235168457031 304.1530151367188 326.1866149902344 304.1530151367188 C 328.5497131347656 304.1530151367188 330.4722595214844 306.0755310058594 330.4722595214844 308.4385986328125 C 330.4722595214844 310.8016967773438 328.5497131347656 312.7242431640625 326.1866149902344 312.7242431640625 Z M 326.1866149902344 306.6707763671875 C 325.2118225097656 306.6707763671875 324.4187622070312 307.4638061523438 324.4187622070312 308.4385986328125 C 324.4187622070312 309.4133911132812 325.2118225097656 310.2064208984375 326.1866149902344 310.2064208984375 C 327.161376953125 310.2064208984375 327.9544067382812 309.4133911132812 327.9544067382812 308.4385986328125 C 327.9544067382812 307.4638061523438 327.161376953125 306.6707763671875 326.1866149902344 306.6707763671875 Z" stroke="none"/>
          <path d="M 326.1866149902344 304.4030151367188 C 323.9613037109375 304.4030151367188 322.1510009765625 306.2133178710938 322.1510009765625 308.4385986328125 C 322.1510009765625 310.6638793945312 323.9613037109375 312.4742431640625 326.1866149902344 312.4742431640625 C 328.4122619628906 312.4742431640625 330.2222595214844 310.6638793945312 330.2222595214844 308.4385986328125 C 330.2222595214844 306.2133178710938 328.4119262695312 304.4030151367188 326.1866149902344 304.4030151367188 M 326.1866149902344 310.4564208984375 C 325.0738830566406 310.4564208984375 324.1687622070312 309.5514526367188 324.1687622070312 308.4385986328125 C 324.1687622070312 307.3258056640625 325.0738830566406 306.4207763671875 326.1866149902344 306.4207763671875 C 327.2994384765625 306.4207763671875 328.2044067382812 307.3258056640625 328.2044067382812 308.4385986328125 C 328.2044067382812 309.5514526367188 327.2994384765625 310.4564208984375 326.1866149902344 310.4564208984375 M 326.1866149902344 303.9030151367188 C 328.6875610351562 303.9030151367188 330.7222595214844 305.9376831054688 330.7222595214844 308.4385986328125 C 330.7222595214844 310.9395446777344 328.6875610351562 312.9742431640625 326.1866149902344 312.9742431640625 C 323.6856689453125 312.9742431640625 321.6510009765625 310.9395446777344 321.6510009765625 308.4385986328125 C 321.6510009765625 305.9376831054688 323.6856689453125 303.9030151367188 326.1866149902344 303.9030151367188 Z M 326.1866149902344 309.9564208984375 C 327.0235290527344 309.9564208984375 327.7044067382812 309.2755432128906 327.7044067382812 308.4385986328125 C 327.7044067382812 307.6016540527344 327.0235290527344 306.9207763671875 326.1866149902344 306.9207763671875 C 325.3496704101562 306.9207763671875 324.6687622070312 307.6016540527344 324.6687622070312 308.4385986328125 C 324.6687622070312 309.2755432128906 325.3496704101562 309.9564208984375 326.1866149902344 309.9564208984375 Z" stroke="none" fill="#f80"/>
        </g>
      </g>
    </g>
    <g id="Group_10303" data-name="Group 10303" transform="translate(6.356 14.125)">
      <g id="Group_10302" data-name="Group 10302" transform="translate(0 0)">
        <g id="Path_1898" data-name="Path 1898" transform="translate(-101.647 -304.403)" fill="#fff">
          <path d="M 105.6826095581055 312.7242431640625 C 103.3195190429688 312.7242431640625 101.3970031738281 310.8016967773438 101.3970031738281 308.4385986328125 C 101.3970031738281 306.0755310058594 103.3195190429688 304.1530151367188 105.6826095581055 304.1530151367188 C 108.0457305908203 304.1530151367188 109.96826171875 306.0755310058594 109.96826171875 308.4385986328125 C 109.96826171875 310.8016967773438 108.0457305908203 312.7242431640625 105.6826095581055 312.7242431640625 Z M 105.6826095581055 306.6707763671875 C 104.7078323364258 306.6707763671875 103.914794921875 307.4638061523438 103.914794921875 308.4385986328125 C 103.914794921875 309.4133911132812 104.7078323364258 310.2064208984375 105.6826095581055 310.2064208984375 C 106.6573944091797 310.2064208984375 107.450439453125 309.4133911132812 107.450439453125 308.4385986328125 C 107.450439453125 307.4638061523438 106.6573944091797 306.6707763671875 105.6826095581055 306.6707763671875 Z" stroke="none"/>
          <path d="M 105.6826095581055 304.4030151367188 C 103.4573211669922 304.4030151367188 101.6470031738281 306.2133178710938 101.6470031738281 308.4385986328125 C 101.6470031738281 310.6638793945312 103.4573211669922 312.4742431640625 105.6826095581055 312.4742431640625 C 107.9079132080078 312.4742431640625 109.71826171875 310.6638793945312 109.71826171875 308.4385986328125 C 109.71826171875 306.2133178710938 107.9079132080078 304.4030151367188 105.6826095581055 304.4030151367188 M 105.6826095581055 310.4564208984375 C 104.5698089599609 310.4564208984375 103.664794921875 309.5514526367188 103.664794921875 308.4385986328125 C 103.664794921875 307.3258056640625 104.5698089599609 306.4207763671875 105.6826095581055 306.4207763671875 C 106.7950897216797 306.4207763671875 107.700439453125 307.3258056640625 107.700439453125 308.4385986328125 C 107.700439453125 309.5514526367188 106.7954254150391 310.4564208984375 105.6826095581055 310.4564208984375 M 105.6826095581055 303.9030151367188 C 108.1835861206055 303.9030151367188 110.21826171875 305.9376831054688 110.21826171875 308.4385986328125 C 110.21826171875 310.9395446777344 108.1835861206055 312.9742431640625 105.6826095581055 312.9742431640625 C 103.1816711425781 312.9742431640625 101.1470031738281 310.9395446777344 101.1470031738281 308.4385986328125 C 101.1470031738281 305.9376831054688 103.1816711425781 303.9030151367188 105.6826095581055 303.9030151367188 Z M 105.6826095581055 309.9564208984375 C 106.5195388793945 309.9564208984375 107.200439453125 309.2755432128906 107.200439453125 308.4385986328125 C 107.200439453125 307.6016540527344 106.5195388793945 306.9207763671875 105.6826095581055 306.9207763671875 C 104.8456802368164 306.9207763671875 104.164794921875 307.6016540527344 104.164794921875 308.4385986328125 C 104.164794921875 309.2755432128906 104.8456802368164 309.9564208984375 105.6826095581055 309.9564208984375 Z" stroke="none" fill="#f80"/>
        </g>
      </g>
    </g>
    <g id="Group_10305" data-name="Group 10305" transform="translate(20.682 2.018)">
      <g id="Group_10304" data-name="Group 10304" transform="translate(0 0)">
        <g id="Path_1899" data-name="Path 1899" transform="translate(-330.756 -110.79)" fill="#fff">
          <path d="M 338.0835571289062 118.6076889038086 L 337.9712524414062 118.3843154907227 L 335.293212890625 113.0578155517578 L 330.7559814453125 113.0578155517578 L 330.5059814453125 113.0578155517578 L 330.5059814453125 112.8078155517578 L 330.5059814453125 110.7899932861328 L 330.5059814453125 110.5399932861328 L 330.7559814453125 110.5399932861328 L 336.0696105957031 110.5399932861328 C 336.5482177734375 110.5399932861328 336.979248046875 110.8055953979492 337.1945495605469 111.233154296875 L 340.2212219238281 117.2530059814453 L 340.3335266113281 117.4763565063477 L 340.1101684570312 117.5886535644531 L 338.3069152832031 118.4953689575195 L 338.0835571289062 118.6076889038086 Z" stroke="none"/>
          <path d="M 330.7559814453125 110.7899932861328 L 330.7559814453125 112.8078155517578 L 335.4473571777344 112.8078155517578 L 338.1946105957031 118.2720184326172 L 339.9978637695312 117.3653030395508 L 336.9712524414062 111.345588684082 C 336.7997131347656 111.0049133300781 336.4509582519531 110.7899932861328 336.0696105957031 110.7899932861328 L 330.7559814453125 110.7899932861328 M 330.2559814453125 110.2899932861328 L 336.0696105957031 110.2899932861328 C 336.6432189941406 110.2899932861328 337.1598205566406 110.6083068847656 337.4178466796875 111.1207122802734 L 340.6691589355469 117.58740234375 L 337.9725036621094 118.9433441162109 L 335.1390991210938 113.3078155517578 L 330.2559814453125 113.3078155517578 L 330.2559814453125 110.2899932861328 Z" stroke="none" fill="#f80"/>
        </g>
      </g>
    </g>
    <g id="Group_10307" data-name="Group 10307" transform="translate(13.519 17.185)">
      <g id="Group_10306" data-name="Group 10306" transform="translate(0 0)">
        <rect id="Rectangle_1138" data-name="Rectangle 1138" width="7.634" height="2.018" fill="#fff"/>
      </g>
    </g>
    <g id="Group_10309" data-name="Group 10309" transform="translate(2.859 17.185)">
      <g id="Group_10308" data-name="Group 10308" transform="translate(0 0)">
        <g id="Path_1900" data-name="Path 1900" transform="translate(-45.715 -353.345)" fill="#fff">
          <path d="M 50.22142028808594 355.61279296875 L 46.72386932373047 355.61279296875 C 46.02972030639648 355.61279296875 45.46499252319336 355.0480651855469 45.46499252319336 354.3538818359375 C 45.46499252319336 353.6597290039062 46.02972030639648 353.0950012207031 46.72386932373047 353.0950012207031 L 50.22135162353516 353.0950012207031 C 50.91553115844727 353.0950012207031 51.48028945922852 353.6597290039062 51.48028945922852 354.3538818359375 C 51.48028945922852 355.0480651855469 50.91556167602539 355.61279296875 50.22142028808594 355.61279296875 Z" stroke="none"/>
          <path d="M 46.72386932373047 353.3450012207031 C 46.16659164428711 353.3450012207031 45.71499252319336 353.7966918945312 45.71499252319336 354.3538818359375 C 45.71499252319336 354.9111633300781 46.16666030883789 355.36279296875 46.72386932373047 355.36279296875 L 50.22142028808594 355.36279296875 C 50.77869033813477 355.36279296875 51.23028945922852 354.9111328125 51.23028945922852 354.3538818359375 C 51.23028945922852 353.796630859375 50.77864074707031 353.3450012207031 50.22135162353516 353.3450012207031 L 46.72386932373047 353.3450012207031 M 46.72386932373047 352.8450012207031 L 50.22135162353516 352.8450012207031 C 51.05338287353516 352.8450012207031 51.73028945922852 353.5218811035156 51.73028945922852 354.3538818359375 C 51.73028945922852 355.1859130859375 51.05340957641602 355.86279296875 50.22142028808594 355.86279296875 L 46.72386932373047 355.86279296875 C 45.89187240600586 355.86279296875 45.21499252319336 355.1859130859375 45.21499252319336 354.3538818359375 C 45.21499252319336 353.5218811035156 45.89187240600586 352.8450012207031 46.72386932373047 352.8450012207031 Z" stroke="none" fill="#f80"/>
        </g>
      </g>
    </g>
    <g id="Group_10311" data-name="Group 10311" transform="translate(2.859 0)">
      <g id="Group_10310" data-name="Group 10310" transform="translate(0 0)">
        <g id="Path_1901" data-name="Path 1901" transform="translate(-45.715 -78.521)" fill="#fff">
          <path d="M 73.86332702636719 97.97364807128906 L 70.06313323974609 97.97364807128906 C 69.36898803710938 97.97364807128906 68.80425262451172 97.40891265869141 68.80425262451172 96.71476745605469 C 68.80425262451172 96.02062225341797 69.36898803710938 95.45589447021484 70.06313323974609 95.45589447021484 L 72.60444641113281 95.45589447021484 L 72.60444641113281 90.58827972412109 L 71.26274108886719 88.85993194580078 L 63.53889465332031 88.85993194580078 C 62.84474563598633 88.85993194580078 62.28001403808594 88.29520416259766 62.28001403808594 87.60105133056641 L 62.28001403808594 80.78874206542969 L 46.72387313842773 80.78874206542969 C 46.02972412109375 80.78874206542969 45.46499633789062 80.22401428222656 45.46499633789062 79.52987670898438 C 45.46499633789062 78.83572387695312 46.02972412109375 78.27099609375 46.72387313842773 78.27099609375 L 63.53894424438477 78.27099609375 C 64.23309326171875 78.27099609375 64.79782867431641 78.83572387695312 64.79782867431641 79.52987670898438 L 64.79782867431641 86.34218597412109 L 71.87921142578125 86.34218597412109 C 72.26567840576172 86.34218597412109 72.63739776611328 86.52426147460938 72.87358856201172 86.82925415039062 L 74.85787200927734 89.3848876953125 C 75.02839660644531 89.60476684570312 75.12226867675781 89.87894439697266 75.12226867675781 90.15702819824219 L 75.12226867675781 96.71476745605469 C 75.1221923828125 97.40892791748047 74.55743408203125 97.97364807128906 73.86332702636719 97.97364807128906 Z" stroke="none"/>
          <path d="M 73.86332702636719 97.72364807128906 C 74.42060852050781 97.72364807128906 74.87220764160156 97.27198791503906 74.87226867675781 96.71476745605469 L 74.87226867675781 90.15702819824219 C 74.87226867675781 89.93302154541016 74.797607421875 89.71511077880859 74.66040802001953 89.5382080078125 L 72.67592620849609 86.98232269287109 C 72.48526763916016 86.73612213134766 72.19099426269531 86.59218597412109 71.87921142578125 86.59218597412109 L 64.54782867431641 86.59218597412109 L 64.54782867431641 79.52987670898438 C 64.54782867431641 78.97259521484375 64.09617614746094 78.52099609375 63.53894424438477 78.52099609375 L 46.72387313842773 78.52099609375 C 46.16659545898438 78.52099609375 45.71499633789062 78.97265625 45.71499633789062 79.52987670898438 C 45.71499633789062 80.08708190917969 46.16666412353516 80.53874206542969 46.72387313842773 80.53874206542969 L 62.53001403808594 80.53874206542969 L 62.53001403808594 87.60105133056641 C 62.53001403808594 88.15833282470703 62.98167419433594 88.60993194580078 63.53889465332031 88.60993194580078 L 71.38515472412109 88.60993194580078 L 72.85444641113281 90.50263214111328 L 72.85444641113281 95.70589447021484 L 70.06313323974609 95.70589447021484 C 69.50585174560547 95.70589447021484 69.05425262451172 96.15755462646484 69.05425262451172 96.71476745605469 C 69.05425262451172 97.27204132080078 69.50591278076172 97.72364807128906 70.06313323974609 97.72364807128906 L 73.86332702636719 97.72364807128906 M 73.86332702636719 98.22364807128906 L 70.06313323974609 98.22364807128906 C 69.23113250732422 98.22364807128906 68.55425262451172 97.54676818847656 68.55425262451172 96.71476745605469 C 68.55425262451172 95.88277435302734 69.23113250732422 95.20589447021484 70.06313323974609 95.20589447021484 L 72.35444641113281 95.20589447021484 L 72.35444641113281 90.67392730712891 L 71.14032745361328 89.10993194580078 L 63.53889465332031 89.10993194580078 C 62.70689392089844 89.10993194580078 62.03001403808594 88.43305206298828 62.03001403808594 87.60105133056641 L 62.03001403808594 81.03874206542969 L 46.72387313842773 81.03874206542969 C 45.89187622070312 81.03874206542969 45.21499633789062 80.36186218261719 45.21499633789062 79.52987670898438 C 45.21499633789062 78.6978759765625 45.89187622070312 78.02099609375 46.72387313842773 78.02099609375 L 63.53894424438477 78.02099609375 C 64.37094116210938 78.02099609375 65.04782867431641 78.6978759765625 65.04782867431641 79.52987670898438 L 65.04782867431641 86.09218597412109 L 71.87921142578125 86.09218597412109 C 72.34243774414062 86.09218597412109 72.78805541992188 86.31050109863281 73.07124328613281 86.67618560791016 L 75.05533599853516 89.2315673828125 C 75.25977325439453 89.49516296386719 75.37226867675781 89.82375335693359 75.37226867675781 90.15702819824219 L 75.37226867675781 96.71476745605469 C 75.37217712402344 97.54678344726562 74.69526672363281 98.22364807128906 73.86332702636719 98.22364807128906 Z" stroke="none" fill="#f80"/>
        </g>
      </g>
    </g>
    <g id="Group_10313" data-name="Group 10313" transform="translate(1.648 12.073)">
      <g id="Group_10312" data-name="Group 10312" transform="translate(0 0)">
        <g id="Path_1902" data-name="Path 1902" transform="translate(-26.353 -271.597)" fill="#fff">
          <path d="M 32.00279998779297 273.8647766113281 L 27.36187934875488 273.8647766113281 C 26.66772842407227 273.8647766113281 26.10299873352051 273.300048828125 26.10299873352051 272.6058654785156 C 26.10299873352051 271.9117126464844 26.66772842407227 271.3469848632812 27.36187934875488 271.3469848632812 L 32.00286102294922 271.3469848632812 C 32.33913803100586 271.3469848632812 32.65526962280273 271.4779357910156 32.89302825927734 271.7156982421875 C 33.13079071044922 271.9534912109375 33.26171875 272.2696228027344 33.26168060302734 272.6058959960938 C 33.26168060302734 273.300048828125 32.69694900512695 273.8647766113281 32.00279998779297 273.8647766113281 Z" stroke="none"/>
          <path d="M 27.36187744140625 271.5969848632812 C 26.80459976196289 271.5969848632812 26.35300064086914 272.0486755371094 26.35300064086914 272.6058654785156 C 26.35300064086914 273.1631774902344 26.80466842651367 273.6147766113281 27.36187744140625 273.6147766113281 L 32.00279998779297 273.6147766113281 C 32.56008148193359 273.6147766113281 33.01168060302734 273.1630859375 33.01168060302734 272.6058654785156 C 33.01174163818359 272.0486755371094 32.56008148193359 271.5969848632812 32.00286102294922 271.5969848632812 L 27.36187744140625 271.5969848632812 M 27.36187744140625 271.0969848632812 L 32.00286102294922 271.0969848632812 C 32.40592193603516 271.0969848632812 32.78483963012695 271.2539367675781 33.06980895996094 271.5389404296875 C 33.35479736328125 271.8239440917969 33.51171875 272.202880859375 33.51168060302734 272.6059265136719 C 33.51168060302734 273.4378967285156 32.83480072021484 274.1147766113281 32.00279998779297 274.1147766113281 L 27.36187744140625 274.1147766113281 C 26.52988052368164 274.1147766113281 25.85300064086914 273.4378967285156 25.85300064086914 272.6058654785156 C 25.85300064086914 271.7738647460938 26.52988052368164 271.0969848632812 27.36187744140625 271.0969848632812 Z" stroke="none" fill="#f80"/>
        </g>
      </g>
    </g>
    <g id="Group_10315" data-name="Group 10315" transform="translate(0 8.105)">
      <g id="Group_10314" data-name="Group 10314" transform="translate(0 0)">
        <g id="Path_1903" data-name="Path 1903" transform="translate(0 -208.134)" fill="#fff">
          <path d="M 9.618209838867188 210.4018249511719 L 1.008879542350769 210.4018249511719 C 0.3147295117378235 210.4018249511719 -0.2500005066394806 209.8370971679688 -0.2500005066394806 209.1429748535156 C -0.2500005066394806 208.4487762451172 0.3147295117378235 207.8840026855469 1.008879542350769 207.8840026855469 L 9.618209838867188 207.8840026855469 C 10.31234931945801 207.8840026855469 10.87707996368408 208.4487762451172 10.87707996368408 209.1429748535156 C 10.87707996368408 209.8370971679688 10.31234931945801 210.4018249511719 9.618209838867188 210.4018249511719 Z" stroke="none"/>
          <path d="M 1.008879661560059 208.1340026855469 C 0.4516592025756836 208.1340026855469 -9.5367431640625e-07 208.585693359375 -9.5367431640625e-07 209.1429748535156 C -9.5367431640625e-07 209.7002105712891 0.4516592025756836 210.1518249511719 1.008879661560059 210.1518249511719 L 9.618209838867188 210.1518249511719 C 10.17547988891602 210.1518249511719 10.62707996368408 209.7001647949219 10.62707996368408 209.1429748535156 C 10.62707996368408 208.5857238769531 10.17547988891602 208.1340026855469 9.618209838867188 208.1340026855469 L 1.008879661560059 208.1340026855469 M 1.008879661560059 207.6340026855469 L 9.618209838867188 207.6340026855469 C 10.45019912719727 207.6340026855469 11.12707901000977 208.3109283447266 11.12707901000977 209.1429748535156 C 11.12707901000977 209.9749603271484 10.45019912719727 210.6518249511719 9.618209838867188 210.6518249511719 L 1.008879661560059 210.6518249511719 C 0.1768798828125 210.6518249511719 -0.5000009536743164 209.9749603271484 -0.5000009536743164 209.1429748535156 C -0.5000009536743164 208.3109283447266 0.1768798828125 207.6340026855469 1.008879661560059 207.6340026855469 Z" stroke="none" fill="#f80"/>
        </g>
      </g>
    </g>
    <g id="Group_10317" data-name="Group 10317" transform="translate(1.648 4.136)">
      <g id="Group_10316" data-name="Group 10316" transform="translate(0 0)">
        <g id="Path_1904" data-name="Path 1904" transform="translate(-26.353 -144.672)" fill="#fff">
          <path d="M 35.97119903564453 146.9397583007812 L 27.36187934875488 146.9397583007812 C 26.66772842407227 146.9397583007812 26.10299873352051 146.3750152587891 26.10299873352051 145.6808624267578 C 26.10299873352051 144.9867248535156 26.66772842407227 144.4219970703125 27.36187934875488 144.4219970703125 L 35.97119903564453 144.4219970703125 C 36.30749893188477 144.4219970703125 36.6236572265625 144.5529327392578 36.86141967773438 144.7906951904297 C 37.09918975830078 145.0284729003906 37.23011779785156 145.3446044921875 37.23008728027344 145.6808776855469 C 37.23008728027344 146.3750152587891 36.66534805297852 146.9397583007812 35.97119903564453 146.9397583007812 Z" stroke="none"/>
          <path d="M 27.36187744140625 144.6719970703125 C 26.80459976196289 144.6719970703125 26.35300064086914 145.1236572265625 26.35300064086914 145.6808624267578 C 26.35300064086914 146.2381591796875 26.80466842651367 146.6897583007812 27.36187744140625 146.6897583007812 L 35.97119903564453 146.6897583007812 C 36.52848815917969 146.6897583007812 36.98007965087891 146.2380676269531 36.98007965087891 145.6808624267578 C 36.98014068603516 145.1236572265625 36.52848815917969 144.6719970703125 35.97119903564453 144.6719970703125 L 27.36187744140625 144.6719970703125 M 27.36187744140625 144.1719970703125 L 35.97119903564453 144.1719970703125 C 36.3742790222168 144.1719970703125 36.75321960449219 144.3289489746094 37.03820037841797 144.6139221191406 C 37.32318878173828 144.8989105224609 37.48011779785156 145.2778472900391 37.48007965087891 145.680908203125 C 37.48007965087891 146.5128631591797 36.80319976806641 147.1897583007812 35.97119903564453 147.1897583007812 L 27.36187744140625 147.1897583007812 C 26.52988052368164 147.1897583007812 25.85300064086914 146.5128631591797 25.85300064086914 145.6808624267578 C 25.85300064086914 144.8488616943359 26.52988052368164 144.1719970703125 27.36187744140625 144.1719970703125 Z" stroke="none" fill="#f80"/>
        </g>
      </g>
    </g>
  </g>
</svg>
