<svg xmlns="http://www.w3.org/2000/svg" width="21.217" height="23.299" viewBox="0 0 21.217 23.299">
    <g data-name="Group 10671">
        <g data-name="Group 10670">
            <path data-name="Path 1918" d="M16 10v13.261l10.608 5.4v-14.02z" transform="translate(-16 -5.359)" style="fill:#cecece"/>
            <path data-name="Path 1919" d="M32 14.641v14.017l10.608-5.331V10z" transform="translate(-21.392 -5.359)" style="fill:#f5f5f5"/>
            <path data-name="Path 1924" d="m26.608 12.282 10.609-4.641L26.608 3 16 7.641z" transform="translate(-16 -3)" style="fill:#fff"/>
        </g>
        <path data-name="Path 1930" d="M14.957 17.396 12.3 18.731a.664.664 0 1 0 .6 1.185l2.657-1.335a.664.664 0 1 0-.6-1.185z"/>
        <path data-name="Path 1931" d="M12.598 17.334a.663.663 0 0 0 .3-.07l2.619-1.316a.664.664 0 1 0-.6-1.185l-2.618 1.316a.663.663 0 0 0 .3 1.255z"/>
    </g>
</svg>
