<svg xmlns="http://www.w3.org/2000/svg" width="231.953" height="60.13" viewBox="0 0 231.953 60.13">
    <g id="Group_12741" data-name="Group 12741" transform="translate(-57.783 -330.378)">
        <g id="Group_12736" data-name="Group 12736" transform="translate(-44.179 -1.492)">
            <g id="Group_12732" data-name="Group 12732" transform="translate(242.361 298.452)">
                <g id="Group_12733" data-name="Group 12733" transform="translate(29.756 33.419)">
                    <path id="Path_4193" style="fill:#FFFFFF" data-name="Path 4193" class="cls-3" d="M87.038 50c-.179.1-.306.161-.43.232Q72 58.63 57.393 67.02a.488.488 0 0 0-.28.5q.012 5.18.008 10.36c0 .1-.037.205.05.308l.214-.12 15.644-8.991 13.708-7.875c.177-.1.31-.187.309-.446-.012-3.56-.008-7.12-.008-10.75M38.845 38.857c.153.091.266.16.38.226L47.2 43.71q10.551 6.119 21.1 12.24c.208.121.372.223.645.064 2.977-1.738 5.965-3.456 8.948-5.183.1-.056.229-.076.265-.217-.045-.032-.086-.066-.132-.093q-14.663-8.5-29.323-17.005a.555.555 0 0 0-.647.012q-3.261 1.9-6.532 3.778l-2.684 1.55m4.51 7.585v.391l-.038 21.439q-.012 6.08-.037 12.159a.734.734 0 0 0 .424.746c2.924 1.669 5.837 3.357 8.753 5.039.421.243.421.243.422-.241l.014-18.84c0-1.026.02-2.052.023-3.079q.017-5.88.036-11.759a.493.493 0 0 0-.3-.494c-1.675-.957-3.344-1.926-5.015-2.89l-4.285-2.47M39.58 66.153v-2.015q.006-9.8.017-19.594a.406.406 0 0 0-.228-.41q-4.515-2.6-9.02-5.209c-.257-.149-.321-.125-.328.184-.06 2.556-.122 5.112-.209 7.667a26.955 26.955 0 0 0 .165 5.42 19.49 19.49 0 0 0 9.257 13.85.4.4 0 0 0 .345.108m36.6 5.478c-.131.072-.2.108-.268.147Q66.654 77.1 57.394 82.415a.493.493 0 0 0-.28.5q.012 5.16.005 10.32v.307c.164.026.252-.067.353-.122 2.786-1.5 5.576-3 8.355-4.513A19.677 19.677 0 0 0 76.179 71.63m15.375-28.68c-.139-.089-.238-.156-.34-.218l-7.852-4.833a19.518 19.518 0 0 0-14.474-2.68 18.984 18.984 0 0 0-5.83 2.191c.044.13.156.158.245.21q9.218 5.347 18.434 10.7a.463.463 0 0 0 .543-.005c.847-.5 1.7-.99 2.554-1.482l6.719-3.879" transform="translate(-29.756 -33.418)"/>
                    <path id="Path_4194" style="fill:#FFFFFF" data-name="Path 4194" class="cls-3" d="M259.573 176.027c0 3.631 0 7.191.008 10.75 0 .259-.132.344-.309.446q-6.855 3.936-13.708 7.875l-15.643 8.991-.214.12c-.087-.1-.05-.212-.051-.308q0-5.18-.008-10.36a.488.488 0 0 1 .28-.5q14.611-8.385 29.215-16.783c.123-.071.251-.136.43-.232" transform="translate(-202.291 -159.441)"/>
                    <path id="Path_4195" style="fill:#FFFFFF" data-name="Path 4195" class="cls-3" d="m123.843 85.408 2.684-1.55q3.267-1.887 6.532-3.778a.555.555 0 0 1 .647-.012q14.656 8.511 29.323 17.005c.046.027.087.061.132.093-.036.14-.169.161-.265.217-2.984 1.726-5.972 3.445-8.948 5.183-.273.159-.437.056-.645-.064q-10.549-6.122-21.1-12.24l-7.978-4.627c-.114-.066-.228-.135-.38-.226" transform="translate(-114.754 -79.97)"/>
                    <path id="Path_4196" style="fill:#FFFFFF" data-name="Path 4196" class="cls-3" d="m149.6 155.4 4.285 2.471c1.671.964 3.339 1.934 5.015 2.89a.493.493 0 0 1 .3.494q-.028 5.88-.036 11.759c0 1.026-.022 2.052-.023 3.079q-.01 9.42-.014 18.841c0 .484 0 .484-.422.241-2.916-1.683-5.829-3.371-8.753-5.039a.733.733 0 0 1-.424-.746q.034-6.079.037-12.159.021-10.72.038-21.439v-.391" transform="translate(-136.002 -142.372)"/>
                    <path id="Path_4197" style="fill:#FFFFFF" data-name="Path 4197" class="cls-3" d="M81.029 138.659a.4.4 0 0 1-.345-.108 19.491 19.491 0 0 1-9.257-13.85 26.954 26.954 0 0 1-.165-5.42c.087-2.555.148-5.111.209-7.667.007-.309.071-.333.328-.184q4.5 2.613 9.02 5.209a.406.406 0 0 1 .228.41q-.014 9.8-.017 19.594v2.015" transform="translate(-71.205 -105.925)"/>
                    <path id="Path_4198" style="fill:#FFFFFF" data-name="Path 4198" class="cls-3" d="M248.716 301.274a19.677 19.677 0 0 1-10.351 17.278c-2.779 1.516-5.57 3.01-8.356 4.513-.1.054-.189.148-.353.122v-.307q0-5.16-.005-10.32a.493.493 0 0 1 .28-.5q9.263-5.312 18.517-10.638c.067-.039.136-.075.268-.147" transform="translate(-202.293 -263.062)"/>
                    <path id="Path_4199" style="fill:#FFFFFF" data-name="Path 4199" class="cls-3" d="m292.571 96.223-6.719 3.879c-.852.492-1.708.98-2.554 1.482a.463.463 0 0 1-.543.005q-9.213-5.355-18.434-10.7c-.089-.052-.2-.08-.245-.21a18.984 18.984 0 0 1 5.83-2.191 19.518 19.518 0 0 1 14.474 2.68Q288.3 93.6 292.232 96l.34.218" transform="translate(-230.773 -86.691)"/>
                </g>
            </g>
        </g>
        <g id="Group_12740" data-name="Group 12740" transform="translate(57.783 342.378)">
            <g id="Group_12739" data-name="Group 12739" style="clip-path:url(#clip-path)">
                <path id="Path_4214" style="fill:#FFFFFF" data-name="Path 4214" class="cls-1" d="M449.031 88.322a4.005 4.005 0 0 0-2.779 1.051 3.742 3.742 0 0 0-1.173 2.9 3.685 3.685 0 0 0 1.173 2.855 4 4 0 0 0 2.779 1.051 3.947 3.947 0 0 0 2.732-1.051 3.69 3.69 0 0 0 1.173-2.855 3.746 3.746 0 0 0-1.173-2.9 3.951 3.951 0 0 0-2.732-1.051" transform="translate(-300.887 -59.708)"/>
                <path id="Path_4215" style="fill:#FFFFFF" data-name="Path 4215" class="cls-1" d="M352.84 88.322a4 4 0 0 0-2.778 1.051 3.738 3.738 0 0 0-1.174 2.9 3.684 3.684 0 0 0 1.173 2.855 4 4 0 0 0 2.779 1.051 3.947 3.947 0 0 0 2.732-1.051 3.69 3.69 0 0 0 1.173-2.855 3.746 3.746 0 0 0-1.173-2.9 3.95 3.95 0 0 0-2.732-1.051" transform="translate(-235.859 -59.708)"/>
                <path id="Path_4216" style="fill:#FFFFFF" data-name="Path 4216" class="cls-1" d="M324.742 88.322a4.005 4.005 0 0 0-2.779 1.051 3.741 3.741 0 0 0-1.173 2.9 3.684 3.684 0 0 0 1.173 2.855 4 4 0 0 0 2.779 1.051 3.947 3.947 0 0 0 2.732-1.051 3.69 3.69 0 0 0 1.173-2.855 3.746 3.746 0 0 0-1.173-2.9 3.95 3.95 0 0 0-2.732-1.051" transform="translate(-216.864 -59.708)"/>
                <path id="Path_4217" style="fill:#FFFFFF" data-name="Path 4217" class="cls-1" d="M147.5 18.99a5.152 5.152 0 0 1-8.148 0 9.458 9.458 0 0 1-1.5-5.651 9.267 9.267 0 0 1 1.5-5.579 5.189 5.189 0 0 1 8.151 0 9.27 9.27 0 0 1 1.5 5.579 9.469 9.469 0 0 1-1.5 5.651m-64.564 0a5.152 5.152 0 0 1-8.148 0 9.465 9.465 0 0 1-1.5-5.651 9.273 9.273 0 0 1 1.5-5.579 5.189 5.189 0 0 1 8.151 0 9.27 9.27 0 0 1 1.5 5.579 9.469 9.469 0 0 1-1.5 5.651m79.527-5.51a11.985 11.985 0 0 1-.892 5.39c-.555 1.013-1.624 1.506-3.267 1.506a7.089 7.089 0 0 1-2.452-.424 11.017 11.017 0 0 1-1.275-.546q.12-.295.227-.6a16.4 16.4 0 0 0 .873-5.467 15.829 15.829 0 0 0-.9-5.45 12.62 12.62 0 0 0-2.513-4.216 11.022 11.022 0 0 0-3.895-2.72 12.736 12.736 0 0 0-4.95-.953 12.538 12.538 0 0 0-4.925.953 11.3 11.3 0 0 0-3.893 2.716 12.39 12.39 0 0 0-2.539 4.22 15.838 15.838 0 0 0-.9 5.45 17.712 17.712 0 0 0 .243 2.965 7.42 7.42 0 0 1-.74 2.561 3.343 3.343 0 0 1-3.2 1.507H94.465a16.376 16.376 0 0 1-2.023-.138 70.698 70.698 0 0 1-1.333-.178v-6.381c0-.112.006-.223.006-.336s0-.218-.006-.329v-.218q-.017-.565-.065-1.113v-.037a14.936 14.936 0 0 0-.818-3.754A12.61 12.61 0 0 0 87.7 3.673 11.023 11.023 0 0 0 83.809.952 12.737 12.737 0 0 0 78.861 0a12.541 12.541 0 0 0-4.924.953 11.311 11.311 0 0 0-3.893 2.717 12.416 12.416 0 0 0-2.539 4.22 15.838 15.838 0 0 0-.9 5.45 16.006 16.006 0 0 0 .9 5.471 12.566 12.566 0 0 0 2.513 4.242 11.341 11.341 0 0 0 3.866 2.741 12.419 12.419 0 0 0 4.976.978 12.6 12.6 0 0 0 5-.977c.169-.073.335-.15.5-.23a7.865 7.865 0 0 1-.751 2.762c-.556 1.013-1.624 1.506-3.268 1.506h-9.53v5.736h9.523v-.032c.255.018.508.03.762.03A12.239 12.239 0 0 0 86 34.705a7.4 7.4 0 0 0 3.1-2.449 9.42 9.42 0 0 0 1.532-3.747 23.155 23.155 0 0 0 .33-2.609c1.133.118 2.3.188 3.505.2h33.008c.143 0 .283.008.427.008a11.706 11.706 0 0 0 4.331-.69 8.71 8.71 0 0 0 2.6-1.6 35.134 35.134 0 0 0 3.62 1.97 12.413 12.413 0 0 0 4.976.978 12.6 12.6 0 0 0 5-.977 10.909 10.909 0 0 0 3.168-2.028l.1.068c.309.2.631.406 1.044.625a14.24 14.24 0 0 0 1.846.8 17.164 17.164 0 0 0 2.153.6 11.25 11.25 0 0 0 2.327.244 12.221 12.221 0 0 0 4.907-.861 7.407 7.407 0 0 0 3.094-2.449 9.432 9.432 0 0 0 1.533-3.747 25.154 25.154 0 0 0 .399-4.665V.1h-6.538z" transform="translate(-45.029)"/>
                <path id="Path_4218" style="fill:#FFFFFF" data-name="Path 4218" class="cls-1" d="M407.619.294v13.385a11.981 11.981 0 0 1-.893 5.39c-.556 1.013-1.624 1.506-3.268 1.506a7.128 7.128 0 0 1-2.452-.423c-.353-.13-.648-.257-.92-.381V.294h-6.538v22.841a11.955 11.955 0 0 1-.906 5.39c-.556 1.013-1.624 1.505-3.268 1.505a7.088 7.088 0 0 1-2.451-.424 9.966 9.966 0 0 1-1.436-.633l-2.726 4.531c.3.195.647.4 1.042.608a14.121 14.121 0 0 0 1.846.8 16.854 16.854 0 0 0 2.152.6 11.2 11.2 0 0 0 2.328.245 12.25 12.25 0 0 0 4.907-.86 7.414 7.414 0 0 0 3.094-2.45 9.438 9.438 0 0 0 1.533-3.747 23.5 23.5 0 0 0 .363-3.149 17.177 17.177 0 0 0 1.86.506 11.182 11.182 0 0 0 2.326.245 12.217 12.217 0 0 0 4.908-.861A7.387 7.387 0 0 0 412.215 23a9.424 9.424 0 0 0 1.533-3.747 25.155 25.155 0 0 0 .408-4.677V.294z" transform="translate(-258.759 -.199)"/>
                <path id="Path_4219" style="fill:#FFFFFF" data-name="Path 4219" class="cls-1" d="M10.787 23.134a11.953 11.953 0 0 1-.906 5.39c-.556 1.013-1.624 1.506-3.268 1.506a7.088 7.088 0 0 1-2.451-.424 9.842 9.842 0 0 1-1.436-.633L0 33.5c.3.2.647.4 1.042.608a14.215 14.215 0 0 0 1.846.8 17.1 17.1 0 0 0 2.152.6 11.259 11.259 0 0 0 2.328.245 12.231 12.231 0 0 0 4.907-.86 7.426 7.426 0 0 0 3.095-2.449 9.459 9.459 0 0 0 1.53-3.738 25.042 25.042 0 0 0 .424-4.677V.293h-6.537z" transform="translate(0 -.198)"/>
            </g>
        </g>
    </g>
</svg>
