<svg xmlns="http://www.w3.org/2000/svg" width="61.798" height="60.13" viewBox="0 0 61.798 60.13">
    <g data-name="Group 12737">
        <g data-name="Group 12733">
            <path data-name="Path 4193" d="M87.038 50c-.179.1-.306.161-.43.232Q72 58.63 57.393 67.02a.488.488 0 0 0-.28.5q.012 5.18.008 10.36c0 .1-.037.205.05.308l.214-.12 15.644-8.991 13.708-7.875c.177-.1.31-.187.309-.446-.012-3.56-.008-7.12-.008-10.75M38.845 38.857c.153.091.266.16.38.226L47.2 43.71q10.551 6.119 21.1 12.24c.208.121.372.223.645.064 2.977-1.738 5.965-3.456 8.948-5.183.1-.056.229-.076.265-.217-.045-.032-.086-.066-.132-.093q-14.663-8.5-29.323-17.005a.555.555 0 0 0-.647.012q-3.261 1.9-6.532 3.778l-2.684 1.55m4.51 7.585v.391l-.038 21.439q-.012 6.08-.037 12.159a.734.734 0 0 0 .424.746c2.924 1.669 5.837 3.357 8.753 5.039.421.243.421.243.422-.241l.014-18.84c0-1.026.02-2.052.023-3.079q.017-5.88.036-11.759a.493.493 0 0 0-.3-.494c-1.675-.957-3.344-1.926-5.015-2.89l-4.285-2.47M39.58 66.153v-2.015q.006-9.8.017-19.594a.406.406 0 0 0-.228-.41q-4.515-2.6-9.02-5.209c-.257-.149-.321-.125-.328.184-.06 2.556-.122 5.112-.209 7.667a26.955 26.955 0 0 0 .165 5.42 19.49 19.49 0 0 0 9.257 13.85.4.4 0 0 0 .345.108m36.6 5.478c-.131.072-.2.108-.268.147Q66.654 77.1 57.394 82.415a.493.493 0 0 0-.28.5q.012 5.16.005 10.32v.307c.164.026.252-.067.353-.122 2.786-1.5 5.576-3 8.355-4.513A19.677 19.677 0 0 0 76.179 71.63m15.375-28.68c-.139-.089-.238-.156-.34-.218l-7.852-4.833a19.518 19.518 0 0 0-14.474-2.68 18.984 18.984 0 0 0-5.83 2.191c.044.13.156.158.245.21q9.218 5.347 18.434 10.7a.463.463 0 0 0 .543-.005c.847-.5 1.7-.99 2.554-1.482l6.719-3.879" transform="translate(-29.756 -33.418)" style="fill:#03408e"/>
            <path data-name="Path 4194" d="M259.573 176.027c0 3.631 0 7.191.008 10.75 0 .259-.132.344-.309.446q-6.855 3.936-13.708 7.875l-15.643 8.991-.214.12c-.087-.1-.05-.212-.051-.308q0-5.18-.008-10.36a.488.488 0 0 1 .28-.5q14.611-8.385 29.215-16.783c.123-.071.251-.136.43-.232" transform="translate(-202.291 -159.441)" style="fill:#fdfefe"/>
            <path data-name="Path 4195" d="m123.843 85.408 2.684-1.55q3.267-1.887 6.532-3.778a.555.555 0 0 1 .647-.012q14.656 8.511 29.323 17.005c.046.027.087.061.132.093-.036.14-.169.161-.265.217-2.984 1.726-5.972 3.445-8.948 5.183-.273.159-.437.056-.645-.064q-10.549-6.122-21.1-12.24l-7.978-4.627c-.114-.066-.228-.135-.38-.226" transform="translate(-114.754 -79.97)" style="fill:#fdfefe"/>
            <path data-name="Path 4196" d="m149.6 155.4 4.285 2.471c1.671.964 3.339 1.934 5.015 2.89a.493.493 0 0 1 .3.494q-.028 5.88-.036 11.759c0 1.026-.022 2.052-.023 3.079q-.01 9.42-.014 18.841c0 .484 0 .484-.422.241-2.916-1.683-5.829-3.371-8.753-5.039a.733.733 0 0 1-.424-.746q.034-6.079.037-12.159.021-10.72.038-21.439v-.391" transform="translate(-136.002 -142.372)" style="fill:#fefefe"/>
            <path data-name="Path 4197" d="M81.029 138.659a.4.4 0 0 1-.345-.108 19.491 19.491 0 0 1-9.257-13.85 26.954 26.954 0 0 1-.165-5.42c.087-2.555.148-5.111.209-7.667.007-.309.071-.333.328-.184q4.5 2.613 9.02 5.209a.406.406 0 0 1 .228.41q-.014 9.8-.017 19.594v2.015" transform="translate(-71.205 -105.925)" style="fill:#fdfefe"/>
            <path data-name="Path 4198" d="M248.716 301.274a19.677 19.677 0 0 1-10.351 17.278c-2.779 1.516-5.57 3.01-8.356 4.513-.1.054-.189.148-.353.122v-.307q0-5.16-.005-10.32a.493.493 0 0 1 .28-.5q9.263-5.312 18.517-10.638c.067-.039.136-.075.268-.147" transform="translate(-202.293 -263.062)" style="fill:#fdfefe"/>
            <path data-name="Path 4199" d="m292.571 96.223-6.719 3.879c-.852.492-1.708.98-2.554 1.482a.463.463 0 0 1-.543.005q-9.213-5.355-18.434-10.7c-.089-.052-.2-.08-.245-.21a18.984 18.984 0 0 1 5.83-2.191 19.518 19.518 0 0 1 14.474 2.68Q288.3 93.6 292.232 96l.34.218" transform="translate(-230.773 -86.691)" style="fill:#fdfefe"/>
        </g>
    </g>
</svg>
