<svg xmlns="http://www.w3.org/2000/svg" width="46" height="46" viewBox="0 0 46 46">
    <path data-name="Path 1768" d="M23 0A23 23 0 1 1 0 23 23 23 0 0 1 23 0z" style="fill:#11ab00"/>
    <path data-name="Path 1767" d="M136.45 129.7a15.88 15.88 0 0 1-7.033-1.608 1.441 1.441 0 0 0-1.927.667l-1.036 2.143a20.253 20.253 0 0 1-7.47-7.47l2.146-1.036a1.441 1.441 0 0 0 .667-1.927 15.825 15.825 0 0 1-1.611-7.033 1.439 1.439 0 0 0-1.438-1.436h-5.31a1.439 1.439 0 0 0-1.438 1.438 24.477 24.477 0 0 0 24.45 24.45 1.439 1.439 0 0 0 1.438-1.438v-5.31a1.439 1.439 0 0 0-1.438-1.44z" transform="translate(-101.956 -101.956)" style="fill:#fafafa"/>
</svg>
