<svg id="cancel_order_ic" xmlns="http://www.w3.org/2000/svg" width="40" height="39" viewBox="0 0 40 39">
  <g id="Component_3_3" data-name="Component 3 – 3">
    <path id="Path_2123" data-name="Path 2123" d="M20,0A19.755,19.755,0,0,1,40,19.5,19.755,19.755,0,0,1,20,39,19.755,19.755,0,0,1,0,19.5,19.755,19.755,0,0,1,20,0Z" fill="#fd1159"/>
  </g>
  <path id="Path_2124" data-name="Path 2124" d="M217.027,278.245l3.376-3.377a2.157,2.157,0,1,0-3.051-3.051l-3.376,3.377-3.376-3.377a2.157,2.157,0,1,0-3.051,3.051l3.376,3.377-3.376,3.376a2.157,2.157,0,1,0,3.051,3.051l3.376-3.376,3.376,3.376a2.157,2.157,0,0,0,3.051-3.051Z" transform="translate(-194.176 -258.977)" fill="#fff"/>
</svg>
