<svg id="cancel_order" xmlns="http://www.w3.org/2000/svg" width="168" height="168" viewBox="0 0 168 168">
  <path id="Path_1889" data-name="Path 1889" d="M167.988,82.6A83.856,83.856,0,0,1,135.3,150.514,157.589,157.589,0,0,1,32.8,150.23l-.836-.29A84,84,0,1,1,167.988,82.6Z" transform="translate(0 0)" fill="#fd5b5b"/>
  <path id="Path_1890" data-name="Path 1890" d="M168,170.672a83.857,83.857,0,0,1-32.7,66.514A157.589,157.589,0,0,1,32.8,236.9l-.836-.29A84.036,84.036,0,0,1,11.051,129a84.024,84.024,0,0,0,145.9,0A83.6,83.6,0,0,1,168,170.672Z" transform="translate(0 -86.672)" fill="#fd1159"/>
  <path id="Path_1891" data-name="Path 1891" d="M200.743,119.916V228.292a83.636,83.636,0,0,1-51.3,17.483c-.125,0-.246,0-.371,0A83.619,83.619,0,0,1,97.4,227.716v-107.8a4.156,4.156,0,0,1,4.156-4.156h95.03a4.156,4.156,0,0,1,4.156,4.156Z" transform="translate(-65.441 -77.776)" fill="#fff"/>
  <path id="Path_1892" data-name="Path 1892" d="M306.543,119.916V228.292a83.642,83.642,0,0,1-51.669,17.483l0,0V115.76h47.517a4.156,4.156,0,0,1,4.156,4.156Z" transform="translate(-171.241 -77.776)" fill="#d1f6ff"/>
  <path id="Path_2110" data-name="Path 2110" d="M238.725,293.4l10.623-10.623a6.787,6.787,0,0,0-9.6-9.6L229.126,283.8,218.5,273.173a6.787,6.787,0,1,0-9.6,9.6L219.527,293.4,208.9,304.018a6.787,6.787,0,1,0,9.6,9.6l10.623-10.622,10.623,10.622a6.787,6.787,0,0,0,9.6-9.6Z" transform="translate(-145.326 -198.443)" fill="#fd1159"/>
</svg>
