<svg xmlns="http://www.w3.org/2000/svg" width="6.508" height="12.56" viewBox="0 0 6.508 12.56">
    <path data-name="Path 2127" d="M121.653 5.7a15.123 15.123 0 0 0-1.536-.7 3.447 3.447 0 0 1-.843-.472.733.733 0 0 1 .182-1.3 1.48 1.48 0 0 1 .516-.106 3.918 3.918 0 0 1 1.94.384c.306.148.407.1.511-.218.109-.337.2-.68.3-1.019a.356.356 0 0 0-.231-.475 4.932 4.932 0 0 0-1.224-.366c-.555-.086-.555-.088-.558-.646 0-.786 0-.786-.791-.786h-.342c-.368.01-.431.075-.441.446-.005.166 0 .332 0 .5 0 .493-.005.485-.477.656a2.632 2.632 0 0 0-1.922 2.438 2.5 2.5 0 0 0 1.414 2.389 15.628 15.628 0 0 0 1.766.794 2.624 2.624 0 0 1 .643.379.882.882 0 0 1-.21 1.546 2.116 2.116 0 0 1-1.134.148 5.06 5.06 0 0 1-1.728-.516c-.319-.166-.412-.122-.521.223-.093.3-.176.6-.259.9-.112.4-.07.5.316.69a5.516 5.516 0 0 0 1.556.446c.42.067.433.086.438.521 0 .2 0 .4.005.594a.353.353 0 0 0 .379.4c.291.005.584.005.874 0a.333.333 0 0 0 .361-.376c0-.27.013-.542 0-.812a.429.429 0 0 1 .371-.488 2.932 2.932 0 0 0 1.528-.981 2.757 2.757 0 0 0-.883-4.193z" transform="translate(-116.652)" style="fill:#fff"/>
</svg>
