<svg id="Component_2_1" data-name="Component 2 – 1" xmlns="http://www.w3.org/2000/svg" width="39" height="39" viewBox="0 0 39 39">
  <g id="Component_1_2" data-name="Component 1 – 2">
    <circle id="Ellipse_116" data-name="Ellipse 116" cx="19.5" cy="19.5" r="19.5" fill="#0d8700"/>
  </g>
  <path id="Path_4992" data-name="Path 4992" d="M27.866,12.418h-.317V9.56a1.342,1.342,0,0,0-.569-1.1V8.075a1.025,1.025,0,0,0-1.024-1.024h-.237l.906-1.33a.98.98,0,0,0-.258-1.359L20.218.17a.978.978,0,0,0-1.359.258L13.55,8.217H12.073l.356-3.608a.107.107,0,0,1,.067-.09,2.3,2.3,0,0,0,1.12-.91.106.106,0,0,1,.1-.047l2.317.229a.3.3,0,1,0,.059-.6l-2.317-.229a.707.707,0,0,0-.669.324,1.688,1.688,0,0,1-.824.669.706.706,0,0,0-.455.6l-.362,3.667H11.08l.564-5.706a.374.374,0,0,1,.409-.336l4.682.463a.3.3,0,1,0,.059-.6l-4.682-.463a.98.98,0,0,0-1.07.877l-.454,4.6H9.815A1.025,1.025,0,0,0,8.791,8.075V8.34a1.344,1.344,0,0,0-.783,1.22v10.3A1.344,1.344,0,0,0,9.351,21.2H26.206a1.344,1.344,0,0,0,1.343-1.343V17h.317a.68.68,0,0,0,.679-.679V13.1A.68.68,0,0,0,27.866,12.418Zm-1.91-4.762h0a.42.42,0,0,1,.419.419v.154a1.346,1.346,0,0,0-.169-.011H24.924l.383-.562ZM19.357.768A.372.372,0,0,1,19.6.611.38.38,0,0,1,19.667.6a.372.372,0,0,1,.21.065l6.15,4.191a.375.375,0,0,1,.1.52L24.193,8.217h-.464l.948-1.391a.706.706,0,0,0,.033-.749,1.688,1.688,0,0,1-.2-1.042.706.706,0,0,0-.306-.678L21.014,2.185a.706.706,0,0,0-.743-.036,1.689,1.689,0,0,1-1.044.193.715.715,0,0,0-.685.3l-3.8,5.572h-.464ZM19.49,5.9a2.493,2.493,0,0,0-2.483,2.319H15.476l3.565-5.231h0a.108.108,0,0,1,.088-.047h.014a2.3,2.3,0,0,0,1.42-.262.107.107,0,0,1,.111.007l3.188,2.173a.107.107,0,0,1,.047.1,2.3,2.3,0,0,0,.275,1.417.107.107,0,0,1-.006.112L23,8.217H21.974A2.493,2.493,0,0,0,19.49,5.9Zm1.878,2.319H17.613a1.885,1.885,0,0,1,3.755,0ZM9.4,8.075a.42.42,0,0,1,.419-.419h.714l-.056.562H9.4ZM8.612,9.56a.739.739,0,0,1,.739-.738H26.206a.739.739,0,0,1,.738.738V10.4H8.612Zm18.332,10.3a.739.739,0,0,1-.738.738H9.351a.739.739,0,0,1-.739-.738v-.838h1.629a.3.3,0,1,0,0-.6H8.612V11H26.944v1.415H24.072a2.294,2.294,0,0,0-2.061,1.291l0,.008-.009.02a2.278,2.278,0,0,0-.114.292h0A2.292,2.292,0,0,0,24.072,17h2.872v1.415H12.175a.3.3,0,1,0,0,.6H26.944Zm1-3.537a.075.075,0,0,1-.075.075H24.072a1.688,1.688,0,0,1-1.483-.884q-.02-.036-.037-.073-.036-.074-.064-.151a1.689,1.689,0,0,1,0-1.159q.028-.077.064-.151.018-.037.037-.073a1.688,1.688,0,0,1,1.483-.884h3.794a.075.075,0,0,1,.075.075Z" transform="translate(0.992 9)" fill="#fff" stroke="#fff" stroke-width="0.3"/>
</svg>
