<svg xmlns="http://www.w3.org/2000/svg" width="18.391" height="18.391" viewBox="0 0 18.391 18.391">
    <path d="m10.9 8.2 5.071-5.071a1.434 1.434 0 0 0 0-2.028L15.3.421a1.433 1.433 0 0 0-2.028 0L8.2 5.492 3.126.42A1.434 1.434 0 0 0 1.1.42l-.679.68a1.434 1.434 0 0 0 0 2.028L5.492 8.2l-5.07 5.066a1.433 1.433 0 0 0 0 2.028l.676.676a1.434 1.434 0 0 0 2.028 0L8.2 10.9l5.071 5.071a1.434 1.434 0 0 0 2.028 0l.676-.676a1.434 1.434 0 0 0 0-2.028zm0 0" transform="translate(1 1)" style="fill:#747474;stroke:#fff;stroke-linecap:round;stroke-width:2px"/>
</svg>
