<svg xmlns="http://www.w3.org/2000/svg" width="22.043" height="22.043" viewBox="0 0 22.043 22.043">
    <path d="M14.659 11.022 21.478 4.2a1.928 1.928 0 0 0 0-2.727l-.909-.907a1.928 1.928 0 0 0-2.728 0l-6.818 6.819L4.2.565a1.928 1.928 0 0 0-2.727 0l-.911.909a1.928 1.928 0 0 0 0 2.728l6.82 6.82-6.815 6.819a1.928 1.928 0 0 0 0 2.728l.909.909a1.928 1.928 0 0 0 2.727 0l6.819-6.819 6.819 6.819a1.928 1.928 0 0 0 2.728 0l.909-.909a1.928 1.928 0 0 0 0-2.728zm0 0" style="fill:#141414" data-name="Group 13349"/>
</svg>
