<svg id="delivered_order" xmlns="http://www.w3.org/2000/svg" width="168" height="168" viewBox="0 0 168 168">
  <g id="signature">
    <path id="Path_1889" data-name="Path 1889" d="M167.988,82.6A83.856,83.856,0,0,1,135.3,150.514,157.589,157.589,0,0,1,32.8,150.23l-.836-.29A84,84,0,1,1,167.988,82.6Z" transform="translate(0 0)" fill="#3c9233"/>
    <path id="Path_1890" data-name="Path 1890" d="M168,170.672a83.857,83.857,0,0,1-32.7,66.514A157.589,157.589,0,0,1,32.8,236.9l-.836-.29A84.036,84.036,0,0,1,11.051,129a84.024,84.024,0,0,0,145.9,0A83.6,83.6,0,0,1,168,170.672Z" transform="translate(0 -86.672)" fill="#0d8700"/>
    <path id="Path_1891" data-name="Path 1891" d="M200.743,119.916V228.292a83.636,83.636,0,0,1-51.3,17.483c-.125,0-.246,0-.371,0A83.619,83.619,0,0,1,97.4,227.716v-107.8a4.156,4.156,0,0,1,4.156-4.156h95.03a4.156,4.156,0,0,1,4.156,4.156Z" transform="translate(-65.441 -77.776)" fill="#fff"/>
    <path id="Path_1892" data-name="Path 1892" d="M306.543,119.916V228.292a83.642,83.642,0,0,1-51.669,17.483l0,0V115.76h47.517a4.156,4.156,0,0,1,4.156,4.156Z" transform="translate(-171.241 -77.776)" fill="#d1f6ff"/>
  </g>
  <g id="Product" transform="translate(43.031 68.705)">
    <path id="Path_1918" data-name="Path 1918" d="M16,10V37.319L37.855,48.438V19.562Z" transform="translate(3.123 0.927)" fill="#e5cbaa"/>
    <path id="Path_1919" data-name="Path 1919" d="M32,19.562V48.438L53.855,37.456V10Z" transform="translate(8.979 0.927)" fill="#ffe7c9"/>
    <path id="Path_1920" data-name="Path 1920" d="M19.334,63.9a8.2,8.2,0,0,0,1.377-4.547V55.916a5.456,5.456,0,0,0-.3-1.776L16.162,41.767a2.732,2.732,0,0,0-3.21-1.967.485.485,0,0,0-.137.027.683.683,0,0,0-.178.068,2.7,2.7,0,0,0-1.844,2.568,2.542,2.542,0,0,0,.1.71l.574,2.158,1.9,7.076-1.9-7.076-.574-2.158a2.542,2.542,0,0,1-.1-.71A2.7,2.7,0,0,1,12.638,39.9a.683.683,0,0,1,.178-.068.485.485,0,0,1,.137-.027l3.005-11.228a2.7,2.7,0,0,0-1.106-2.964,2.505,2.505,0,0,0-.82-.382,2.542,2.542,0,0,0-.71-.1,2.714,2.714,0,0,0-2.636,2.022L3.4,49.54A5.484,5.484,0,0,0,3.233,52.3l2.108,8.185a10.963,10.963,0,0,1,.344,2.729v2.714H17.979Z" transform="translate(-1.587 6.464)" fill="#efebe5"/>
    <path id="Path_1921" data-name="Path 1921" d="M63.025,63.217a10.959,10.959,0,0,1,.344-2.722l2.115-8.187a5.484,5.484,0,0,0-.169-2.769L58.026,27.152A2.714,2.714,0,0,0,55.39,25.13a2.542,2.542,0,0,0-.71.1,2.505,2.505,0,0,0-.82.382,2.7,2.7,0,0,0-1.106,2.964L55.759,39.8a.485.485,0,0,1,.137.027.683.683,0,0,1,.178.068,2.7,2.7,0,0,1,1.844,2.568,2.542,2.542,0,0,1-.1.71l-.574,2.158-1.9,7.076,1.9-7.076.574-2.158a2.542,2.542,0,0,0,.1-.71A2.7,2.7,0,0,0,56.073,39.9a.683.683,0,0,0-.178-.068.485.485,0,0,0-.137-.027,2.732,2.732,0,0,0-3.21,1.967L48.3,54.14a5.455,5.455,0,0,0-.3,1.776v3.435A8.2,8.2,0,0,0,49.377,63.9l1.355,2.032H63.025Z" transform="translate(14.834 6.464)" fill="#efebe5"/>
    <path id="Path_1922" data-name="Path 1922" d="M22.123,55H3v8.2H22.123Z" transform="translate(-1.634 17.395)" fill="#006df0"/>
    <path id="Path_1923" data-name="Path 1923" d="M51.1,55H47v8.2H66.123V55H51.1Z" transform="translate(14.468 17.395)" fill="#006df0"/>
    <path id="Path_1924" data-name="Path 1924" d="M37.855,22.123,59.71,12.562,37.855,3,16,12.562Z" transform="translate(3.123 -1.635)" fill="#ffe2bd"/>
    <path id="Path_1925" data-name="Path 1925" d="M22,21.333l5.464,2.732V15.015L22,12.625Z" transform="translate(5.319 1.888)" fill="#ffaf46"/>
    <path id="Path_1926" data-name="Path 1926" d="M37.613,11.785,31.915,9.3,22,13.841l5.464,2.39v-.007Z" transform="translate(5.319 0.671)" fill="#ffaf46"/>
    <path id="Path_1927" data-name="Path 1927" d="M22.489,64.932H20.935a9.536,9.536,0,0,0,1.554-5.214V56.283a6.806,6.806,0,0,0-.37-2.22L17.894,41.78a4.106,4.106,0,0,0-2.781-2.868l2.575-9.62a4.051,4.051,0,0,0-1.625-4.428,3.825,3.825,0,0,0-1.229-.585,3.866,3.866,0,0,0-1.093-.152A4.051,4.051,0,0,0,9.8,27.1L2.509,49.5a6.9,6.9,0,0,0-.186,3.526L4.43,61.208a9.549,9.549,0,0,1,.3,2.377v1.348H3.366A1.366,1.366,0,0,0,2,66.3v8.2A1.366,1.366,0,0,0,3.366,75.86H22.489a1.366,1.366,0,0,0,1.366-1.366V66.3A1.366,1.366,0,0,0,22.489,64.932ZM7.076,60.52l-2.09-8.112a4.1,4.1,0,0,1,.122-2.072l7.312-22.475a1.35,1.35,0,0,1,1.668-.948,1.208,1.208,0,0,1,.418.2,1.343,1.343,0,0,1,.546,1.474l-2.821,10.53a4.06,4.06,0,0,0-2.39,3.715,3.759,3.759,0,0,0,.137,1.061l2.472,9.237a1.366,1.366,0,0,0,2.639-.708l-2.476-9.268a1.143,1.143,0,0,1-.04-.322,1.326,1.326,0,0,1,.906-1.27c.031-.011.161-.055.182-.059a1.384,1.384,0,0,1,1.623,1.076l4.252,12.374a4.072,4.072,0,0,1,.223,1.33v3.435a6.812,6.812,0,0,1-1.147,3.789l-.949,1.425H7.464V63.584a12.337,12.337,0,0,0-.388-3.064ZM21.123,73.128H4.732V67.664H21.123Z" transform="translate(-2 6.096)"/>
    <path id="Path_1928" data-name="Path 1928" d="M46,66.3v8.2a1.366,1.366,0,0,0,1.366,1.366H66.489a1.366,1.366,0,0,0,1.366-1.366V66.3a1.366,1.366,0,0,0-1.366-1.366H65.123V63.583a9.552,9.552,0,0,1,.3-2.385l2.106-8.183a6.9,6.9,0,0,0-.186-3.526L60.057,27.094a4.051,4.051,0,0,0-3.935-2.964,3.866,3.866,0,0,0-1.093.152,3.825,3.825,0,0,0-1.229.585,4.051,4.051,0,0,0-1.625,4.428l2.568,9.62a4.106,4.106,0,0,0-2.781,2.868L47.736,54.068a6.807,6.807,0,0,0-.37,2.214v3.435a9.536,9.536,0,0,0,1.554,5.214H47.366A1.366,1.366,0,0,0,46,66.3Zm16.391-2.714v1.348h-10.2l-.949-1.425A6.812,6.812,0,0,1,50.1,59.717V56.282a4.072,4.072,0,0,1,.223-1.33l4.252-12.374A1.384,1.384,0,0,1,56.2,41.5a1.724,1.724,0,0,1,.182.059,1.326,1.326,0,0,1,.906,1.27,1.143,1.143,0,0,1-.04.322L54.761,52.42a1.366,1.366,0,1,0,2.639.708l2.472-9.237a3.759,3.759,0,0,0,.137-1.061,4.06,4.06,0,0,0-2.385-3.715L54.8,28.583a1.343,1.343,0,0,1,.546-1.474,1.208,1.208,0,0,1,.418-.2,1.35,1.35,0,0,1,1.668.948l7.312,22.475a4.1,4.1,0,0,1,.122,2.072l-2.09,8.112a12.337,12.337,0,0,0-.389,3.065Zm-13.66,4.08H65.123v5.464H48.732Z" transform="translate(14.102 6.098)"/>
    <path id="Path_1929" data-name="Path 1929" d="M60.623,11.676,38.768,2.115a1.366,1.366,0,0,0-1.093,0L15.82,11.676A1.366,1.366,0,0,0,15,12.927V40.246a1.366,1.366,0,0,0,.746,1.217L37.6,52.582a1.366,1.366,0,0,0,.62.149,1.381,1.381,0,0,0,.613-.145L60.69,41.6a1.366,1.366,0,0,0,.753-1.221V12.927A1.366,1.366,0,0,0,60.623,11.676Zm-22.4-6.82,18.447,8.071L38.221,21l-4.794-2.1,7.3-3.192a1.366,1.366,0,0,0,0-2.5L34.861,10.65a1.366,1.366,0,0,0-1.093,0l-9.6,4.2-4.383-1.921ZM25.928,18.6l2.732,1.2v5.946l-2.732-1.366Zm1.639-2.262,6.742-2.946,2.445,1.067-6.729,2.949Zm-9.835-1.324,5.464,2.39v7.815a1.366,1.366,0,0,0,.755,1.223l5.464,2.732a1.366,1.366,0,0,0,1.977-1.223V20.987l5.464,2.39v25.76L17.732,39.409ZM39.587,49.15V23.382L58.71,15.016V39.54Z" transform="translate(2.757 -2.001)"/>
    <path id="Path_1930" data-name="Path 1930" d="M40.226,29.272l-5.473,2.751a1.367,1.367,0,1,0,1.229,2.441l5.473-2.751a1.367,1.367,0,1,0-1.229-2.441Z" transform="translate(9.711 7.926)"/>
    <path id="Path_1931" data-name="Path 1931" d="M35.366,30.6a1.366,1.366,0,0,0,.612-.145l5.4-2.711A1.367,1.367,0,1,0,40.144,25.3L34.75,28.013a1.366,1.366,0,0,0,.616,2.586Z" transform="translate(9.71 6.473)"/>
  </g>
</svg>
