<svg xmlns="http://www.w3.org/2000/svg" width="19.563" height="19.563" viewBox="0 0 19.563 19.563">
    <g data-name="Group 13740">
        <path data-name="Path 4771" d="m175.438 121.991 2.7-8.105a.573.573 0 1 0-1.087-.362l-2.7 8.105a.573.573 0 1 0 1.087.362z" transform="translate(-167.661 -108.809)" style="fill:#004f9e"/>
        <path data-name="Path 4772" d="M266.252 192.642a1.719 1.719 0 1 0-1.719-1.719 1.721 1.721 0 0 0 1.719 1.719zm0-2.292a.573.573 0 1 1-.573.573.574.574 0 0 1 .573-.574z" transform="translate(-254.425 -181.974)" style="fill:#004f9e"/>
        <path data-name="Path 4773" d="M96.546 189.2a1.719 1.719 0 1 0 1.719 1.719 1.721 1.721 0 0 0-1.719-1.719zm0 2.292a.573.573 0 1 1 .573-.573.574.574 0 0 1-.573.581z" transform="translate(-91.204 -181.974)" style="fill:#004f9e"/>
        <path data-name="Path 4774" d="m19.448 7.107-2-2.665.078-.546a.573.573 0 0 0-.162-.486L16.15 2.194 17.365.979a.573.573 0 0 0-.811-.811l-1.215 1.216L14.123.168a.574.574 0 0 0-.486-.162l-5.674.81a.573.573 0 0 0-.324.162L.615 8a2.1 2.1 0 0 0 0 2.972l5.944 5.944a2.1 2.1 0 0 0 .4.31v.232a2.1 2.1 0 0 0 2.1 2.1h8.406a2.1 2.1 0 0 0 2.1-2.1V7.451a.573.573 0 0 0-.115-.344zM1.425 10.164a.956.956 0 0 1 0-1.351l6.89-6.889 5.2-.743 1.013 1.013-.81.806-.405-.4a.573.573 0 0 0-.811.811l1.621 1.621a.573.573 0 1 0 .81-.811l-.405-.405.811-.816 1.013 1.013-.743 5.2-6.889 6.895a.955.955 0 0 1-1.351 0zm16.991 7.3a.956.956 0 0 1-.955.955H9.056a.956.956 0 0 1-.952-.885 2.093 2.093 0 0 0 1.427-.613l7.024-7.024a.573.573 0 0 0 .162-.324l.5-3.523 1.2 1.595z" style="fill:#004f9e"/>
    </g>
</svg>
