<svg data-name="download (1)" xmlns="http://www.w3.org/2000/svg" width="16.173" height="17.251" viewBox="0 0 16.173 17.251">
    <g data-name="Group 10353">
        <g data-name="Group 10352">
            <path data-name="Path 1940" d="M136.575 7.863a.538.538 0 0 0-.491-.316h-2.156V.539a.539.539 0 0 0-.539-.539h-2.156a.539.539 0 0 0-.539.539v7.008h-2.156a.539.539 0 0 0-.405.894l3.774 4.313a.538.538 0 0 0 .811 0l3.774-4.313a.537.537 0 0 0 .083-.578z" transform="translate(-124.224)" style="fill:#fff"/>
        </g>
    </g>
    <g data-name="Group 10355">
        <g data-name="Group 10354">
            <path data-name="Path 1941" d="M30.017 352v3.235H18.156V352H16v4.313a1.078 1.078 0 0 0 1.078 1.078h14.017a1.077 1.077 0 0 0 1.078-1.078V352z" transform="translate(-16 -340.14)" style="fill:#fff"/>
        </g>
    </g>
</svg>
