<svg xmlns="http://www.w3.org/2000/svg" width="27.122" height="31.015" viewBox="0 0 27.122 31.015">
    <path data-name="Path 2138" d="M14.273 12.328v1.559a2.369 2.369 0 0 0 .294 1.234 1.4 1.4 0 0 0 1.213.7 2.082 2.082 0 0 0 1.452-.711l5.15-5.15a2.9 2.9 0 0 0 0-4.1L17.232.711A2.081 2.081 0 0 0 15.78 0c-.75 0-1.507.6-1.507 1.937v1.416A15.3 15.3 0 0 0 .008 16.744a.909.909 0 0 0 1.635.647 12.82 12.82 0 0 1 12.63-5.063zm0 0" transform="translate(-.001)" style="fill:#fff"/>
    <path data-name="Path 2139" d="M86.908 218.829a.908.908 0 0 0-1.068.308 12.82 12.82 0 0 1-12.63 5.063v-1.56c0-1.338-.757-1.937-1.507-1.937a2.082 2.082 0 0 0-1.452.712l-5.15 5.15a2.9 2.9 0 0 0 0 4.1l5.15 5.15a2.082 2.082 0 0 0 1.452.711c.75 0 1.507-.6 1.507-1.937v-1.416a15.3 15.3 0 0 0 14.265-13.39.908.908 0 0 0-.567-.954zm0 0" transform="translate(-60.36 -205.513)" style="fill:#fff"/>
</svg>
