<svg xmlns="http://www.w3.org/2000/svg" width="20.023" height="25.911" viewBox="0 0 20.023 25.911">
    <g data-name="svgexport-6 (1)">
        <g data-name="Group 13736">
            <path data-name="Path 4863" d="M211.824 8.658a1.352 1.352 0 0 1-.665-.161l-2.016-1.174a.475.475 0 0 1-.276-.388V.548c0-.3.421-.548.941-.548h4.031c.52 0 .941.245.941.548v6.388a.474.474 0 0 1-.276.388L212.489 8.5a1.352 1.352 0 0 1-.665.158z" transform="translate(-201.812)" style="fill:#ff7850"/>
            <path data-name="Path 4864" d="M258.681 7.323a.475.475 0 0 0 .276-.388V.548c0-.3-.421-.548-.941-.548H256v8.658a1.352 1.352 0 0 0 .665-.161z" transform="translate(-245.989)" style="fill:#ff3c0a"/>
            <path data-name="Path 4865" d="M116.377 214.194a.941.941 0 0 0-.6-.6l-5.307-1.742-3.3-4.509a.941.941 0 0 0-1.519 0l-3.3 4.509-5.307 1.742a.941.941 0 0 0-.469 1.445l3.27 4.529.017 5.586a.941.941 0 0 0 1.229.893l5.318-1.71 5.318 1.71a.941.941 0 0 0 1.229-.893l.017-5.586 3.27-4.529a.941.941 0 0 0 .134-.845z" transform="translate(-96.4 -200.178)" style="fill:#ffb203"/>
            <path data-name="Path 4866" d="M261.318 226.044a.941.941 0 0 0 1.229-.893l.017-5.586 3.27-4.529a.941.941 0 0 0-.469-1.445l-5.307-1.742-3.3-4.509a.941.941 0 0 0-.76-.386v17.379z" transform="translate(-245.989 -200.178)" style="fill:#ff8e1d"/>
            <path data-name="Path 4867" d="m107.1 217.432 9.965-3.238a.941.941 0 0 0-.6-.6l-5.307-1.742-3.3-4.509a.941.941 0 0 0-1.519 0l-3.3 4.509-5.307 1.742a.941.941 0 0 0-.6.6z" transform="translate(-97.088 -200.178)" style="fill:#ffe442"/>
            <path data-name="Path 4868" d="m163.971 373.993-6.159 8.477a.941.941 0 0 0 .841.135l5.318-1.71 5.318 1.71a.94.94 0 0 0 .841-.135z" transform="translate(-153.96 -356.739)" style="fill:#ff8e1d"/>
            <path data-name="Path 4869" d="M261.318 382.6a.94.94 0 0 0 .841-.135L256 373.993v6.9z" transform="translate(-245.989 -356.739)" style="fill:#ff6514"/>
            <path data-name="Path 4870" d="M265.965 214.194a.941.941 0 0 0-.6-.6l-5.307-1.742-3.3-4.509a.941.941 0 0 0-.76-.386v10.478z" transform="translate(-245.988 -200.178)" style="fill:#ffb203"/>
        </g>
    </g>
</svg>
