<svg xmlns="http://www.w3.org/2000/svg" width="21.668" height="21.604" viewBox="0 0 21.668 21.604">
    <g data-name="Group 10604">
        <path data-name="Path 2073" d="m235.607 56.533 1.09 1.091a.175.175 0 0 0 .248 0l1.2-1.206a1.279 1.279 0 0 1 1.805 0l1.2 1.2a.175.175 0 0 0 .247 0l1.224-1.225a1.272 1.272 0 0 1 .9-.371 1.335 1.335 0 0 1 .781.273.163.163 0 0 0 .246-.064l.5-1.1a1.105 1.105 0 0 0-.55-1.462l-6.286-2.845a1.105 1.105 0 0 0-1.462.551l-2.117 4.675a.071.071 0 0 0 .065.1 1.275 1.275 0 0 1 .909.383z" transform="translate(-224.11 -48.49)" style="fill:#004f9e"/>
        <path data-name="Path 2074" d="M36.306 48.423a.175.175 0 0 0 .164.126 1.242 1.242 0 0 1 .824.378c.217.205.826.822 1.089 1.089a.175.175 0 0 0 .248 0l1.094-1.094a1.279 1.279 0 0 1 1.8 0l1.091 1.091a.175.175 0 0 0 .247 0c.269-.266.9-.89 1.109-1.1a.163.163 0 0 0 .042-.163L42.923 45a.684.684 0 0 0-.848-.465 1.1 1.1 0 0 1-1.363-.747l-.3-1.021-3.593 1.048.3 1.021a1.1 1.1 0 0 1-.747 1.363.685.685 0 0 0-.466.849z" transform="translate(-34.27 -40.883)" style="fill:#004f9e"/>
        <path data-name="Path 2075" d="m49.694 2.9 3.524-1.027-.106-.363a1.1 1.1 0 0 0-1.37-.751l-1.4.409a1.1 1.1 0 0 0-.751 1.371z" transform="translate(-47.323 -.712)" style="fill:#004f9e"/>
        <path data-name="Path 2076" d="M21.492 194.936 19.559 193a.2.2 0 0 0-.28 0l-1.968 1.969a.2.2 0 0 1-.14.058.2.2 0 0 1-.14-.058l-1.95-1.951a.2.2 0 0 0-.28 0l-1.949 1.951a.2.2 0 0 1-.28 0l-1.838-1.839a.2.2 0 0 0-.28 0l-1.839 1.839a.2.2 0 0 1-.28 0L6.5 193.133a.2.2 0 0 0-.28 0l-1.839 1.839a.2.2 0 0 1-.28 0l-1.837-1.839a.2.2 0 0 0-.28 0l-1.8 1.8a.6.6 0 0 0-.176.425v10.568h21.66v-10.565a.6.6 0 0 0-.176-.425z" transform="translate(0 -184.325)" style="fill:#004f9e"/>
    </g>
</svg>
