<svg xmlns="http://www.w3.org/2000/svg" width="105.288" height="105" viewBox="0 0 105.288 105">
    <g data-name="Group 13272">
        <g transform="translate(0 -.333)" data-name="Group 13270">
            <circle data-name="Ellipse 1849" cx="52.5" cy="52.5" r="52.5" transform="translate(0 .333)" style="fill:#a3d6dd"/>
            <path data-name="Path 4460" d="M202.6 139.646a52.942 52.942 0 0 0-.855-9.492l-16.11-16.11-2.824 2.939-7.458-7.458-52.853 60.526L144.454 192a53.272 53.272 0 0 0 5.5.285 52.644 52.644 0 0 0 52.646-52.639z" transform="translate(-97.309 -86.957)" style="fill:#54bcb1"/>
            <path data-name="Path 4461" d="M177.406 126.455H122.5l2.056-16.931h50.794z" transform="translate(-97.309 -86.957)" style="fill:#e7b30d"/>
            <path data-name="Path 4462" d="M281.056 109.524h-25.485v16.93h27.541z" transform="translate(-203.015 -86.957)" style="fill:#d88802"/>
            <path data-name="Rectangle 1429" transform="translate(25.191 41.486)" style="fill:#ffe67d" d="M0 0h54.906v41.607H0z"/>
            <g data-name="Group 12835">
                <path data-name="Rectangle 1430" transform="translate(52.555 41.486)" style="fill:#f7d139" d="M0 0h27.542v41.607H0z"/>
                <path data-name="Path 4463" d="M145.632 147.134H90.726L82.5 131.5h71.358z" transform="translate(-65.535 -104.413)" style="fill:#fec200"/>
            </g>
            <path data-name="Path 4464" d="M291.338 131.5h-35.767v15.634h27.541z" transform="translate(-203.015 -104.413)" style="fill:#f39800"/>
            <path data-name="Rectangle 1431" transform="translate(42.105 66.775)" style="fill:#fff5af" d="M0 0h21.078v10.796H0z"/>
            <path data-name="Rectangle 1432" transform="translate(52.556 66.775)" style="fill:#fff091" d="M0 0h10.627v10.796H0z"/>
        </g>
    </g>
</svg>
