<svg xmlns="http://www.w3.org/2000/svg" width="19.183" height="19.183" viewBox="0 0 19.183 19.183">
    <path data-name="Path 4465" d="M19.183 9.592A9.592 9.592 0 1 1 9.592 0a9.591 9.591 0 0 1 9.591 9.592zm0 0" style="fill:#118713"/>
    <path data-name="Path 4466" d="m186.82 161.38 4.416 4.416a9.594 9.594 0 0 0 7.764-9.418q0-.266-.015-.528l-3.35-3.35zm0 0" transform="translate(-179.82 -146.786)" style="fill:#118713"/>
    <path data-name="Path 4467" d="m90.142 260.859-1.154 1.154 3.665 3.666.544-1.154-.544-1.154zm0 0" transform="translate(-85.654 -251.085)" style="fill:#fff"/>
    <path data-name="Path 4468" d="m194.515 122.5-7.7 7.7v2.3l8.849-8.849zm0 0" transform="translate(-179.82 -117.91)" style="fill:#fff"/>
</svg>
