<svg xmlns="http://www.w3.org/2000/svg" width="28.464" height="28.951" viewBox="0 0 28.464 28.951">
    <path data-name="Path 1994" d="M32.019 15.673a12.689 12.689 0 0 0 0 25.378 12.3 12.3 0 0 0 4.415-.8l7.37 1.286-2.121-4.971a12.448 12.448 0 0 0 2.155-3.581 12.7 12.7 0 0 0-11.82-17.313z" transform="translate(-17.787 -14.13)" style="stroke:#fff;fill:#4dcfe0"/>
    <g data-name="Group 10516">
        <path data-name="Path 1995" d="M122.252 133.744h9.734a1.043 1.043 0 1 0 0-2.086h-9.734a1.043 1.043 0 1 0 0 2.086z" transform="translate(-112.887 -122.397)" style="fill:#fff"/>
        <path data-name="Path 1996" d="M122.252 196.438h9.734a1.043 1.043 0 0 0 0-2.086h-9.734a1.043 1.043 0 1 0 0 2.086z" transform="translate(-112.887 -180.92)" style="fill:#fff"/>
        <path data-name="Path 1997" d="M122.252 259.132h9.734a1.043 1.043 0 1 0 0-2.086h-9.734a1.043 1.043 0 1 0 0 2.086z" transform="translate(-112.887 -239.442)" style="fill:#fff"/>
        <path data-name="Path 1998" d="M29.174 27.951a1.111 1.111 0 0 0 .834-.382 1.034 1.034 0 0 0 .139-1.043l-1.877-4.38a13.428 13.428 0 0 0 1.912-3.372 13.744 13.744 0 1 0-12.793 8.691 13.132 13.132 0 0 0 4.519-.765L29 27.95zM17.389 2.086a11.647 11.647 0 0 1 11.646 11.646 11.778 11.778 0 0 1-.8 4.241 11.108 11.108 0 0 1-1.982 3.268 1.029 1.029 0 0 0-.174 1.078l1.391 3.233-5.493-.973a1.031 1.031 0 0 0-.556.07 11.073 11.073 0 0 1-4.033.73 11.646 11.646 0 0 1 0-23.292z" transform="translate(-3.157 .5)" style="fill:#fff;stroke:#fff"/>
    </g>
</svg>
