<svg xmlns="http://www.w3.org/2000/svg" width="40" height="39" viewBox="0 0 40 39">
    <g data-name="Group 10708">
        <path data-name="Path 2123" d="M20 0a19.755 19.755 0 0 1 20 19.5A19.755 19.755 0 0 1 20 39 19.755 19.755 0 0 1 0 19.5 19.755 19.755 0 0 1 20 0z" style="fill:#fd1159"/>
        <path data-name="Path 2124" d="m217.027 278.245 3.376-3.377a2.157 2.157 0 1 0-3.051-3.051l-3.376 3.377-3.376-3.377a2.157 2.157 0 1 0-3.051 3.051l3.376 3.377-3.376 3.376a2.157 2.157 0 1 0 3.051 3.051l3.376-3.376 3.376 3.376a2.157 2.157 0 0 0 3.051-3.051z" transform="translate(-194.176 -258.977)" style="fill:#fff"/>
    </g>
</svg>
