<svg xmlns="http://www.w3.org/2000/svg" width="40" height="39" viewBox="0 0 40 39">
    <g data-name="Group 10705">
        <g data-name="Ellipse 110" style="fill:#c9c9c9;stroke:#707070">
            <ellipse cx="20" cy="19.5" rx="20" ry="19.5" style="stroke:none"/>
            <ellipse cx="20" cy="19.5" rx="19.5" ry="19" style="fill:none"/>
        </g>
        <g data-name="Group 10319">
            <g data-name="Group 10318">
                <path data-name="Path 1905" d="M15.667 24.187a.455.455 0 0 0-.025-.082.449.449 0 0 0-.04-.075.423.423 0 0 0-.054-.067.434.434 0 0 0-.143-.1.45.45 0 0 0-.082-.025.434.434 0 0 0-.172 0 .448.448 0 0 0-.082.025.434.434 0 0 0-.143.1.421.421 0 0 0-.054.067.447.447 0 0 0-.04.075.456.456 0 0 0-.025.082.436.436 0 0 0 .12.4.441.441 0 0 0 .143.095.437.437 0 0 0 .336 0 .463.463 0 0 0 .076-.04.469.469 0 0 0 .067-.054.441.441 0 0 0 .12-.4z"/>
            </g>
        </g>
        <g data-name="Group 10321">
            <g data-name="Group 10320">
                <path data-name="Path 1906" d="M10.81 21.958a.444.444 0 0 0-.025-.082.433.433 0 0 0-.04-.076.451.451 0 0 0-.055-.067.421.421 0 0 0-.067-.054.441.441 0 0 0-.075-.04.45.45 0 0 0-.082-.025.435.435 0 0 0-.172 0 .44.44 0 0 0-.082.025.445.445 0 0 0-.076.04.427.427 0 0 0-.121.121.434.434 0 0 0-.04.076.444.444 0 0 0-.025.082.432.432 0 0 0-.009.086.44.44 0 0 0 .009.086.463.463 0 0 0 .025.082.443.443 0 0 0 .04.075.42.42 0 0 0 .054.067.434.434 0 0 0 .143.1.438.438 0 0 0 .082.025.431.431 0 0 0 .086.008.439.439 0 0 0 .439-.439.432.432 0 0 0-.009-.09z"/>
            </g>
        </g>
        <g data-name="Group 10323">
            <g data-name="Group 10322">
                <path data-name="Path 1907" d="M30.337 20.243a1.6 1.6 0 0 0-2.564-.343l-.146.138v-8.34a.439.439 0 0 0-.439-.439h-1.51V8.704a.439.439 0 0 0-.439-.439h-7.887a.439.439 0 0 0-.439.439v2.556h-2.241a.439.439 0 0 0-.439.439v8.485a4.8 4.8 0 0 0-1.536 1.025v-.931a.439.439 0 0 0-.439-.439H8.501a.439.439 0 0 0-.439.439v7.563a.439.439 0 0 0 .439.439h3.761a.439.439 0 0 0 .439-.439v-1.226c.284.148.56.3.831.455a7.265 7.265 0 0 0 3.67 1.256h4.748c1.555 0 3.783-.733 4.682-1.917l3.413-4 .016-.02a2.1 2.1 0 0 0 .276-2.146zM11.82 27.404h-1v-3.766a.439.439 0 1 0-.877 0v3.766h-1v-6.685h2.88v6.685zm13.858-15.267h1.072v8.731l-1.072 1.01zm-2.629-2.995H24.8v2.117h-1.751zm-2.629 0h1.752v2.117H20.42zm-2.629 0h1.751v2.117h-1.751V9.142zm-2.68 2.995h1.8v1.757a.439.439 0 1 0 .877 0v-1.757h4.38v1.757a.439.439 0 1 0 .877 0v-1.757h1.751v9.921a1.69 1.69 0 0 0-1.39-.729h-3.901c-.075 0-.126-.038-.291-.187-.042-.038-.086-.078-.135-.119a4.644 4.644 0 0 0-3.806-1.132l-.162.028v-7.782zm14.258 9.715-3.413 4-.017.022a5.79 5.79 0 0 1-3.989 1.578h-4.748a6.5 6.5 0 0 1-3.24-1.147 21.72 21.72 0 0 0-1.26-.672v-3.029a3.892 3.892 0 0 1 2.711-1.847 3.77 3.77 0 0 1 3.091.925l.009.007.116.1a1.251 1.251 0 0 0 .881.414h3.906a.814.814 0 0 1 0 1.627h-6.438a.439.439 0 1 0 0 .877h6.432a1.692 1.692 0 0 0 1.484-.881l3.51-3.32a.7.7 0 0 1 .62-.223.712.712 0 0 1 .539.368 1.229 1.229 0 0 1-.194 1.201z"/>
            </g>
        </g>
        <g data-name="Group 10325">
            <g data-name="Group 10324">
                <path data-name="Path 1908" d="M22.61 15.021h-4.86a.439.439 0 0 0-.439.439v2.525a.439.439 0 0 0 .439.439h4.86a.439.439 0 0 0 .439-.439V15.46a.439.439 0 0 0-.439-.439zm-.439 2.525h-3.983v-1.648h3.983z"/>
            </g>
        </g>
    </g>
</svg>
