<svg xmlns="http://www.w3.org/2000/svg" width="24.584" height="24.584" viewBox="0 0 24.584 24.584">
    <g data-name="Group 13570">
        <g data-name="Group 13360">
            <path data-name="Path 3324" d="M40 184h22.888v16.107H40z" transform="translate(-39.152 -175.523)" style="fill:#004f9e"/>
            <path data-name="Path 3325" d="M227.391 59.391v-2.119A1.272 1.272 0 0 0 226.119 56h-.848A1.272 1.272 0 0 0 224 57.272v2.119z" transform="translate(-213.404 -54.305)" style="fill:#ffb401"/>
            <path data-name="Path 3326" d="M24 120h24.584v3.391H24z" transform="translate(-24 -114.914)" style="fill:#2976c4"/>
            <path data-name="Path 3327" d="M103.629 29.086h-5.086l-2.016-2.016A1.8 1.8 0 0 1 96 25.8v-.1a1.8 1.8 0 0 1 1.8-1.7 4.986 4.986 0 0 1 4.307 2.474z" transform="translate(-92.185 -24)" style="fill:#ff9a04"/>
            <path data-name="Path 3328" d="M101.51 59.391h-2.967l-2.017-2.017A1.8 1.8 0 0 1 96 56.1V56h1.7a3.059 3.059 0 0 1 2.594 1.438z" transform="translate(-92.185 -54.305)" style="fill:#ff6b1c"/>
            <path data-name="Path 3329" d="M78.782 120a2.758 2.758 0 0 0-2.665 2.048l-1.149 4.31-1.268-1.272-1.7 1.272 1.149-4.31A2.759 2.759 0 0 1 75.815 120z" transform="translate(-69.457 -114.914)" style="fill:#ff9a04"/>
            <path data-name="Path 3330" d="M279.629 25.8a1.8 1.8 0 0 1-.527 1.272l-2.017 2.017H272l1.524-2.613A4.986 4.986 0 0 1 277.831 24a1.8 1.8 0 0 1 1.8 1.7c-.003.029-.002.064-.002.1z" transform="translate(-258.86 -24)" style="fill:#ff9a04"/>
            <path data-name="Path 3331" d="M317.51 56.1a1.8 1.8 0 0 1-.527 1.272l-2.016 2.017H312l1.221-1.953A3.059 3.059 0 0 1 315.815 56h1.693l.002.1z" transform="translate(-296.741 -54.305)" style="fill:#ff6b1c"/>
            <path data-name="Path 3332" d="M312 120a2.758 2.758 0 0 1 2.665 2.048l1.149 4.31 1.272-1.272 1.7 1.272-1.149-4.31a2.758 2.758 0 0 0-2.67-2.048z" transform="translate(-296.741 -114.914)" style="fill:#ff9a04"/>
            <path data-name="Path 3333" d="M208 120h5.086v3.391H208z" transform="translate(-198.251 -114.914)" style="fill:#ff9a04"/>
            <path data-name="Path 3334" d="M224 184h3.391v16.107H224z" transform="translate(-213.404 -175.523)" style="fill:#ff6b1c"/>
        </g>
    </g>
</svg>
