<svg xmlns="http://www.w3.org/2000/svg" width="21.206" height="21.208" viewBox="0 0 21.206 21.208">
    <path d="M20.636 9.225 11.983.572a1.952 1.952 0 0 0-2.761 0L.575 9.219l-.009.009a1.952 1.952 0 0 0 1.3 3.326H2.271v6.367a2.288 2.288 0 0 0 2.285 2.285h3.385a.621.621 0 0 0 .621-.621V15.6A1.044 1.044 0 0 1 9.6 14.553h2a1.044 1.044 0 0 1 1.043 1.047v4.991a.621.621 0 0 0 .621.621h3.385a2.288 2.288 0 0 0 2.285-2.285v-6.37h.32a1.953 1.953 0 0 0 1.382-3.332zm0 0" transform="translate(.001)" style="fill:#2359aa"/>
</svg>
