<svg xmlns="http://www.w3.org/2000/svg" width="41.167" height="41.166" viewBox="0 0 41.167 41.166">
    <g data-name="Group 13238">
        <path data-name="Path 4470" d="M-23.26-12.936A20.5 20.5 0 0 1-2.677-33.518a20.606 20.606 0 0 1 20.582 20.582A20.67 20.67 0 0 1-2.677 7.647 20.583 20.583 0 0 1-23.26-12.936z" transform="translate(23.26 33.52)" style="fill:#004f9e"/>
        <path data-name="Path 4471" d="M187.806 108.807a19.993 19.993 0 0 0-.085-2.1l-6.366-5.8-8.918 8.044-11.111-11.102-1.251 19.516 2.826 11.569c1.6.263 2.673.4 3.257.429s.552.027 1.066.027a20.67 20.67 0 0 0 20.582-20.583z" transform="translate(-146.641 -88.223)" style="fill:#153e68"/>
        <g data-name="Group 13231">
            <g data-name="Group 13221">
                <path data-name="Path 4472" d="M191.28 202.979v.668a4.576 4.576 0 0 1-.858 2.668l-1.4 1.947v10.265a.957.957 0 0 1-.957.957h-9.947a.957.957 0 0 1-.957-.957v-22.643h14.119z" transform="translate(-162.48 -179.074)" style="fill:#fed2a4"/>
            </g>
            <g data-name="Group 13227">
                <path data-name="Path 4473" d="M191.28 196.56v-.675h-14.114v22.644a.957.957 0 0 0 .957.957h3.738a.956.956 0 0 1-.042-.282v-6.5a4.005 4.005 0 0 0 1.936-3.427v-1.926a6.014 6.014 0 0 0-1.773-4.281 6.001 6.001 0 0 0-.163-.156v-6.354z" transform="translate(-162.48 -179.075)" style="fill:#ffbd86"/>
                <path data-name="Path 4474" d="M89.281 94.808a.709.709 0 0 1 .709.709v13.017a.709.709 0 0 1-.709.709H60.534a.709.709 0 0 1-.709-.709V95.517a.709.709 0 0 1 .709-.709h28.747z" transform="translate(-53.737 -85.405)" style="fill:#97da7b"/>
                <path data-name="Path 4475" d="M66.411 108.534V95.517a.709.709 0 0 1 .709-.709h-6.586a.709.709 0 0 0-.709.709v13.017a.709.709 0 0 0 .709.709h6.586a.709.709 0 0 1-.709-.709z" transform="translate(-53.737 -85.405)" style="fill:#80d261"/>
                <path data-name="Path 4476" d="M117.256 184.057a3.463 3.463 0 0 0-2.468-1.023h-.072a3.527 3.527 0 0 0-3.417 3.526V191h9.479a6.079 6.079 0 0 0-2.356-1.354.2.2 0 0 1-.145-.193v-2.934a3.461 3.461 0 0 0-1.021-2.462z" transform="translate(-101.439 -167.166)" style="fill:#80d261"/>
                <path data-name="Path 4477" d="M111.158 121.276a1.42 1.42 0 0 0 1.42 1.42v7.716a1.42 1.42 0 0 0-1.42 1.42H87.712a1.42 1.42 0 0 0-1.42-1.42V122.7a1.42 1.42 0 0 0 1.42-1.42z" transform="translate(-78.265 -109.933)" style="fill:#dbf1d0"/>
                <path data-name="Path 4478" d="M94.081 126.825a3.463 3.463 0 0 0-2.468-1.023h-.078a.578.578 0 0 1-.6-.574v-3.952h-3.223a1.42 1.42 0 0 1-1.42 1.42v7.716a1.42 1.42 0 0 1 1.42 1.42H95.1v-2.542a3.461 3.461 0 0 0-1.021-2.466z" transform="translate(-78.265 -109.933)" style="fill:#d5efc8"/>
                <g data-name="Group 13226" transform="translate(13.98 8.344)">
                    <circle data-name="Ellipse 1850" cx="3.779" cy="3.779" r="3.779" transform="translate(3.415 4.191)" style="fill:#97da7b"/>
                    <g data-name="Group 13223">
                        <g data-name="Group 13222">
                            <path data-name="Path 4479" d="M303.814 81.452v1.9a1.625 1.625 0 0 1-3.25 0v-1.9a1.1 1.1 0 0 1 1.1-1.1h1.047a1.1 1.1 0 0 1 1.103 1.1z" transform="translate(-290.816 -80.351)" style="fill:#fed2a4"/>
                            <path data-name="Path 4480" d="M259.472 83.349v.672a1.625 1.625 0 1 1-3.249 0v-2.57a1.1 1.1 0 0 1 1.1-1.1h1.047a1.1 1.1 0 0 1 1.1 1.1z" transform="translate(-249.724 -80.351)" style="fill:#fed2a4"/>
                            <path data-name="Path 4481" d="M215.123 84.022v.548a1.625 1.625 0 0 1-3.25 0v-3.118a1.1 1.1 0 0 1 1.1-1.1h1.047a1.1 1.1 0 0 1 1.1 1.1z" transform="translate(-208.624 -80.351)" style="fill:#fed2a4"/>
                            <path data-name="Path 4482" d="M170.781 81.452v2.57a1.625 1.625 0 1 1-3.249 0v-2.57a1.1 1.1 0 0 1 1.1-1.1h1.047a1.1 1.1 0 0 1 1.1 1.1z" transform="translate(-167.532 -80.351)" style="fill:#fed2a4"/>
                        </g>
                    </g>
                    <g data-name="Group 13225">
                        <g data-name="Group 13224">
                            <path data-name="Path 4483" d="M302.128 83.349v-1.9a1.1 1.1 0 0 1 .846-1.07 1.125 1.125 0 0 0-.261-.031h-1.047a1.1 1.1 0 0 0-1.1 1.1v1.9a1.625 1.625 0 0 0 2.406 1.424 1.624 1.624 0 0 1-.844-1.423z" transform="translate(-290.816 -80.351)" style="fill:#ffbd86"/>
                            <path data-name="Path 4484" d="M257.787 84.022v-2.57a1.1 1.1 0 0 1 .845-1.07 1.123 1.123 0 0 0-.261-.031h-1.047a1.1 1.1 0 0 0-1.1 1.1v2.57a1.625 1.625 0 0 0 2.406 1.424 1.624 1.624 0 0 1-.843-1.423z" transform="translate(-249.724 -80.351)" style="fill:#ffbd86"/>
                            <path data-name="Path 4485" d="M213.437 84.569v-3.117a1.1 1.1 0 0 1 .846-1.07 1.132 1.132 0 0 0-.262-.031h-1.047a1.1 1.1 0 0 0-1.1 1.1v3.117a1.625 1.625 0 0 0 2.406 1.424 1.624 1.624 0 0 1-.843-1.423z" transform="translate(-208.624 -80.351)" style="fill:#ffbd86"/>
                            <path data-name="Path 4486" d="M169.1 84.022v-2.57a1.1 1.1 0 0 1 .845-1.07 1.122 1.122 0 0 0-.261-.031h-1.047a1.1 1.1 0 0 0-1.1 1.1v2.57a1.625 1.625 0 0 0 2.406 1.424 1.624 1.624 0 0 1-.843-1.424z" transform="translate(-167.532 -80.351)" style="fill:#ffbd86"/>
                        </g>
                    </g>
                </g>
            </g>
            <g data-name="Group 13229">
                <g data-name="Group 13228">
                    <path data-name="Path 4487" d="M141.538 217.807a2.387 2.387 0 0 1-2.44 2.387l-2.532-.056-2.218-2.218a3.387 3.387 0 0 1-.992-2.4V207a1.9 1.9 0 0 1 1.834-1.91 1.874 1.874 0 0 1 1.912 1.872v3.993a.516.516 0 0 0 .464.512 4.437 4.437 0 0 1 3.974 4.413z" transform="translate(-121.879 -187.606)" style="fill:#fed2a4"/>
                </g>
            </g>
            <g data-name="Group 13230">
                <path data-name="Path 4488" d="m138.8 219.865-1.944-1.944a3.387 3.387 0 0 1-.992-2.4V207a1.929 1.929 0 0 1 .627-1.424 1.863 1.863 0 0 0-1.3-.486 1.9 1.9 0 0 0-1.834 1.91v8.525a3.387 3.387 0 0 0 .992 2.4l2.218 2.218 2.532.056h.027z" transform="translate(-121.879 -187.606)" style="fill:#ffbd86"/>
            </g>
        </g>
    </g>
</svg>
