<svg xmlns="http://www.w3.org/2000/svg" width="39" height="39" viewBox="0 0 39 39">
    <g data-name="Group 10707">
        <g data-name="Ellipse 108" style="fill:#c9c9c9;stroke:#707070">
            <circle cx="19.5" cy="19.5" r="19.5" style="stroke:none"/>
            <circle cx="19.5" cy="19.5" r="19" style="fill:none"/>
        </g>
        <g data-name="Group 10299">
            <path data-name="Path 1896" d="M26.604 27.807h-.674v-3.594a6.067 6.067 0 0 0-3.3-5.391 6.063 6.063 0 0 0 3.3-5.391V9.838h.674a.674.674 0 1 0 0-1.348H13.126a.674.674 0 1 0 0 1.348h.678v3.594a6.063 6.063 0 0 0 3.3 5.391 6.066 6.066 0 0 0-3.3 5.391v3.594h-.674a.674.674 0 1 0 0 1.348h13.474a.674.674 0 0 0 0-1.348zM15.168 13.838c-.033-.384-.021-.22-.021-4h9.434c0 3.78.012 3.617-.021 4zm9.413 13.2c-3.717-3.1-3.582-3.042-4.043-3.205v-.743a.674.674 0 1 0-1.348 0v.747c-.456.161-.314.1-4.043 3.205v-2.829a4.72 4.72 0 0 1 4.043-4.663v.84a.674.674 0 1 0 1.348 0v-.84a4.72 4.72 0 0 1 4.043 4.663z"/>
        </g>
    </g>
</svg>
