<svg xmlns="http://www.w3.org/2000/svg" width="20.333" height="20.333" viewBox="0 0 20.333 20.333">
    <path data-name="Path 3316" d="m175.482 122.34 2.808-8.425a.6.6 0 0 0-1.13-.377l-2.808 8.425a.6.6 0 1 0 1.13.377z" transform="translate(-167.398 -108.638)" style="fill:#4dcfe0"/>
    <path data-name="Path 3317" d="M266.32 192.777a1.787 1.787 0 1 0-1.787-1.787 1.789 1.789 0 0 0 1.787 1.787zm0-2.383a.6.6 0 1 1-.6.6.6.6 0 0 1 .6-.6z" transform="translate(-254.027 -181.689)" style="fill:#4dcfe0"/>
    <path data-name="Path 3318" d="M96.614 189.2a1.787 1.787 0 1 0 1.786 1.79 1.789 1.789 0 0 0-1.786-1.79zm0 2.383a.6.6 0 1 1 .6-.6.6.6 0 0 1-.6.603z" transform="translate(-91.061 -181.689)" style="fill:#4dcfe0"/>
    <path data-name="Path 3319" d="m20.214 7.387-2.077-2.77.081-.567a.6.6 0 0 0-.169-.505l-1.263-1.264 1.264-1.264a.6.6 0 0 0-.842-.842l-1.265 1.263L14.68.175a.6.6 0 0 0-.505-.169l-5.9.842a.6.6 0 0 0-.337.169l-7.3 7.3a2.187 2.187 0 0 0 0 3.089l6.178 6.178a2.179 2.179 0 0 0 .411.322v.242a2.187 2.187 0 0 0 2.184 2.184h8.737a2.187 2.187 0 0 0 2.184-2.184V7.744a.6.6 0 0 0-.119-.357zM1.481 10.565a.994.994 0 0 1 0-1.4L8.642 2l5.406-.772L15.1 2.281l-.842.842-.421-.423a.6.6 0 0 0-.842.842l1.685 1.687a.6.6 0 1 0 .842-.842l-.422-.421.842-.842L17 4.176l-.772 5.406-7.165 7.161a.993.993 0 0 1-1.4 0zm17.661 7.584a.994.994 0 0 1-.993.993H9.412a.994.994 0 0 1-.99-.92 2.176 2.176 0 0 0 1.483-.637l7.3-7.3a.6.6 0 0 0 .169-.337l.526-3.663 1.243 1.658z" style="fill:#4dcfe0"/>
</svg>
