<svg xmlns="http://www.w3.org/2000/svg" width="148" height="148" viewBox="0 0 148 148">
    <circle data-name="Ellipse 90" cx="74" cy="74" r="74" style="fill:#005c83"/>
    <path data-name="Path 4502" d="M168.368 205.686a73.5 73.5 0 0 0 71.606-71.615L202.305 96.4l-36.238-13-22.183 6.643-7.69-7.69-5.742 19.7 18.587 18.587-13.862 4.019 21.55 21.55-12.232 9.236 26.622 26.622-40.423-14.052z" transform="translate(-92.997 -58.709)" style="fill:#00263f"/>
    <g data-name="Group 12962">
        <path data-name="Path 4503" d="M136.193 89.758v-9.286h-5.742v19.7h19.7v-5.746h-10.61a44.961 44.961 0 0 1 58.7 4.154l4.061-4.06a50.713 50.713 0 0 0-66.109-4.762z" transform="translate(-92.997 -56.827)" style="fill:#b9eaff"/>
        <path data-name="Path 4504" d="M167.1 385.425a50.475 50.475 0 0 1-35.8-14.807l4.061-4.061a44.945 44.945 0 0 0 63.49 0l4.061 4.061a50.486 50.486 0 0 1-35.812 14.807z" transform="translate(-93.601 -261.315)" style="fill:#b9eaff"/>
    </g>
    <path data-name="Path 4505" d="M255.952 79.708v5.739a44.756 44.756 0 0 1 31.761 13.128l4.061-4.06a50.48 50.48 0 0 0-35.822-14.807z" transform="translate(-182.466 -56.823)" style="fill:#35ccff"/>
    <path data-name="Path 4506" d="M203.951 178.756a25.806 25.806 0 0 0-.327-3.9l5.928-3.422-9.318-16.14-5.913 3.414a25.664 25.664 0 0 0-6.772-3.9v-6.838h-18.636v6.83a25.67 25.67 0 0 0-6.771 3.9l-5.913-3.414-9.318 16.14 5.928 3.422a23.453 23.453 0 0 0 0 7.8l-5.928 3.422 9.318 16.14 5.913-3.414a25.667 25.667 0 0 0 6.771 3.9v6.834h18.637v-6.834a25.669 25.669 0 0 0 6.772-3.9l5.913 3.414 9.318-16.14-5.928-3.422a25.806 25.806 0 0 0 .326-3.892zm-25.72 11.224a11.224 11.224 0 1 1 11.224-11.223 11.223 11.223 0 0 1-11.224 11.223z" transform="translate(-104.731 -105.486)" style="fill:#ffdc00"/>
    <path data-name="Path 4507" d="M281.687 178.756a25.8 25.8 0 0 0-.327-3.9l5.928-3.422-9.318-16.14-5.913 3.414a25.662 25.662 0 0 0-6.771-3.9v-6.838h-9.332v19.563h.013a11.224 11.224 0 1 1 0 22.447h-.013v19.562h9.332v-6.834a25.663 25.663 0 0 0 6.771-3.9l5.913 3.414 9.318-16.139-5.928-3.422a25.808 25.808 0 0 0 .327-3.905z" transform="translate(-182.467 -105.486)" style="fill:#ffc000"/>
    <path data-name="Path 4508" d="M273.127 360.254V366h10.094a44.8 44.8 0 0 1-27.268 9.2v5.74h.016a50.531 50.531 0 0 0 31.111-10.66v9.678h5.742v-19.7z" transform="translate(-182.466 -256.822)" style="fill:#35ccff"/>
</svg>
