<svg xmlns="http://www.w3.org/2000/svg" width="143" height="143" viewBox="0 0 143 143">
    <g data-name="Group 12966">
        <g data-name="Group 12965">
            <g data-name="Group 12964">
                <g data-name="Group 12963">
                    <g data-name="Group 12962">
                        <path data-name="Path 4502" d="M143 71.5A71.5 71.5 0 0 1 71.5 143c-.313 0-.623 0-.936-.006a88.01 88.01 0 0 1-1.156-.025 71.5 71.5 0 1 1 71.3-89.49c.042.159.084.318.123.478A71.509 71.509 0 0 1 143 71.5z" style="fill:#ffce00"/>
                    </g>
                </g>
            </g>
        </g>
    </g>
    <path data-name="Path 4503" d="M188.277 149.231c0 39.9-31.966 72.25-71.395 72.25-.312 0-.622 0-.934-.006a87.857 87.857 0 0 1-1.155-.025l-18.342-18.562a12.8 12.8 0 0 1-1.088-3.917l-9.318-9.223-2.033-51.71-20.932-20.766 23.265-10.022 30.142 30.811 39.123-6.561s13.228-.161 13.267 0c-.267.043 19.2 17.11 19.4 17.727z" transform="translate(-45.277 -78.481)" style="fill:#ffa300"/>
    <path data-name="Path 4504" d="M209.006 246.032h-69.751l-4.34-53.386h87.492z" transform="translate(-98.338 -139.171)" style="fill:#4bb0af"/>
    <path data-name="Path 4505" d="m330.914 192.646-12.143 48.373-.006.023-1.252 4.989h-31.426v-53.385z" transform="translate(-206.846 -139.171)" style="fill:#02519e"/>
    <g data-name="Group 12967">
        <path data-name="Path 4506" d="M156.523 189.747h-70.2l-8.6-72.476H63.077v-10.023h23.544l8.6 68.322h64.521z" transform="translate(-45.275 -77.712)" style="fill:#002d6b"/>
    </g>
    <g data-name="Group 12968">
        <path data-name="Path 4507" d="m319.814 349.33-3.22 14.176h-30.507V349.33z" transform="translate(-206.439 -251.875)" style="fill:#002d6b"/>
    </g>
    <g data-name="Group 12969" transform="translate(47.024 108.255)">
        <circle data-name="Ellipse 1851" cx="10.258" cy="10.258" r="10.258" style="fill:#282e33"/>
        <circle data-name="Ellipse 1852" cx="10.258" cy="10.258" r="10.258" transform="translate(38.754)" style="fill:#282e33"/>
    </g>
</svg>
