<svg xmlns="http://www.w3.org/2000/svg" width="84.156" height="84.166" viewBox="0 0 84.156 84.166">
    <g style="opacity:.208">
        <path data-name="Path 1999" d="m76.349 40.011 3.511-9.156a2.5 2.5 0 0 0-.76-2.84s-5.323-2.207-7.611-6.171-1.54-9.686-1.54-9.686a2.5 2.5 0 0 0-2.08-2.075l-9.686-1.54L52.015.925a2.5 2.5 0 0 0-2.835-.76l-9.162 3.516L30.862.17a2.494 2.494 0 0 0-2.835.76l-6.172 7.616-9.686 1.54a2.506 2.506 0 0 0-2.075 2.075l-1.54 9.686-7.617 6.172a2.5 2.5 0 0 0-.76 2.835l3.511 9.156-3.511 9.158A2.494 2.494 0 0 0 .937 52l7.616 6.166 1.54 9.686a2.5 2.5 0 0 0 2.075 2.08l9.686 1.54 6.171 7.611a2.488 2.488 0 0 0 2.84.76l9.151-3.506 9.156 3.511a2.5 2.5 0 0 0 2.84-.765l6.166-7.611 9.687-1.54a2.505 2.505 0 0 0 2.08-2.08l1.54-9.686L79.1 52a2.5 2.5 0 0 0 .76-2.835z" transform="translate(2.062 2.078)" style="fill:none;stroke:#fff;stroke-width:4px"/>
        <g data-name="Group 10519">
            <path data-name="Path 2000" d="M167.523 143.037a7.5 7.5 0 1 1 7.5-7.5 7.51 7.51 0 0 1-7.5 7.5zm0-10a2.5 2.5 0 1 0 2.5 2.5 2.5 2.5 0 0 0-2.5-2.501z" transform="translate(-132.944 -105.949)" style="fill:#fafafa"/>
            <path data-name="Path 2001" d="M263.523 303.037a7.5 7.5 0 1 1 7.5-7.5 7.51 7.51 0 0 1-7.5 7.5zm0-10a2.5 2.5 0 1 0 2.5 2.5 2.508 2.508 0 0 0-2.5-2.501z" transform="translate(-213.942 -240.945)" style="fill:#fafafa"/>
            <path data-name="Path 2002" d="M162.534 168.026a2.5 2.5 0 0 1-2.03-3.956l25-35.005a2.5 2.5 0 0 1 4.071 2.905l-25 35.005a2.511 2.511 0 0 1-2.041 1.051z" transform="translate(-132.956 -105.934)" style="fill:#fafafa"/>
        </g>
    </g>
</svg>
