<svg xmlns="http://www.w3.org/2000/svg" width="39" height="39" viewBox="0 0 39 39">
    <g data-name="Group 10706">
        <g data-name="Ellipse 109" style="fill:#c9c9c9;stroke:#707070">
            <circle cx="19.5" cy="19.5" r="19.5" style="stroke:none"/>
            <circle cx="19.5" cy="19.5" r="19" style="fill:none"/>
        </g>
        <g data-name="Group 10301">
            <g data-name="Group 10300">
                <g data-name="Path 1897">
                    <path d="M325.372 311.094a3.475 3.475 0 0 1-3.471-3.47 3.475 3.475 0 0 1 3.47-3.471 3.475 3.475 0 0 1 3.471 3.47 3.475 3.475 0 0 1-3.47 3.471zm0-4.83c-.75 0-1.36.61-1.36 1.36 0 .75.61 1.36 1.36 1.36.75 0 1.36-.61 1.36-1.36 0-.75-.61-1.36-1.36-1.36z" style="stroke:none" transform="translate(-298.908 -282.517)"/>
                    <path d="M325.372 304.403a3.224 3.224 0 0 0-3.221 3.22 3.224 3.224 0 0 0 3.22 3.221 3.224 3.224 0 0 0 3.221-3.22 3.224 3.224 0 0 0-3.22-3.221m0 4.83c-.888 0-1.61-.721-1.61-1.61 0-.887.722-1.61 1.61-1.61.888 0 1.61.723 1.61 1.61 0 .889-.722 1.61-1.61 1.61m0-5.33a3.725 3.725 0 0 1 3.72 3.72c0 2.052-1.669 3.721-3.72 3.721a3.725 3.725 0 0 1-3.721-3.72c0-2.052 1.67-3.721 3.72-3.721zm0 4.83a1.112 1.112 0 0 0 0-2.22 1.112 1.112 0 0 0 0 2.22z" style="fill:#c9c9c9;stroke:none" transform="translate(-298.908 -282.517)"/>
                </g>
            </g>
        </g>
        <g data-name="Group 10303">
            <g data-name="Group 10302">
                <g data-name="Path 1898">
                    <path d="M104.868 311.094a3.475 3.475 0 0 1-3.471-3.47 3.475 3.475 0 0 1 3.47-3.471 3.475 3.475 0 0 1 3.471 3.47 3.475 3.475 0 0 1-3.47 3.471zm0-4.83c-.75 0-1.36.61-1.36 1.36 0 .75.61 1.36 1.36 1.36.75 0 1.36-.61 1.36-1.36 0-.75-.61-1.36-1.36-1.36z" style="stroke:none" transform="translate(-89.408 -282.517)"/>
                    <path d="M104.868 304.403a3.224 3.224 0 0 0-3.221 3.22 3.224 3.224 0 0 0 3.22 3.221 3.224 3.224 0 0 0 3.221-3.22 3.224 3.224 0 0 0-3.22-3.221m0 4.83c-.888 0-1.61-.721-1.61-1.61 0-.887.722-1.61 1.61-1.61.887 0 1.61.723 1.61 1.61 0 .889-.722 1.61-1.61 1.61m0-5.33a3.725 3.725 0 0 1 3.72 3.72c0 2.052-1.669 3.721-3.72 3.721a3.725 3.725 0 0 1-3.721-3.72c0-2.052 1.67-3.721 3.72-3.721zm0 4.83c.612 0 1.11-.497 1.11-1.11 0-.612-.498-1.11-1.11-1.11a1.112 1.112 0 0 0 0 2.22z" style="fill:#c9c9c9;stroke:none" transform="translate(-89.408 -282.517)"/>
                </g>
            </g>
        </g>
        <g data-name="Group 10305">
            <g data-name="Group 10304">
                <g data-name="Path 1899">
                    <path d="m336.581 117.097-.112-.224-2.123-4.223h-3.84V110.54h4.49c.402 0 .763.223.943.58l2.416 4.805.112.223-.223.113-1.44.723-.223.113z" style="stroke:none" transform="translate(-307.083 -98.566)"/>
                    <path d="M330.756 110.79v1.61h3.744l2.192 4.361 1.44-.724-2.416-4.804a.806.806 0 0 0-.72-.443h-4.24m-.5-.5h4.74a1.3 1.3 0 0 1 1.167.718l2.64 5.252-2.333 1.172-2.278-4.532h-3.936v-2.61z" style="fill:#c9c9c9;stroke:none" transform="translate(-307.083 -98.566)"/>
                </g>
            </g>
        </g>
        <g data-name="Group 10307">
            <g data-name="Group 10306">
                <path data-name="Rectangle 1138" d="M17.956 24.328h6.092v1.61h-6.092z"/>
            </g>
        </g>
        <g data-name="Group 10309">
            <g data-name="Group 10308">
                <g data-name="Path 1900">
                    <path d="M49.311 355.205h-2.79a1.056 1.056 0 0 1 0-2.11h2.79a1.056 1.056 0 0 1 0 2.11z" style="stroke:none" transform="translate(-36.267 -329.017)"/>
                    <path d="M46.52 353.345a.805.805 0 1 0 0 1.61h2.791a.805.805 0 1 0 0-1.61h-2.79m0-.5h2.79c.72 0 1.305.585 1.305 1.305s-.585 1.305-1.305 1.305h-2.79c-.72 0-1.306-.585-1.306-1.305s.585-1.305 1.305-1.305z" style="fill:#c9c9c9;stroke:none" transform="translate(-36.267 -329.017)"/>
                </g>
            </g>
        </g>
        <g data-name="Group 10311">
            <g data-name="Group 10310">
                <g data-name="Path 1901">
                    <path d="M68.179 94.096h-3.033a1.056 1.056 0 0 1 0-2.11h1.978v-3.817l-1.045-1.347h-6.14a1.056 1.056 0 0 1-1.055-1.055v-5.386H46.52a1.056 1.056 0 0 1 0-2.11h13.42c.581 0 1.055.473 1.055 1.055v5.386h5.6c.324 0 .636.153.834.408l1.583 2.04c.143.184.222.414.222.647v5.234c0 .581-.473 1.055-1.055 1.055z" style="stroke:none" transform="translate(-36.267 -67.907)"/>
                    <path d="M68.179 93.846c.444 0 .805-.36.805-.805v-5.234a.806.806 0 0 0-.17-.494l-1.583-2.04a.804.804 0 0 0-.636-.31h-5.85v-5.637a.805.805 0 0 0-.806-.805H46.52a.805.805 0 1 0 0 1.61h12.614v5.636c0 .445.36.805.805.805h6.262l1.173 1.51v4.153h-2.228a.805.805 0 1 0 0 1.61h3.033m0 .5h-3.033c-.72 0-1.305-.585-1.305-1.304 0-.72.585-1.306 1.305-1.306h1.728v-3.48l-.918-1.183H59.94c-.72 0-1.305-.585-1.305-1.305v-5.136H46.52c-.72 0-1.305-.585-1.305-1.305s.585-1.305 1.305-1.305h13.42c.719 0 1.305.585 1.305 1.305v5.136h5.35c.401 0 .786.19 1.031.505l1.584 2.04c.177.228.274.512.274.8v5.234c0 .72-.586 1.305-1.305 1.305z" style="fill:#c9c9c9;stroke:none" transform="translate(-36.267 -67.907)"/>
                </g>
            </g>
        </g>
        <g data-name="Group 10313">
            <g data-name="Group 10312">
                <g data-name="Path 1902">
                    <path d="M30.862 273.457h-3.704a1.056 1.056 0 0 1 0-2.11h3.704c.282 0 .547.11.746.309a1.056 1.056 0 0 1-.746 1.801z" style="stroke:none" transform="translate(-17.871 -251.348)"/>
                    <path d="M27.158 271.597a.805.805 0 1 0 0 1.61h3.704a.805.805 0 1 0 0-1.61h-3.704m0-.5h3.704c.349 0 .676.136.923.382a1.307 1.307 0 0 1-.923 2.228h-3.704c-.72 0-1.305-.585-1.305-1.305s.585-1.305 1.305-1.305z" style="fill:#c9c9c9;stroke:none" transform="translate(-17.871 -251.348)"/>
                </g>
            </g>
        </g>
        <g data-name="Group 10315">
            <g data-name="Group 10314">
                <g data-name="Path 1903">
                    <path d="M7.676 209.994H.806a1.056 1.056 0 0 1 0-2.11h6.87a1.056 1.056 0 0 1 0 2.11z" style="stroke:none" transform="translate(7.167 -191.052)"/>
                    <path d="M.805 208.134a.805.805 0 0 0 0 1.61h6.87a.805.805 0 1 0 0-1.61H.806m0-.5h6.87c.72 0 1.306.586 1.306 1.305 0 .72-.586 1.305-1.305 1.305H.806c-.72 0-1.306-.585-1.306-1.305s.585-1.305 1.305-1.305z" style="fill:#c9c9c9;stroke:none" transform="translate(7.167 -191.052)"/>
                </g>
            </g>
        </g>
        <g data-name="Group 10317">
            <g data-name="Group 10316">
                <g data-name="Path 1904">
                    <path d="M34.029 146.532h-6.87a1.056 1.056 0 0 1 0-2.11h6.87c.282 0 .547.11.746.309a1.056 1.056 0 0 1-.746 1.801z" style="stroke:none" transform="translate(-17.871 -130.757)"/>
                    <path d="M27.158 144.672a.805.805 0 1 0 0 1.61h6.87a.805.805 0 1 0 0-1.61h-6.87m0-.5h6.87c.35 0 .677.136.924.382a1.307 1.307 0 0 1-.923 2.228h-6.87c-.72 0-1.306-.585-1.306-1.305s.585-1.305 1.305-1.305z" style="fill:#c9c9c9;stroke:none" transform="translate(-17.871 -130.757)"/>
                </g>
            </g>
        </g>
    </g>
</svg>
