<svg xmlns="http://www.w3.org/2000/svg" width="20.552" height="14.947" viewBox="0 0 20.552 14.947">
  <path id="Icon_material-local-shipping" data-name="Icon material-local-shipping" d="M19.249,9.737h-2.8V6H3.368A1.874,1.874,0,0,0,1.5,7.868V18.144H3.368a2.8,2.8,0,0,0,5.605,0h5.605a2.8,2.8,0,0,0,5.605,0h1.868V13.473ZM6.171,19.545a1.4,1.4,0,1,1,1.4-1.4A1.4,1.4,0,0,1,6.171,19.545Zm12.611-8.408,1.831,2.335H16.447V11.138Zm-1.4,8.408a1.4,1.4,0,1,1,1.4-1.4A1.4,1.4,0,0,1,17.381,19.545Z" transform="translate(-1.5 -6)" fill="#004f9e"/>
</svg>
