<svg xmlns="http://www.w3.org/2000/svg" width="83.791" height="85.594" viewBox="0 0 83.791 85.594">
    <g style="opacity:.22">
        <path data-name="Path 1979" d="m.3 79.905 1.11 2.5 39.811-16.511 6.936.833 2.5 7.63-3.329 3.191a4 4 0 0 0-.971 4.578l1.387 3.468 23.026-9.018-1.248-3.329a3.922 3.922 0 0 0-3.884-2.636h-4.579l-2.5-5.966 6.1-3.052a4.169 4.169 0 0 0 2.081-5.133l-7.9-21.224a4.274 4.274 0 0 0-5.411-2.5.136.136 0 0 0-.138.139l-5.827 2.5-.832-2.081 3.191-3.745a16.326 16.326 0 0 0 4.023-8.878l4.023-4.855A7.286 7.286 0 0 0 56.9 5.548a11.612 11.612 0 0 0-1.664-1.11 6.893 6.893 0 0 0-4.717-.416L50.1 2.773a4.012 4.012 0 0 0-5.271-2.5L15.557 10.82a4.06 4.06 0 0 0-2.5 5.271v.139l.694 1.8a7.686 7.686 0 0 0-4.021 9.437 7.89 7.89 0 0 0 6.382 5.133l6.52.694a18.066 18.066 0 0 0 9.017 3.468l4.578.417.832 2.081a4.132 4.132 0 0 0-1.942 2.775l-.971 4.717L.3 60.484l.971 2.636 19.419-7.769L25.407 69.5zm66.45-5.826.278.832-17.761 7.075-.416-.832a1.923 1.923 0 0 1 .278-1.525l4.717-4.44 5.965-1.942h5.549a1.392 1.392 0 0 1 1.387.832zm-8.74-3.33-4.994 1.665-1.8-5.271a3.084 3.084 0 0 0 2.219-.417l2.359-1.11zm-3.748-35.791a1.377 1.377 0 0 1 1.8.694l1.11 2.913-6.8 2.22.832 2.636 6.8-2.22 1.664 4.44-6.52 2.219.833 2.636 6.659-2.22 1.665 4.439-6.378 2.085.832 2.636 6.52-2.22.694 1.8a1.224 1.224 0 0 1-.694 1.665l-10.959 5.41a1.759 1.759 0 0 1-.832.139l-9.433-1.11-5.133-15.4.971-5.133a1.468 1.468 0 0 1 .832-.971zm-.139-28.023a4.6 4.6 0 0 1 2.358 5.965 4.861 4.861 0 0 1-.694 1.11l-1.665 2.081a20.732 20.732 0 0 0-.832-4.023l-1.8-5.41a5.544 5.544 0 0 1 2.633.277zM12.5 26.773a4.779 4.779 0 0 1 2.359-5.966l1.942 4.717a20.1 20.1 0 0 0 2.775 4.717l-2.913-.278a4.64 4.64 0 0 1-4.163-3.19zm19.7 7.352a15.161 15.161 0 0 1-12.763-9.572L15.835 15.4a1.376 1.376 0 0 1 .694-1.8L45.8 3.051a1.531 1.531 0 0 1 1.11 0 1.422 1.422 0 0 1 .694.832l3.052 9.156a15.249 15.249 0 0 1-2.913 14.7l-4.3 4.994 1.248 3.329-4.991 2.087-1.392-3.469zm-8.874 20.116 3.19-1.248 3.468 10.543 2.636-.836-3.606-10.82 5.549-2.22 4.717 14.012-11.238 4.719zm0 0" transform="translate(-.297)" style="fill:#fff"/>
        <path data-name="Path 1980" d="M362.432 54.027v1.387h2.774v-1.387a6.869 6.869 0 0 1 6.936-6.936v-2.775a6.869 6.869 0 0 1-6.936-6.936v-1.388h-2.774v1.387a6.869 6.869 0 0 1-6.936 6.936v2.775a6.869 6.869 0 0 1 6.936 6.937zm1.387-11.653a9.56 9.56 0 0 0 3.329 3.329 9.568 9.568 0 0 0-3.329 3.33 9.567 9.567 0 0 0-3.329-3.33 9.56 9.56 0 0 0 3.33-3.329zm0 0" transform="translate(-293.902 -29.751)" style="fill:#fff"/>
        <path data-name="Path 1981" d="M10.432 214.027v1.387h2.775v-1.387a6.869 6.869 0 0 1 6.936-6.936v-2.775a6.869 6.869 0 0 1-6.936-6.936v-1.387h-2.775v1.387a6.868 6.868 0 0 1-6.932 6.936v2.775a6.869 6.869 0 0 1 6.932 6.936zm1.387-11.653a9.56 9.56 0 0 0 3.329 3.329 9.568 9.568 0 0 0-3.329 3.33A9.568 9.568 0 0 0 8.49 205.7a9.56 9.56 0 0 0 3.33-3.326zm0 0" transform="translate(-2.941 -162.005)" style="fill:#fff"/>
        <path data-name="Path 1982" d="M397.207 197.379v-1.387h-2.775v1.387a6.868 6.868 0 0 1-6.936 6.936v2.775a6.869 6.869 0 0 1 6.936 6.936v1.387h2.775v-1.387a6.869 6.869 0 0 1 6.936-6.936v-2.775a6.869 6.869 0 0 1-6.936-6.936zm-1.387 11.654a9.568 9.568 0 0 0-3.329-3.33 9.56 9.56 0 0 0 3.329-3.329 9.561 9.561 0 0 0 3.329 3.329 9.568 9.568 0 0 0-3.329 3.33zm0 0" transform="translate(-320.353 -162.005)" style="fill:#fff"/>
        <path data-name="Path 1983" d="m236.575 57.75 1.942 1.942c7.63-7.63.555-19.283.139-19.7l-2.356 1.526c.136 0 6.378 10.128.275 16.232zm0 0" transform="translate(-195.373 -33.057)" style="fill:#fff"/>
    </g>
</svg>
