<svg id="info" xmlns="http://www.w3.org/2000/svg" width="20.552" height="23.915" viewBox="0 0 20.552 23.915">
  <g id="Group_10630" data-name="Group 10630">
    <g id="Group_10629" data-name="Group 10629">
      <path id="Path_2118" data-name="Path 2118" d="M235.257,182.774c-.594,0-1.016.251-1.016.62v5.029c0,.317.422.634,1.016.634.568,0,1.03-.317,1.03-.634v-5.029C236.287,183.025,235.825,182.774,235.257,182.774Z" transform="translate(-224.982 -174.237)" fill="#4d4d81"/>
      <path id="Path_2119" data-name="Path 2119" d="M233.911,116.361a.951.951,0,1,0,1.069.937A1.023,1.023,0,0,0,233.911,116.361Z" transform="translate(-223.634 -110.926)" fill="#4d4d81"/>
      <path id="Path_2120" data-name="Path 2120" d="M46.276,0a10.27,10.27,0,0,0-3.11,20.06L45.5,23.505a.934.934,0,0,0,1.546,0l2.337-3.445A10.27,10.27,0,0,0,46.276,0Zm2.272,18.361a.934.934,0,0,0-.522.375l-1.751,2.58-1.751-2.58A.934.934,0,0,0,44,18.361a8.408,8.408,0,1,1,4.544,0Z" transform="translate(-36 0)" fill="#4d4d81"/>
    </g>
  </g>
</svg>
