<svg id="list" xmlns="http://www.w3.org/2000/svg" width="19.276" height="21.846" viewBox="0 0 19.276 21.846">
  <g id="Icons_20_" transform="translate(0)">
    <g id="Group_10605" data-name="Group 10605">
      <path id="Path_2077" data-name="Path 2077" d="M46.263,0h-9.5A2.067,2.067,0,0,0,35.3.608L29.654,6.281a2.065,2.065,0,0,0-.6,1.457V19.781a2.066,2.066,0,0,0,2.066,2.066H46.263a2.065,2.065,0,0,0,2.065-2.066V2.066A2.065,2.065,0,0,0,46.263,0Zm.609,19.781a.609.609,0,0,1-.609.609H31.118a.61.61,0,0,1-.61-.609V8.149h5.809a.971.971,0,0,0,.97-.97V1.456h8.976a.61.61,0,0,1,.609.609V19.781Z" transform="translate(-29.052)" fill="#004f9e"/>
      <path id="Path_2078" data-name="Path 2078" d="M139.21,254.455h-8.167a1.092,1.092,0,0,0,0,2.185h8.167a1.092,1.092,0,1,0,0-2.185Z" transform="translate(-125.488 -243.2)" fill="#004f9e"/>
      <path id="Path_2079" data-name="Path 2079" d="M249.356,172.139h-3.069a1.092,1.092,0,0,0,0,2.185h3.069a1.092,1.092,0,1,0,0-2.185Z" transform="translate(-235.635 -164.525)" fill="#004f9e"/>
      <path id="Path_2080" data-name="Path 2080" d="M249.356,89.825h-3.069a1.092,1.092,0,0,0,0,2.185h3.069a1.092,1.092,0,1,0,0-2.185Z" transform="translate(-235.635 -85.852)" fill="#004f9e"/>
      <path id="Path_2081" data-name="Path 2081" d="M139.21,347.421h-8.167a1.092,1.092,0,1,0,0,2.185h8.167a1.092,1.092,0,1,0,0-2.185Z" transform="translate(-125.488 -332.054)" fill="#004f9e"/>
    </g>
  </g>
</svg>
