<svg xmlns="http://www.w3.org/2000/svg" width="19.067" height="26" viewBox="0 0 19.067 26">
  <g id="location_2_" data-name="location (2)" transform="translate(-214 66)">
    <g id="Group_13566" data-name="Group 13566" transform="translate(214 -66)">
      <g id="Group_13565" data-name="Group 13565">
        <path id="Path_4563" data-name="Path 4563" d="M73.533,0A9.533,9.533,0,0,0,64,9.533c0,5.123,8.824,15.855,9.2,16.309a.433.433,0,0,0,.668,0c.376-.454,9.2-11.186,9.2-16.309A9.533,9.533,0,0,0,73.533,0Zm0,24.878C71.9,22.843,64.867,13.811,64.867,9.533a8.667,8.667,0,1,1,17.333,0C82.2,13.81,75.164,22.842,73.533,24.878Z" transform="translate(-64)" fill="#004f9e"/>
        <path id="Path_4564" data-name="Path 4564" d="M139.968,68.427l-5.633-4.333a.433.433,0,0,0-.529,0l-5.633,4.333a.433.433,0,0,0,.264.777h1.3V73.97a.433.433,0,0,0,.433.433h7.8a.433.433,0,0,0,.433-.433V69.2h1.3a.433.433,0,0,0,.264-.777Zm-5.031,5.11H133.2v-2.6h1.733Zm3.033-5.2a.433.433,0,0,0-.433.433v4.767H135.8V70.5a.433.433,0,0,0-.433-.433h-2.6a.433.433,0,0,0-.433.433v3.033H130.6V68.77a.433.433,0,0,0-.433-.433h-.459l4.359-3.353,4.359,3.353Z" transform="translate(-124.537 -60.537)" fill="#004f9e"/>
      </g>
    </g>
  </g>
</svg>
