<svg xmlns="http://www.w3.org/2000/svg" width="54" height="54" viewBox="0 0 54 54">
    <g transform="translate(.472 .3)">
        <circle data-name="Ellipse 1812" cx="27" cy="27" r="27" transform="translate(-.472 -.3)" style="fill:#a3d6dd"/>
        <path data-name="Path 4222" d="m157.154 78.377-19.492-19.491a9.856 9.856 0 0 0-17.09 6.7v5.869h-1.6a3.218 3.218 0 0 0-3.208 3.208v13.258a6.661 6.661 0 0 0 2.236 4.97l10.486 10.486q.965.069 1.948.071a26.776 26.776 0 0 0 26.72-25.071z" transform="translate(-103.841 -49.896)" style="fill:#54bcb1"/>
        <path data-name="Path 4223" d="M181.448 73.5h-3.631v-7.915a6.23 6.23 0 0 0-12.459 0V73.5h-3.631v-7.915a9.861 9.861 0 0 1 19.722 0V73.5z" transform="translate(-144.995 -49.896)" style="fill:#3c3b41"/>
        <path data-name="Path 4224" d="M256.005 55.725v3.631a6.237 6.237 0 0 1 6.23 6.23V73.5h3.631v-7.914a9.872 9.872 0 0 0-9.861-9.861z" transform="translate(-229.413 -49.896)" style="fill:#171719"/>
        <path data-name="Path 4225" d="M138.429 229.254h-15.988a6.694 6.694 0 0 1-6.674-6.674v-13.259a3.218 3.218 0 0 1 3.208-3.208h22.919a3.218 3.218 0 0 1 3.208 3.208v13.259a6.694 6.694 0 0 1-6.673 6.674z" transform="translate(-103.843 -184.555)" style="fill:#ffdb2d"/>
        <path data-name="Path 4226" d="M267.465 206.114h-11.46v23.141H264a6.694 6.694 0 0 0 6.674-6.674v-13.259a3.218 3.218 0 0 0-3.209-3.208z" transform="translate(-229.413 -184.556)" style="fill:#ebb300"/>
        <path data-name="Rectangle 1385" transform="translate(14.698 28.82)" style="fill:#fff" d="M0 0h23.789v8.615H0z"/>
        <path data-name="Rectangle 1386" transform="translate(26.592 28.82)" style="fill:#d8d8da" d="M0 0h11.894v8.615H0z"/>
        <path data-name="Rectangle 1387" transform="translate(15.556 29.747)" style="fill:#3c3b41" d="M0 0h22.072v6.763H0z"/>
        <path data-name="Rectangle 1388" transform="translate(26.592 29.747)" style="fill:#171719" d="M0 0h11.036v6.763H0z"/>
        <g data-name="Group 12738">
            <path data-name="Path 4227" d="m175.31 295.407-.522-.755-1.235.854v-1.5h-.918v1.5l-1.235-.854-.522.755 1.41.975-1.41.975.522.755 1.235-.854v1.5h.918v-1.5l1.235.854.522-.755-1.41-.975z" transform="translate(-153.19 -263.254)" style="fill:#fff"/>
            <path data-name="Path 4228" d="m239.248 295.407-.522-.755-1.235.854v-1.5h-.918v1.5l-1.235-.854-.522.755 1.41.975-1.41.975.522.755 1.235-.854v1.5h.918v-1.5l1.235.854.522-.755-1.41-.975z" transform="translate(-210.44 -263.254)" style="fill:#fff"/>
        </g>
        <g data-name="Group 12739">
            <path data-name="Path 4229" d="m256.464 297.258 1.235.854.522-.755-1.41-.975 1.41-.975-.522-.755-1.235.854v-1.5h-.459v4.755h.459z" transform="translate(-229.413 -263.254)" style="fill:#d8d8da"/>
            <path data-name="Path 4230" d="m303.186 295.407-.522-.755-1.235.854v-1.5h-.918v1.5l-1.235-.854-.522.755 1.41.975-1.41.975.522.755 1.235-.854v1.5h.918v-1.5l1.235.854.522-.755-1.41-.975z" transform="translate(-267.691 -263.254)" style="fill:#d8d8da"/>
        </g>
    </g>
</svg>
