<svg xmlns="http://www.w3.org/2000/svg" width="20.307" height="20.213" viewBox="0 0 20.307 20.213">
    <g data-name="Group 10612">
        <g data-name="Group 10611">
            <path data-name="Path 2108" d="M306.712 152.267a.817.817 0 0 0-.176-.264l-2.427-2.427a.809.809 0 0 0-1.144 1.144l1.047 1.047h-4.521a.809.809 0 1 0 0 1.619h4.521l-1.047 1.047a.809.809 0 1 0 1.145 1.144l2.427-2.427a.8.8 0 0 0 .176-.264.81.81 0 0 0-.001-.619z" transform="translate(-286.466 -143.328)" style="fill:#e00000"/>
            <path data-name="Path 2109" d="M14.607 11.791a.85.85 0 0 0-.858.842v4.211h-3.434V3.369a.845.845 0 0 0-.615-.807l-2.978-.878h7.027V5.9a.859.859 0 0 0 1.717 0V.842A.85.85 0 0 0 14.607 0H.872a.778.778 0 0 0-.088.016.859.859 0 0 0-.364.125C.4.152.378.153.36.167S.35.181.344.186a.839.839 0 0 0-.229.266.679.679 0 0 0-.024.071.789.789 0 0 0-.068.2.514.514 0 0 0 0 .073C.025.81.014.825.014.842v16.845a.846.846 0 0 0 .69.825L9.288 20.2a.814.814 0 0 0 .168.017.868.868 0 0 0 .544-.195.837.837 0 0 0 .314-.651v-.842h4.292a.85.85 0 0 0 .858-.842v-5.054a.85.85 0 0 0-.857-.842z" transform="translate(-.014)" style="fill:#e00000"/>
        </g>
    </g>
</svg>
