<svg xmlns="http://www.w3.org/2000/svg" width="19.219" height="21.873" viewBox="0 0 19.219 21.873">
    <path data-name="Path 2101" d="M473.359 41.82h-1.169v18.629a1.847 1.847 0 0 1-.879 1.571 4.921 4.921 0 0 1-.455.244h2.5a.544.544 0 0 0 .544-.544V42.365a.544.544 0 0 0-.541-.545zm0 0" transform="translate(-454.684 -40.391)" style="fill:#004f9e"/>
    <path data-name="Path 2102" d="M395.865 3.358a.545.545 0 0 0-.543-.545.538.538 0 0 0-.206.041 8.681 8.681 0 0 1-1.232.389v19.335a1.85 1.85 0 0 1-.607 1.367l-.1.089a7.616 7.616 0 0 0 2.435-.8.538.538 0 0 0 .255-.461zm0 0" transform="translate(-379.659 -2.716)" style="fill:#004f9e"/>
    <path data-name="Subtraction 15" d="M.545 21.873A.545.545 0 0 1 0 21.328V1.976a.544.544 0 0 1 .543-.544c1.466 0 2.728-.028 3.858-.073a49.284 49.284 0 0 0 3.263-.222A12.755 12.755 0 0 0 12.131.064.528.528 0 0 1 12.383 0a.534.534 0 0 1 .2.041.552.552 0 0 1 .174.114.54.54 0 0 1 .165.392v19.314a.548.548 0 0 1-.18.4 2.81 2.81 0 0 1-.36.274 3.943 3.943 0 0 1-.434.241 6.615 6.615 0 0 1-1.073.391 12.649 12.649 0 0 1-1.316.284c-.457.076-.97.141-1.525.195-2.109.208-4.64.226-7.489.227zm10.278-4.82a.646.646 0 0 0-.249.05c-2.328.965-5.431 1.117-8.437 1.138a.649.649 0 0 0 0 1.3c3.139-.021 6.392-.186 8.926-1.237a.65.65 0 0 0-.249-1.25zm-.072-2.887a.646.646 0 0 0-.244.048c-2.322.941-5.395 1.09-8.37 1.11a.649.649 0 0 0 0 1.3c3.1-.021 6.325-.182 8.849-1.205a.65.65 0 0 0-.244-1.252zm.072-2.946a.646.646 0 0 0-.248.05c-2.328.965-5.431 1.117-8.437 1.138a.649.649 0 0 0 0 1.3c3.139-.022 6.393-.186 8.926-1.237a.65.65 0 0 0-.249-1.25zM5.389 3.443 1.4 3.986v7.247l3.986-.67v-7.12zm5.423 4.866a.646.646 0 0 0-.248.049A13.672 13.672 0 0 1 7.2 9.2a.65.65 0 0 0 .092 1.3.666.666 0 0 0 .09-.006 14.94 14.94 0 0 0 3.679-.932.65.65 0 0 0-.248-1.25zm.01-2.92a.646.646 0 0 0-.248.05 13.652 13.652 0 0 1-3.371.85.65.65 0 0 0 .088 1.293.682.682 0 0 0 .09-.006 14.922 14.922 0 0 0 3.691-.937.65.65 0 0 0-.249-1.25zm-.01-2.912a.646.646 0 0 0-.248.049 13.651 13.651 0 0 1-3.352.844.65.65 0 0 0 .088 1.293.675.675 0 0 0 .09-.006 14.925 14.925 0 0 0 3.67-.93.65.65 0 0 0-.248-1.25z" style="fill:#004f9e"/>
</svg>
