<svg xmlns="http://www.w3.org/2000/svg" width="120" height="120" viewBox="0 0 120 120">
  <g id="Group_12731" data-name="Group 12731" transform="translate(0 0)">
    <path id="Path_4193" data-name="Path 4193" d="M120,60a59.868,59.868,0,0,1-59.32,60q-1.882.021-3.737-.073a2.539,2.539,0,0,1-2.373-2.087A60.039,60.039,0,0,0,2.312,69.053,2.128,2.128,0,0,1,.428,67.2,60.044,60.044,0,0,1,60.884.006,60,60,0,0,1,120,60Z" transform="translate(0 0)" fill="#51489a"/>
    <path id="Path_4194" data-name="Path 4194" d="M1.766,124.1l89.47-49.556C94.03,72.6,105.889,84.433,103.961,87.2l-45.39,89.854A60.144,60.144,0,0,1,1.766,124.1Z" transform="translate(-1.357 -57.127)" fill="#5f55af"/>
    <path id="Path_4195" data-name="Path 4195" d="M214.32,58.5,163.5,131.549l-23.894-4.255,73.482-73.809.858.858a3.252,3.252,0,0,1,.37,4.157Z" transform="translate(-105.797 -41.106)" fill="#55a4f9"/>
    <path id="Path_4196" data-name="Path 4196" d="M125.48,122.393,121.225,98.5l73.031-50.8a3.279,3.279,0,0,1,4.191.373l.843.843Zm23.894,4.255,4.675-4.675-11.385-8.581Z" transform="translate(-91.668 -36.205)" fill="#1380e2"/>
    <path id="Path_4197" data-name="Path 4197" d="M135.79,263.042l-14.565-8.019,4.255-4.255Z" transform="translate(-92.763 -191.909)" fill="#4172cc"/>
    <path id="Path_4198" data-name="Path 4198" d="M157.443,46.884,93.748,106.254,66.63,79.136a2.352,2.352,0,0,1,.892-3.885l85.033-29.49a4.724,4.724,0,0,1,4.888,1.123Zm1.322,1.322-58.04,65.025,25.788,25.788a2.352,2.352,0,0,0,3.885-.892l29.49-85.032a4.724,4.724,0,0,0-1.123-4.888Z" transform="translate(-50.679 -34.969)" fill="#a7d0fc"/>
    <path id="Path_4199" data-name="Path 4199" d="M258.079,52.972l-16.334,47.1a12.066,12.066,0,1,1-20.4-11.989l35.631-39.919a4.649,4.649,0,0,1,1.1,4.81Zm-7.216-7.216-47.1,16.334a12.066,12.066,0,0,0-4.578,19.932l.815.815a12.066,12.066,0,0,0,16.759.294l38.912-36.27a4.649,4.649,0,0,0-4.81-1.1Z" transform="translate(-148.866 -34.969)" fill="#c8e2fd"/>
    <path id="Path_4200" data-name="Path 4200" d="M140.161,345.59l-16.038,16.038a1.157,1.157,0,1,1-1.636-1.636l16.038-16.038a1.157,1.157,0,0,1,1.636,1.636Zm1.514,5.442a1.157,1.157,0,0,0-1.636,0l-8.183,8.183a1.157,1.157,0,1,0,1.636,1.636l8.182-8.183A1.157,1.157,0,0,0,141.675,351.031Zm-13.093,11.456-3.273,3.273a1.157,1.157,0,1,0,1.637,1.636l3.273-3.273a1.157,1.157,0,0,0-1.637-1.636Zm10.372-2.394-3.273,3.273A1.157,1.157,0,1,0,137.317,365l3.273-3.273a1.157,1.157,0,1,0-1.636-1.637Z" transform="translate(-93.447 -262.586)" fill="#fff"/>
  </g>
</svg>
