<svg xmlns="http://www.w3.org/2000/svg" width="134.26" height="144.43" viewBox="0 0 134.26 144.43">
    <defs>
        <filter id="xijjf6ymua" x="83.345" y="51.759" width="50.389" height="48.022" filterUnits="userSpaceOnUse">
            <feOffset dx="6" dy="13"/>
            <feGaussianBlur stdDeviation="6" result="blur"/>
            <feFlood flood-color="#af310b" flood-opacity=".749"/>
            <feComposite operator="in" in2="blur"/>
            <feComposite in="SourceGraphic"/>
        </filter>
        <filter id="8k54t6y16b" x="9.496" y="90.421" width="49.23" height="51.382" filterUnits="userSpaceOnUse">
            <feOffset dx="6" dy="13"/>
            <feGaussianBlur stdDeviation="6" result="blur-2"/>
            <feFlood flood-color="#af310b" flood-opacity=".749"/>
            <feComposite operator="in" in2="blur-2"/>
            <feComposite in="SourceGraphic"/>
        </filter>
        <filter id="1hmgcoeorc" x="0" y="41.495" width="54.703" height="43.18" filterUnits="userSpaceOnUse">
            <feOffset dx="6" dy="10"/>
            <feGaussianBlur stdDeviation="6" result="blur-3"/>
            <feFlood flood-color="#af310b" flood-opacity=".749"/>
            <feComposite operator="in" in2="blur-3"/>
            <feComposite in="SourceGraphic"/>
        </filter>
        <filter id="k63a3c2und" x="82.82" y="16.21" width="51.44" height="42.602" filterUnits="userSpaceOnUse">
            <feOffset dx="6" dy="13"/>
            <feGaussianBlur stdDeviation="6" result="blur-4"/>
            <feFlood flood-color="#af310b" flood-opacity=".749"/>
            <feComposite operator="in" in2="blur-4"/>
            <feComposite in="SourceGraphic"/>
        </filter>
        <filter id="44143m3nde" x="75.053" y="95.352" width="52.732" height="49.078" filterUnits="userSpaceOnUse">
            <feOffset dx="6" dy="13"/>
            <feGaussianBlur stdDeviation="6" result="blur-5"/>
            <feFlood flood-color="#af310b" flood-opacity=".749"/>
            <feComposite operator="in" in2="blur-5"/>
            <feComposite in="SourceGraphic"/>
        </filter>
        <filter id="vwjyyo89of" x="47.149" y="85.879" width="44.406" height="44.025" filterUnits="userSpaceOnUse">
            <feOffset dx="4" dy="3"/>
            <feGaussianBlur stdDeviation="3" result="blur-6"/>
            <feFlood flood-opacity=".522"/>
            <feComposite operator="in" in2="blur-6"/>
            <feComposite in="SourceGraphic"/>
        </filter>
    </defs>
    <g data-name="Group 10808">
        <g data-name="Group 10806">
            <g data-name="Group 10587">
                <ellipse data-name="Ellipse 7 copy" cx="50.132" cy="50.124" rx="50.132" ry="50.124" style="fill:#fe0;opacity:.4" transform="translate(14.955 16.922)"/>
                <g data-name="Group 10805">
                    <g data-name="Group 10785">
                        <g data-name="Group 10784">
                            <path data-name="Path 2457" d="m1569.019 429.855 19.643-4.034-4.505-21.937a10.027 10.027 0 0 0-11.839-7.8 10.026 10.026 0 0 0-7.8 11.839z" transform="translate(-1490.249 -327.473)" style="fill:#fff"/>
                        </g>
                    </g>
                    <g data-name="Group 10786">
                        <path data-name="Path 2459" d="m1311.85 430.581-19.643-4.034 4.505-21.937a10.026 10.026 0 0 1 11.839-7.8 10.027 10.027 0 0 1 7.8 11.839z" transform="translate(-1260.447 -328.085)" style="fill:#fff"/>
                    </g>
                    <g data-name="Group 10789">
                        <path data-name="Path 2462" d="m1368.338 345.1-22.163 8.967a3.178 3.178 0 0 0-1.858 3.839l11.841 39.657h26.174l11.212-40.161a3.178 3.178 0 0 0-2-3.841z" transform="translate(-1304.348 -284.596)" style="fill:#fff"/>
                        <path data-name="Path 2463" d="m1400.911 351.307 15.332-6.2 16.423 5.987s-.968 7.437-15.927 7.437-15.828-7.224-15.828-7.224z" transform="translate(-1352.254 -284.596)" style="fill:#dc927b"/>
                        <g data-name="Group 10788">
                            <path data-name="Line 161" style="stroke-linecap:round;stroke-linejoin:round;stroke:#f4e3e7;stroke-width:3.661px;fill:none" d="M5.166 17.301 0 0" transform="translate(43.338 84.599)"/>
                            <path data-name="Line 162" transform="translate(81.343 84.599)" style="stroke-linecap:round;stroke-linejoin:round;stroke:#f4e3e7;stroke-width:3.661px;fill:none" d="M0 17.301 5.166 0"/>
                        </g>
                        <path data-name="Rectangle 1289" d="M51.622 112.971h26.214v4.009H51.622z"/>
                    </g>
                    <g data-name="Group 10799" transform="translate(36.792 11.574)">
                        <path data-name="Path 2464" d="M32.794 5.323a9.443 9.443 0 0 1 9.872 1.9c4.507 4.243 1.326 7.071 5.3 9.17s1.073 7.91 5.713 10.555 1.579 9.168-3.194 10.095c0 0-2.292 6.045-7.322 5.463 0 0-4.654 5.173-13.719 1.888l-3.338-1.369z"/>
                        <path data-name="Path 2465" d="M15.132 7.107s-6.031.779-7.2 6.136-.744 4.09-4.055 6.817.877 5.811-1.753 8.539a6.35 6.35 0 0 0-2.1 3.845 4.825 4.825 0 0 0 3.607 5.008c1.525.434 2.77 1.876 3.677 3.84 1.8 3.9 8.236 2.2 8.236 2.2s6.08 3.542 9.805.912-1.889-38.86-1.889-38.86z"/>
                        <path data-name="Path 2466" d="M34.018 5.619S31.718 0 23.448 0 12.611 8.621 12.611 8.621l12.038 6.968z"/>
                        <g data-name="Group 10792">
                            <g data-name="Group 10791">
                                <g data-name="Group 10790">
                                    <path data-name="Path 2467" d="M1400.444 181.969c.822 1.837.752 4.8-.991 5.457s-3.824-1.711-4.646-3.548-.32-3.434 1.423-4.09 3.391.344 4.214 2.181z" transform="translate(-1383.564 -156.382)" style="fill:#dc927b"/>
                                </g>
                            </g>
                            <path data-name="Path 2468" d="M1405.707 194.85s2.132-.567 2.93 2.329" transform="translate(-1393.096 -169.234)" style="stroke:#ad523f;stroke-width:2.169px;stroke-linecap:round;stroke-linejoin:round;fill:none"/>
                            <path data-name="Path 2469" d="M1406.8 225.757a3.915 3.915 0 1 1-3.513-5.644" transform="translate(-1387.748 -190.608)" style="stroke:#fcb807;stroke-miterlimit:10;stroke-width:3.362px;fill:none"/>
                        </g>
                        <g data-name="Group 10795">
                            <g data-name="Group 10794">
                                <g data-name="Group 10793">
                                    <path data-name="Path 2470" d="M1572.834 181.969c-.822 1.837-.752 4.8.991 5.457s3.824-1.711 4.646-3.548.32-3.434-1.423-4.09-3.392.344-4.214 2.181z" transform="translate(-1533.814 -156.382)" style="fill:#dc927b"/>
                                </g>
                            </g>
                            <path data-name="Path 2471" d="M1587.132 194.85s-2.132-.567-2.931 2.329" transform="translate(-1543.843 -169.234)" style="stroke:#ad523f;stroke-width:2.169px;stroke-linecap:round;stroke-linejoin:round;fill:none"/>
                            <path data-name="Path 2472" d="M1562.614 225.757a3.915 3.915 0 1 0 3.513-5.644" transform="translate(-1525.612 -190.608)" style="stroke:#fcb807;stroke-miterlimit:10;stroke-width:3.362px;fill:none"/>
                        </g>
                        <ellipse data-name="Ellipse 1777" cx="14.695" cy="14.103" rx="14.695" ry="14.103" transform="translate(13.229 4.403)"/>
                        <g data-name="Group 10796">
                            <path data-name="Path 2473" d="m1466.967 258.834-1.848 17.6h10.947l-1.891-17.782z" transform="translate(-1443.272 -223.158)" style="fill:#dc927b"/>
                            <path data-name="Path 2474" d="m1475.421 267.526 8.506 6.592-.929-8.853z" transform="translate(-1451.973 -228.742)" style="fill:#ad523f"/>
                        </g>
                        <g data-name="Group 10797">
                            <path data-name="Path 2475" d="M1434.721 69.242c-6.792 0-12.791 5.254-12.791 11.736l.391 7.778s.14 11.027 10.607 14.382a5.906 5.906 0 0 0 3.586 0c10.467-3.355 10.607-14.382 10.607-14.382l.391-7.778c0-6.478-5.999-11.736-12.791-11.736z" transform="translate(-1406.796 -63.19)" style="fill:#dc927b"/>
                        </g>
                        <g data-name="Group 10798">
                            <path data-name="Path 2476" d="M1487.634 234.864s.123 1.622 2.336 1.622 2.336-1.622 2.336-1.622z" transform="translate(-1462.287 -203.066)" style="fill:#fd5a62"/>
                            <path data-name="Path 2477" d="M1492.306 232.013a5.441 5.441 0 0 0-4.672 0 6.14 6.14 0 0 0 4.672 0z" transform="translate(-1462.287 -200.215)" style="fill:#fd5a62"/>
                            <path data-name="Path 2478" d="M1484.182 233.567a6.356 6.356 0 0 0 5.67 0" transform="translate(-1459.372 -201.971)" style="stroke:#ad523f;stroke-width:2.169px;stroke-linecap:round;stroke-linejoin:round;fill:none"/>
                        </g>
                        <path data-name="Path 2479" d="M34.018 5.619a8.153 8.153 0 0 1-6.962 7.124c-6.536.994-5.12 5.123-13.057 4.133 0 0-2.87-4.492 1.384-9.13 2.816-3.069 8.317-5.629 12.257-5.2 1.326.143 4.472 2.66 6.378 3.073z"/>
                        <path data-name="Path 2480" d="M33.257 6.382s-2.835 4.1 9.362 12.123c0 0 1.987-2.827.668-5.409s-10.03-6.714-10.03-6.714z"/>
                    </g>
                    <g data-name="Group 10800" transform="translate(41.744)">
                        <path data-name="Path 2481" d="M1369.836-38.549a.624.624 0 0 0 .261-.139.64.64 0 0 0 .189-.3.643.643 0 0 0 .022-.146v-.06.049l.01.078.02.155.033.309.056.619a41.11 41.11 0 0 1 .104 3.722 34.782 34.782 0 0 1-.478 4.969c-.067.413-.151.824-.238 1.237-.051.206-.09.413-.147.621-.022.1-.06.208-.091.313l-.025.08a.777.777 0 0 1-.051.111.748.748 0 0 1-.154.19.732.732 0 0 1-.441.182.732.732 0 0 1-.242-.025c-.046-.012-.059-.019-.087-.028l-.074-.026c-.2-.068-.393-.147-.589-.223-.388-.158-.789-.288-1.186-.442a13.436 13.436 0 0 1-4.427-2.808l1.8-.91a3.462 3.462 0 0 1 .2.8q.069.408.126.817c.066.547.118 1.094.141 1.642.053 1.1.018 2.18-.035 3.263a5.163 5.163 0 0 1-.334 1.68 2.184 2.184 0 0 1-.523.753 2.219 2.219 0 0 1-.8.454 2.575 2.575 0 0 1-.921.119 3.279 3.279 0 0 1-.464-.053l-.21-.042-.189-.033a6.971 6.971 0 0 1-.824-.163 2.735 2.735 0 0 1-.887-.43.712.712 0 0 1-.151-.994.711.711 0 0 1 .948-.183l.064.04a6.189 6.189 0 0 1 1.317 1.157 9.76 9.76 0 0 1 1 1.364 15.711 15.711 0 0 1 .783 1.478c.117.252.228.508.334.765s.181.529.308.782l-.516-.14a43.418 43.418 0 0 1 2.455-2.1q.632-.5 1.275-.987t1.3-.95a50.437 50.437 0 0 1 5.492-3.435 20.93 20.93 0 0 1 3.033-1.353 22.682 22.682 0 0 1 1.608-.447 11.55 11.55 0 0 1 1.656-.289 9.718 9.718 0 0 1 3.367.3 25.476 25.476 0 0 1 3.134 1.071l-.546.454a14.082 14.082 0 0 1-.517-2.686 6.213 6.213 0 0 1 .069-1.413 5.541 5.541 0 0 1 .415-1.367l.024-.053a.717.717 0 0 1 .951-.353.721.721 0 0 1 .38.887 2.811 2.811 0 0 1-.492.857 6.481 6.481 0 0 1-.59.6l-.139.131-.069.067c-.028.028-.054.057-.083.085a2.848 2.848 0 0 1-.365.3 2.492 2.492 0 0 1-.853.395 2.226 2.226 0 0 1-.922.034 2.187 2.187 0 0 1-.835-.35 5.2 5.2 0 0 1-1.193-1.212 27.153 27.153 0 0 1-1.837-2.694 13.438 13.438 0 0 1-1.292-3.01l1.736-.2a5.769 5.769 0 0 1-.513 1.915 18.985 18.985 0 0 1-.914 1.712c-.312.55-.625 1.091-.978 1.605s-.713 1.02-1.106 1.5a.234.234 0 0 1-.285.062h-.006a5.263 5.263 0 0 1-1.312-1.008c-.193-.187-.378-.38-.559-.575s-.364-.389-.54-.588c-.717-.786-1.4-1.6-2.04-2.441s-1.223-1.721-1.776-2.617q-.416-.671-.8-1.361a25.794 25.794 0 0 1-.375-.695l-.179-.352-.087-.178-.043-.09-.021-.045-.005-.011v-.006l.022.036a.644.644 0 0 0 .046.061.635.635 0 0 0 .336.2.622.622 0 0 0 .341-.01zm-.378-1.261a.7.7 0 0 1 .357 0 .7.7 0 0 1 .349.224l.085.123.026.04.054.081.106.163.21.328.412.66q.409.662.806 1.331.8 1.335 1.573 2.681c.51.9 1.024 1.8 1.589 2.668q.217.32.444.631c.156.2.315.4.48.6a7.189 7.189 0 0 0 .52.547 2.821 2.821 0 0 0 .57.434l-.291.059a8.524 8.524 0 0 0 1.068-1.441 7.916 7.916 0 0 0 .727-1.634 7.364 7.364 0 0 0 .26-1.754l.051-1.7a.883.883 0 0 1 .909-.855.883.883 0 0 1 .815.616l.013.04c.3.969.6 1.94.927 2.918a21.062 21.062 0 0 0 1.145 2.89 3.464 3.464 0 0 0 .877 1.16 1.41 1.41 0 0 0 .6.281 1.128 1.128 0 0 0 .642-.082 1.289 1.289 0 0 0 .5-.406 1.919 1.919 0 0 0 .17-.281l.035-.074.047-.093.1-.187c.13-.246.256-.47.351-.676a2.751 2.751 0 0 0 .2-.561l1.355.481c-.126.369-.241.738-.334 1.117a11.2 11.2 0 0 0-.23 1.164 7.272 7.272 0 0 0 .037 2.466v.023a.391.391 0 0 1-.307.46.391.391 0 0 1-.243-.03 7.86 7.86 0 0 0-2.978-.764c-.254-.021-.51-.009-.762-.01-.254.014-.5.021-.755.05-.5.038-1 .121-1.493.194-.248.044-.5.077-.745.128s-.5.092-.747.148c-.5.108-.994.247-1.48.39-.462.149-.946.342-1.416.546s-.946.421-1.415.651c-1.872.93-3.7 2-5.5 3.108s-3.574 2.282-5.3 3.519l-.04.028a.308.308 0 0 1-.43-.07.31.31 0 0 1-.047-.1 2.944 2.944 0 0 0-.338-.69 7.851 7.851 0 0 0-.434-.647 13.865 13.865 0 0 0-1-1.2c-.351-.381-.712-.746-1.073-1.1s-.731-.679-1.088-.969l.86-1.137a2.808 2.808 0 0 0 .471.374c.192.123.419.249.662.383l.183.1.09.052.071.044a1.621 1.621 0 0 0 .3.139 1.252 1.252 0 0 0 .649.044 1.221 1.221 0 0 0 .9-.874 3.484 3.484 0 0 0 .092-1.439 18.268 18.268 0 0 0-.616-3.041 27.46 27.46 0 0 0-.46-1.467q-.121-.363-.252-.721a3.751 3.751 0 0 1-.232-.722l-.039-.4a.969.969 0 0 1 .872-1.058.971.971 0 0 1 .966.545 8.8 8.8 0 0 0 3.108 3.42 5.191 5.191 0 0 0 1.059.572c.187.075.378.136.57.2l.072.024c.021.007.055.019.059.019a.185.185 0 0 0 .063.005.233.233 0 0 0 .118-.049.2.2 0 0 0 .041-.047.182.182 0 0 0 .015-.028l.023-.067c.03-.092.066-.18.089-.277a4.877 4.877 0 0 0 .126-.58 11.4 11.4 0 0 0 .1-1.2c.04-1.623-.12-3.253-.2-4.88l-.12-2.443-.049-1.223-.017-.612-.006-.305v-.335a.7.7 0 0 1 .021-.155.689.689 0 0 1 .188-.324.7.7 0 0 1 .259-.161z" transform="translate(-1358.676 40.502)" style="fill:#d6ae1e"/>
                        <circle data-name="Ellipse 1778" cx="1.166" cy="1.166" transform="translate(26.854 8.605)" style="fill:#d6ae1e" r="1.166"/>
                        <circle data-name="Ellipse 1779" cx="1.399" cy="1.399" transform="translate(19.682 3.261)" style="fill:#d6ae1e" r="1.399"/>
                        <circle data-name="Ellipse 1780" cx="1.166" cy="1.166" transform="translate(0 16.51)" style="fill:#d6ae1e" r="1.166"/>
                        <circle data-name="Ellipse 1781" cx="1.399" cy="1.399" transform="translate(2.761 7.926)" style="fill:#d6ae1e" r="1.399"/>
                        <circle data-name="Ellipse 1782" cx="1.679" cy="1.679" transform="translate(9.219)" style="fill:#d6ae1e" r="1.679"/>
                    </g>
                </g>
            </g>
            <g style="filter:url(#xijjf6ymua)">
                <path data-name="Path 2530" d="M390.162 226.957s1.872 9.563 9.49 12.022l4.9-2.429s-11.478-2.95-14.39-9.593z" transform="translate(-294.822 -170.202)" style="fill:#ff5d5d"/>
            </g>
            <g style="filter:url(#8k54t6y16b)">
                <path data-name="Path 2533" d="M0 0s1.872 9.563 9.49 12.022l4.9-2.429S2.912 6.645 0 0z" transform="rotate(95 -26.834 64.145)" style="fill:#ffc900"/>
            </g>
            <g style="filter:url(#1hmgcoeorc)">
                <path data-name="Path 2531" d="M64.1 190.56s-6.515-8.382-15.131-7.033l-3.573 4.767S58 185.527 64.1 190.56z" transform="translate(-33.392 -133.892)" style="fill:#f0f0f0"/>
            </g>
            <g style="filter:url(#k63a3c2und)">
                <path data-name="Path 2532" d="M306.227 87.893s7.936 4.382 14.242.422l1.2-4.944s-8.969 6.418-15.442 4.522z" transform="translate(-211.412 -62.162)" style="fill:#4cdfcb"/>
            </g>
            <g style="filter:url(#44143m3nde)">
                <path data-name="Path 2543" d="M306.227 87.893s7.936 4.382 14.242.422l1.2-4.944s-8.969 6.418-15.442 4.522z" transform="rotate(28.4 161.79 -341.504)" style="fill:#4cdfcb"/>
            </g>
            <path data-name="Path 2534" d="M174.336 143.126s-3.136-4.034-7.283-3.385l-1.719 2.294s6.066-1.335 9.002 1.091z" transform="translate(-143.929 -69.462)" style="fill:#fa5c43"/>
            <path data-name="Path 2535" d="M224.944 113.908s3.284 2.284 6.232.831l.75-2.116s-4.226 2.411-6.982 1.285z" transform="translate(-177.923 -54.038)" style="fill:#f54363"/>
            <path data-name="Path 2536" d="M210 158.719s4.273-.315 5.746-3.513l-.8-2.266s-1.889 4.86-4.946 5.779z" transform="translate(-169.402 -77.029)" style="fill:#ffdd5d"/>
            <path data-name="Path 2537" d="M174.336 143.126s-3.136-4.034-7.283-3.385l-1.719 2.294s6.066-1.335 9.002 1.091z" transform="translate(-128.222 -34.779)" style="fill:#fa5c43"/>
            <path data-name="Path 2538" d="M224.944 113.908s3.284 2.284 6.232.831l.75-2.116s-4.226 2.411-6.982 1.285z" transform="translate(-126.628 -30.835)" style="fill:#f54363"/>
            <path data-name="Path 2539" d="M210 158.719s4.273-.315 5.746-3.513l-.8-2.266s-1.889 4.86-4.946 5.779z" transform="translate(-118.107 -53.827)" style="fill:#ffdd5d"/>
            <path data-name="Path 2540" d="M136.622 235.3s-4.774-1.819-7.981.889l-.278 2.853s4.495-4.293 8.259-3.742z" transform="translate(-101.996 -202.26)" style="fill:#4cdfcb"/>
            <path data-name="Path 2541" d="M178.135 273.952s-2.085-3.414-5.368-3.273l-1.539 1.634s4.838-.504 6.907 1.639z" transform="translate(-63.665 -221.138)" style="fill:#f54363"/>
            <path data-name="Path 2542" d="M133.58 296.63s2.7-.2 3.627-2.217l-.507-1.431s-1.193 3.065-3.12 3.648z" transform="translate(-42.195 -233.859)" style="fill:#ffdd5d"/>
            <g style="filter:url(#vwjyyo89of)">
                <path data-name="Path 2544" d="M57.569 106.154a4.891 4.891 0 0 0 4.626-3.287 9.2 9.2 0 0 0 7.58-9.051.931.931 0 0 0-.931-.931H44.3a.931.931 0 0 0-.931.931 9.2 9.2 0 0 0 7.58 9.051 4.891 4.891 0 0 0 4.626 3.287h.067v3.68h-4.549a.931.931 0 0 0-.931.931v6.28h-.936a.931.931 0 1 0 0 1.863h14.691a.931.931 0 1 0 0-1.863h-.936v-6.28a.931.931 0 0 0-.931-.931H57.5v-3.68zm10.284-11.407a7.337 7.337 0 0 1-5.315 6.134l.675-6.134zm-22.563 0h4.64l.675 6.134a7.337 7.337 0 0 1-5.315-6.134z" transform="translate(8.778 -1.012)" style="fill:#ffb203"/>
            </g>
        </g>
    </g>
</svg>
