<svg xmlns="http://www.w3.org/2000/svg" width="39.037" height="39.037" viewBox="0 0 39.037 39.037">
  <g id="Group_12734" data-name="Group 12734" transform="translate(-295.5 -221.5)">
    <g id="Group_12732" data-name="Group 12732" transform="translate(296 222)">
      <path id="Union_2" data-name="Union 2" d="M18.05,38.012h-.022A19.022,19.022,0,0,1,.138,21.317c0-.005,0-.011,0-.016A19.257,19.257,0,0,1,0,18.992,19.019,19.019,0,1,1,19.235,38.036h-.211Q18.534,38.037,18.05,38.012Z" transform="translate(0)" fill="#0d8700" stroke="rgba(0,0,0,0)" stroke-miterlimit="10" stroke-width="1"/>
    </g>
    <path id="Icon_ionic-ios-send" data-name="Icon ionic-ios-send" d="M26.188,4.553,4.78,13.884a.491.491,0,0,0,.017.892l5.791,3.272a.934.934,0,0,0,1.067-.1L23.074,8.1c.076-.064.257-.187.327-.117s-.041.251-.1.327L13.417,19.435a.931.931,0,0,0-.093,1.114l3.785,6.071a.493.493,0,0,0,.886-.012L26.847,5.2A.491.491,0,0,0,26.188,4.553Z" transform="translate(298.578 226.151)" fill="#fff"/>
  </g>
</svg>
