<svg xmlns="http://www.w3.org/2000/svg" width="20.531" height="20.616" viewBox="0 0 20.531 20.616">
  <path id="list_1_" data-name="list (1)" d="M8.018,14.491h2.726V16.1H8.018Zm-3.007-.2a1.006,1.006,0,1,0,1,1.006A1,1,0,0,0,5.011,14.29Zm11.1-4.911h-8.1v1.61h8.1Zm-11.1-.2a1.006,1.006,0,1,0,1,1.006A1,1,0,0,0,5.011,9.178Zm11.1-4.629h-8.1v1.61h8.1Zm-11.1-.2a1.006,1.006,0,1,0,1,1.006A1,1,0,0,0,5.011,4.347ZM1.6,18.195V2.415a.8.8,0,0,1,.8-.805H17.124a.8.8,0,0,1,.8.805v9.1h1.6v-9.1A2.413,2.413,0,0,0,17.124,0H2.405A2.413,2.413,0,0,0,0,2.415v15.78A2.413,2.413,0,0,0,2.405,20.61h9.26V19H2.405A.8.8,0,0,1,1.6,18.195ZM19.4,20.616l-1.6-1.6a3.575,3.575,0,0,1-1.845.511A3.621,3.621,0,1,1,18.961,17.9l1.569,1.576Zm-3.442-2.7a2.013,2.013,0,1,0-2-2.013A2.011,2.011,0,0,0,15.955,17.913Zm0,0" fill="#004f9e"/>
</svg>
