<svg id="order_pending" xmlns="http://www.w3.org/2000/svg" width="168" height="168" viewBox="0 0 168 168">
  <g id="signature">
    <path id="Path_1889" data-name="Path 1889" d="M167.988,82.6A83.856,83.856,0,0,1,135.3,150.514,157.589,157.589,0,0,1,32.8,150.23l-.836-.29A84,84,0,1,1,167.988,82.6Z" transform="translate(0 0)" fill="#09316d"/>
    <path id="Path_1890" data-name="Path 1890" d="M168,170.672a83.857,83.857,0,0,1-32.7,66.514A157.589,157.589,0,0,1,32.8,236.9l-.836-.29A84.036,84.036,0,0,1,11.051,129a84.024,84.024,0,0,0,145.9,0A83.6,83.6,0,0,1,168,170.672Z" transform="translate(0 -86.672)" fill="#2359aa"/>
    <path id="Path_1891" data-name="Path 1891" d="M200.743,119.916V228.292a83.636,83.636,0,0,1-51.3,17.483c-.125,0-.246,0-.371,0A83.619,83.619,0,0,1,97.4,227.716v-107.8a4.156,4.156,0,0,1,4.156-4.156h95.03a4.156,4.156,0,0,1,4.156,4.156Z" transform="translate(-65.441 -77.776)" fill="#fff"/>
    <path id="Path_1892" data-name="Path 1892" d="M306.543,119.916V228.292a83.642,83.642,0,0,1-51.669,17.483l0,0V115.76h47.517a4.156,4.156,0,0,1,4.156,4.156Z" transform="translate(-171.241 -77.776)" fill="#d1f6ff"/>
  </g>
  <g id="time" transform="translate(56.059 72.195)">
    <g id="Group_10299" data-name="Group 10299" transform="translate(0)">
      <path id="Path_1896" data-name="Path 1896" d="M124.819,71.626h-2.5V58.3a22.494,22.494,0,0,0-12.232-19.989A22.48,22.48,0,0,0,122.32,18.323V5h2.5a2.5,2.5,0,1,0,0-5H74.847a2.5,2.5,0,1,0,0,5h2.5V18.323A22.48,22.48,0,0,0,89.577,38.312,22.494,22.494,0,0,0,77.345,58.3V71.627h-2.5a2.5,2.5,0,1,0,0,5h49.972a2.5,2.5,0,0,0,0-5Zm-42.4-51.8c-.122-1.423-.076-.817-.076-14.834h34.98c0,14.017.046,13.411-.076,14.834Zm34.9,48.96c-13.784-11.487-13.281-11.28-14.992-11.884v-2.77a2.5,2.5,0,1,0-5,0v2.77c-1.692.6-1.163.36-14.992,11.884V58.3A17.5,17.5,0,0,1,97.334,41.01v3.132a2.5,2.5,0,1,0,5,0V41.01A17.5,17.5,0,0,1,117.323,58.3Z" transform="translate(-72.348)" fill="#09316d"/>
    </g>
  </g>
  <path id="Subtraction_16" data-name="Subtraction 16" d="M16.44,15A16.535,16.535,0,0,1,5.229,10.648,16.2,16.2,0,0,1,0,0H32.88a16.2,16.2,0,0,1-5.228,10.648A16.536,16.536,0,0,1,16.44,15Z" transform="translate(67.061 94.684)" fill="#2359aa"/>
  <path id="Polygon_11" data-name="Polygon 11" d="M15.206,1.1a2,2,0,0,1,2.588,0l11.052,9.377A2,2,0,0,1,27.552,14H5.448a2,2,0,0,1-1.294-3.525Z" transform="translate(67.229 129.684)" fill="#2359aa"/>
</svg>
