<svg xmlns="http://www.w3.org/2000/svg" width="126" height="126" viewBox="0 0 126 126">
    <defs>
        <filter id="uxutpqs3na" x="0" y="0" width="126" height="126" filterUnits="userSpaceOnUse">
            <feOffset dy="6"/>
            <feGaussianBlur stdDeviation="10" result="blur"/>
            <feFlood flood-color="#042b52"/>
            <feComposite operator="in" in2="blur"/>
            <feComposite in="SourceGraphic"/>
        </filter>
    </defs>
    <g style="filter:url(#uxutpqs3na)">
        <path data-name="Path 1942" d="M66 33a33.115 33.115 0 0 1-.814 7.314A32.781 32.781 0 0 1 61 50.474q-.123.2-.25.4A32.987 32.987 0 0 1 .018 34.061 28.767 28.767 0 0 1 0 33a33.034 33.034 0 0 1 1.312-9.245 32.987 32.987 0 0 1 3.941-8.625 33 33 0 0 1 59.824 10.089 32.441 32.441 0 0 1 .638 3.435 33.145 33.145 0 0 1 .272 3.435c.013.302.013.605.013.911z" transform="translate(30 24)" style="fill:#004f9e"/>
    </g>
    <path data-name="Path 1943" d="M96.245 16.469v34.4a33.007 33.007 0 0 1-55.494 0V2.939A2.939 2.939 0 0 1 43.69 0h36.086z" transform="translate(-5.498 24)" style="fill:#f9eed7"/>
    <path data-name="Path 1944" d="M343.489 13.53V0l16.469 16.469h-13.53a2.939 2.939 0 0 1-2.939-2.939z" transform="translate(-269.211 24)" style="fill:#e8dbc4"/>
    <path data-name="Path 1945" d="M96.245 330.961v8.207a33.007 33.007 0 0 1-55.494 0v-8.207z" transform="translate(-5.498 -264.298)" style="fill:#ff525d"/>
    <path data-name="Path 1946" d="M135.441 75.358a4.011 4.011 0 0 1-1.313-.216 2.7 2.7 0 0 1-1.913-2.252c-.17-1.431.684-3.814 5.715-7.037a25.16 25.16 0 0 1 4.436-2.255l.459-.865c1.153-2.172 2.492-4.694 3.557-7.142a25.07 25.07 0 0 1-2.794-8.628c0-1.993 1.119-3.586 2.66-3.788.62-.081 2.722-.055 3.724 3.7.617 2.313-.178 5.4-1.5 8.631.363.664.769 1.344 1.222 2.024a36.931 36.931 0 0 0 3.255 4.182c4.868.029 8.637 1.181 9.594 1.8a3.032 3.032 0 0 1 1.374 3.7c-.715 1.766-2.656 2.056-4.1 1.767-2.087-.417-4.415-2.246-6-3.707a34.692 34.692 0 0 1-1.673-1.655 27.129 27.129 0 0 0-8.445 1.508c-.254.484-.494.948-.716 1.387-.308.676-2.72 5.9-4.341 7.521a4.572 4.572 0 0 1-3.201 1.325zm5.571-9.093a22.712 22.712 0 0 0-2.065 1.175c-4.847 3.105-4.9 4.9-4.86 5.227a.853.853 0 0 0 .658.693 2.608 2.608 0 0 0 2.555-.66c1.064-1.064 2.849-4.6 3.712-6.434zm13.85-2.587c1.992 1.873 3.926 3.171 5.319 3.449 1.181.237 1.806-.189 1.983-.626a1.2 1.2 0 0 0-.648-1.406 19.225 19.225 0 0 0-6.654-1.416zm-7.336-6.033c-.805 1.729-1.706 3.459-2.572 5.093a28.783 28.783 0 0 1 5.569-.947 38.191 38.191 0 0 1-2.4-3.215q-.311-.461-.597-.93zm-.968-12.606a.5.5 0 0 0-.066 0c-.491.064-1.02.816-1.02 1.918a16.193 16.193 0 0 0 .963 3.949c.225.65.52 1.429.9 2.286.805-2.271 1.215-4.342.816-5.836-.433-1.613-1.098-2.316-1.592-2.316z" transform="translate(-85.154 -13.593)" style="fill:#5c5e70"/>
    <g data-name="Group 10356">
        <path data-name="Path 1947" d="M135.128 360.73a.893.893 0 0 1 .993-.8h3.542c2.259 0 4.038 1.061 4.038 3.936v.086c0 2.875-1.848 3.97-4.21 3.97H137.8v3.7c0 .548-.667.821-1.335.821s-1.335-.274-1.335-.821zm2.67 1.523v3.611h1.694c.958 0 1.54-.547 1.54-1.711v-.188c0-1.164-.582-1.711-1.54-1.711z" transform="translate(-87.709 -289.529)" style="fill:#f9eed7"/>
        <path data-name="Path 1948" d="M228.133 359.926c2.361 0 4.21 1.1 4.21 4.038v4.436c0 2.943-1.848 4.038-4.21 4.038H225.1c-.7 0-1.164-.377-1.164-.8v-10.9c0-.428.462-.8 1.164-.8zm-1.523 2.327v7.854h1.523c.958 0 1.54-.548 1.54-1.711v-4.432c0-1.164-.582-1.711-1.54-1.711z" transform="translate(-165.073 -289.529)" style="fill:#f9eed7"/>
        <path data-name="Path 1949" d="M315.541 360.746c0-.547.582-.821 1.164-.821h5.938c.565 0 .8.6.8 1.146 0 .633-.291 1.181-.8 1.181h-4.432v2.892h2.584c.513 0 .8.5.8 1.044 0 .462-.24 1.01-.8 1.01h-2.584v4.415c0 .547-.667.821-1.335.821s-1.335-.274-1.335-.821v-10.866z" transform="translate(-244.866 -289.528)" style="fill:#f9eed7"/>
    </g>
</svg>
