<svg id="pending_grey" xmlns="http://www.w3.org/2000/svg" width="39" height="39" viewBox="0 0 39 39">
  <g id="Ellipse_119" data-name="Ellipse 119" fill="#c9c9c9" stroke="#707070" stroke-width="1">
    <circle cx="19.5" cy="19.5" r="19.5" stroke="none"/>
    <circle cx="19.5" cy="19.5" r="19" fill="none"/>
  </g>
  <g id="time" transform="translate(12.864 8.49)">
    <g id="Group_10299" data-name="Group 10299" transform="translate(0)">
      <path id="Path_1896" data-name="Path 1896" d="M86.5,19.317h-.674V15.723a6.067,6.067,0,0,0-3.3-5.391,6.063,6.063,0,0,0,3.3-5.391V1.348H86.5A.674.674,0,1,0,86.5,0H73.022a.674.674,0,1,0,0,1.348H73.7V4.942a6.063,6.063,0,0,0,3.3,5.391,6.066,6.066,0,0,0-3.3,5.391v3.594h-.674a.674.674,0,1,0,0,1.348H86.5a.674.674,0,0,0,0-1.348ZM75.064,5.348c-.033-.384-.021-.22-.021-4h9.434c0,3.78.012,3.617-.021,4Zm9.413,13.2c-3.717-3.1-3.582-3.042-4.043-3.205V14.6a.674.674,0,1,0-1.348,0v.747c-.456.161-.314.1-4.043,3.205V15.723a4.72,4.72,0,0,1,4.043-4.663V11.9a.674.674,0,1,0,1.348,0V11.06a4.72,4.72,0,0,1,4.043,4.663Z" transform="translate(-72.348)"/>
    </g>
  </g>
</svg>
