<svg xmlns="http://www.w3.org/2000/svg" xmlns:xlink="http://www.w3.org/1999/xlink" width="137" height="137" viewBox="0 0 137 137">
  <defs>
    <filter id="Ellipse_1904" x="0" y="0" width="137" height="137" filterUnits="userSpaceOnUse">
      <feOffset dy="3" input="SourceAlpha"/>
      <feGaussianBlur stdDeviation="3" result="blur"/>
      <feFlood flood-opacity="0.161"/>
      <feComposite operator="in" in2="blur"/>
      <feComposite in="SourceGraphic"/>
    </filter>
  </defs>
  <g id="Group_13618" data-name="Group 13618" transform="translate(-112 -63)">
    <g id="Group_13614" data-name="Group 13614" transform="translate(97)">
      <g id="form_submit" data-name="form submit" transform="translate(15.4 60.4)">
        <g id="Group_13594" data-name="Group 13594" transform="translate(8.6 8.6)">
          <g transform="matrix(1, 0, 0, 1, -9, -6)" filter="url(#Ellipse_1904)">
            <circle id="Ellipse_1904-2" data-name="Ellipse 1904" cx="59.5" cy="59.5" r="59.5" transform="translate(9 6)" fill="#004f9e"/>
          </g>
          <circle id="Ellipse_1905" data-name="Ellipse 1905" cx="51.477" cy="51.477" r="51.477" transform="translate(8.024 8.024)" fill="#3998ab"/>
        </g>
        <g id="Group_13595" data-name="Group 13595" transform="translate(43.517 36.083)">
          <path id="Path_4917" data-name="Path 4917" d="M127.836,69.066a2.99,2.99,0,0,0-2.99-2.99H113.14a2.989,2.989,0,0,0-1.666-.944v-.385a1,1,0,0,0-1-1H96.026a1,1,0,0,0-1,1v.385a2.989,2.989,0,0,0-1.666.944H81.658a2.99,2.99,0,0,0-2.99,2.99v62.706a2.99,2.99,0,0,0,2.99,2.99h43.188a2.99,2.99,0,0,0,2.99-2.99V69.066Z" transform="translate(-78.668 -63.75)" fill="#004f9e"/>
        </g>
        <g id="Group_13609" data-name="Group 13609" transform="translate(43.516 32.594)">
          <g id="Group_13605" data-name="Group 13605">
            <path id="Path_4918" data-name="Path 4918" d="M124.845,132.109H81.657a2.99,2.99,0,0,1-2.99-2.99V68.407a2.99,2.99,0,0,1,2.99-2.99h43.188a2.99,2.99,0,0,1,2.99,2.99v60.712A2.991,2.991,0,0,1,124.845,132.109Z" transform="translate(-78.667 -61.098)" fill="#e7ad27"/>
            <path id="Path_4919" data-name="Path 4919" d="M124.845,128.109H81.657a2.99,2.99,0,0,1-2.99-2.99V64.407a2.99,2.99,0,0,1,2.99-2.99h43.188a2.99,2.99,0,0,1,2.99,2.99v60.712A2.991,2.991,0,0,1,124.845,128.109Z" transform="translate(-78.667 -59.091)" fill="#fede3a"/>
            <path id="Path_4920" data-name="Path 4920" d="M125.867,130.135H88.326a1.993,1.993,0,0,1-1.993-1.993V73.16a1.993,1.993,0,0,1,1.993-1.993h37.54a1.993,1.993,0,0,1,1.993,1.993v54.982A1.993,1.993,0,0,1,125.867,130.135Z" transform="translate(-82.513 -63.983)" fill="#d1d3d4"/>
            <path id="Path_4921" data-name="Path 4921" d="M125.867,128.135H88.326a1.993,1.993,0,0,1-1.993-1.993V71.16a1.993,1.993,0,0,1,1.993-1.993h37.54a1.993,1.993,0,0,1,1.993,1.993v54.982A1.993,1.993,0,0,1,125.867,128.135Z" transform="translate(-82.513 -62.979)" fill="#fff"/>
            <path id="Path_4922" data-name="Path 4922" d="M125.935,69.167v1.827a1,1,0,0,1-1,1H109.615a1,1,0,0,1-1-1V69.167h-1.993v1.827a2.993,2.993,0,0,0,2.99,2.99h15.324a2.993,2.993,0,0,0,2.99-2.99V69.167Z" transform="translate(-92.693 -62.979)" fill="#e6e7e8"/>
            <g id="Group_13596" data-name="Group 13596" transform="translate(13.932 1.329)">
              <path id="Path_4923" data-name="Path 4923" d="M124.938,68.1H109.615a2.993,2.993,0,0,1-2.99-2.99v-2.7a2.993,2.993,0,0,1,2.99-2.99h15.324a2.993,2.993,0,0,1,2.99,2.99v2.7A2.993,2.993,0,0,1,124.938,68.1ZM109.615,61.41a1,1,0,0,0-1,1v2.7a1,1,0,0,0,1,1h15.324a1,1,0,0,0,1-1v-2.7a1,1,0,0,0-1-1Z" transform="translate(-106.625 -59.417)" fill="#1caee4"/>
            </g>
            <path id="Path_4924" data-name="Path 4924" d="M125.942,61.417H110.618a1.993,1.993,0,0,0-1.993,1.993v2.7a1.993,1.993,0,0,0,1.993,1.993h15.324a1.993,1.993,0,0,0,1.993-1.993v-2.7A1.993,1.993,0,0,0,125.942,61.417Zm1,4.692a1,1,0,0,1-1,1H110.618a1,1,0,0,1-1-1v-2.7a1,1,0,0,1,1-1h15.324a1,1,0,0,1,1,1Z" transform="translate(-93.696 -59.091)" fill="#009add"/>
            <path id="Path_4925" data-name="Path 4925" d="M126.948,61.4H112.5a1,1,0,0,1-1-1V57.747a1,1,0,0,1,1-1h14.451a1,1,0,0,1,1,1V60.4A1,1,0,0,1,126.948,61.4Z" transform="translate(-95.138 -56.75)" fill="#1caee4"/>
            <path id="Path_4926" data-name="Path 4926" d="M126.948,56.75H112.5a1,1,0,0,0-1,1v.727a1,1,0,0,1,1-1h14.451a1,1,0,0,1,1,1v-.727A1,1,0,0,0,126.948,56.75Z" transform="translate(-95.138 -56.75)" fill="#27c1e6"/>
            <path id="Path_4927" data-name="Path 4927" d="M126.948,61.143H112.5a1,1,0,0,1-1-1v1.962a1,1,0,0,0,1,1h14.451a1,1,0,0,0,1-1V60.146A1,1,0,0,1,126.948,61.143Z" transform="translate(-95.138 -58.454)" fill="#009add"/>
            <g id="Group_13600" data-name="Group 13600" transform="translate(8.577 13.57)">
              <path id="Path_4928" data-name="Path 4928" d="M126.9,105.756H96.877a1,1,0,0,1-1-1V93.432a1,1,0,0,1,1-1H126.9a1,1,0,0,1,1,1V104.76A1,1,0,0,1,126.9,105.756Z" transform="translate(-95.879 -88.222)" fill="#e6e7e8"/>
              <g id="Group_13597" data-name="Group 13597">
                <path id="Path_4929" data-name="Path 4929" d="M107.336,85.915H96.846a.967.967,0,0,1-.967-.967h0a.967.967,0,0,1,.967-.967h10.489a.967.967,0,0,1,.967.967h0A.966.966,0,0,1,107.336,85.915Z" transform="translate(-95.879 -83.981)" fill="#d1d3d4"/>
              </g>
              <g id="Group_13598" data-name="Group 13598" transform="translate(14.417)">
                <path id="Path_4930" data-name="Path 4930" d="M131.039,85.915h-5.261a.967.967,0,0,1-.967-.967h0a.967.967,0,0,1,.967-.967h5.261a.967.967,0,0,1,.967.967h0A.967.967,0,0,1,131.039,85.915Z" transform="translate(-124.81 -83.981)" fill="#d1d3d4"/>
              </g>
              <path id="Path_4931" data-name="Path 4931" d="M116.494,98.346H101.669a.967.967,0,0,1-.967-.967h0a.967.967,0,0,1,.967-.967h14.825a.967.967,0,0,1,.967.967h0A.968.968,0,0,1,116.494,98.346Z" transform="translate(-98.299 -90.217)" fill="#bcbec0"/>
              <path id="Path_4932" data-name="Path 4932" d="M111.749,112.58h-10.08a.967.967,0,0,1-.967-.967h0a.967.967,0,0,1,.967-.967h10.08a.967.967,0,0,1,.967.967h0A.967.967,0,0,1,111.749,112.58Z" transform="translate(-98.299 -97.358)" fill="#bcbec0"/>
              <path id="Path_4933" data-name="Path 4933" d="M145.143,98.346H139.3a.967.967,0,0,1-.967-.967h0a.967.967,0,0,1,.967-.967h5.841a.967.967,0,0,1,.967.967h0A.968.968,0,0,1,145.143,98.346Z" transform="translate(-117.178 -90.217)" fill="#bcbec0"/>
              <g id="Group_13599" data-name="Group 13599" transform="translate(2.379 9.741)">
                <path id="Path_4934" data-name="Path 4934" d="M123.373,105.462H101.619a.967.967,0,0,1-.967-.967h0a.967.967,0,0,1,.967-.967h21.754a.967.967,0,0,1,.967.967h0A.968.968,0,0,1,123.373,105.462Z" transform="translate(-100.652 -103.528)" fill="#bcbec0"/>
              </g>
            </g>
            <g id="Group_13604" data-name="Group 13604" transform="translate(8.577 42.39)">
              <path id="Path_4935" data-name="Path 4935" d="M126.9,163.589H96.877a1,1,0,0,1-1-1V151.265a1,1,0,0,1,1-1H126.9a1,1,0,0,1,1,1v11.328A1,1,0,0,1,126.9,163.589Z" transform="translate(-95.879 -146.055)" fill="#e6e7e8"/>
              <g id="Group_13601" data-name="Group 13601">
                <path id="Path_4936" data-name="Path 4936" d="M115.217,143.749H96.846a.967.967,0,0,1-.967-.967h0a.967.967,0,0,1,.967-.967h18.37a.967.967,0,0,1,.967.967h0A.967.967,0,0,1,115.217,143.749Z" transform="translate(-95.879 -141.814)" fill="#d1d3d4"/>
              </g>
              <g id="Group_13602" data-name="Group 13602" transform="translate(22.298)">
                <path id="Path_4937" data-name="Path 4937" d="M145.451,143.749h-3.859a.967.967,0,0,1-.967-.967h0a.967.967,0,0,1,.967-.967h3.859a.967.967,0,0,1,.967.967h0A.967.967,0,0,1,145.451,143.749Z" transform="translate(-140.625 -141.814)" fill="#d1d3d4"/>
              </g>
              <path id="Path_4938" data-name="Path 4938" d="M116.494,156.51H101.669a.967.967,0,0,1-.967-.967h0a.967.967,0,0,1,.967-.967h14.825a.967.967,0,0,1,.967.967h0A.968.968,0,0,1,116.494,156.51Z" transform="translate(-98.299 -148.216)" fill="#bcbec0"/>
              <path id="Path_4939" data-name="Path 4939" d="M111.749,170.743h-10.08a.967.967,0,0,1-.967-.967h0a.967.967,0,0,1,.967-.967h10.08a.967.967,0,0,1,.967.967h0A.967.967,0,0,1,111.749,170.743Z" transform="translate(-98.299 -155.357)" fill="#bcbec0"/>
              <path id="Path_4940" data-name="Path 4940" d="M145.143,156.51H139.3a.967.967,0,0,1-.967-.967h0a.967.967,0,0,1,.967-.967h5.841a.967.967,0,0,1,.967.967h0A.968.968,0,0,1,145.143,156.51Z" transform="translate(-117.178 -148.216)" fill="#bcbec0"/>
              <g id="Group_13603" data-name="Group 13603" transform="translate(2.379 9.906)">
                <path id="Path_4941" data-name="Path 4941" d="M123.373,163.628H101.619a.967.967,0,0,1-.967-.967h0a.967.967,0,0,1,.967-.967h21.754a.967.967,0,0,1,.967.967h0A.968.968,0,0,1,123.373,163.628Z" transform="translate(-100.652 -161.693)" fill="#bcbec0"/>
              </g>
            </g>
            <rect id="Rectangle_1556" data-name="Rectangle 1556" width="41.527" height="1.412" transform="translate(3.82 36.668)" fill="#e6e7e8"/>
          </g>
        </g>
      </g>
      <circle id="Ellipse_1910" data-name="Ellipse 1910" cx="15.3" cy="15.3" r="15.3" transform="translate(95 123.25)" fill="#bcbec0"/>
      <circle id="Ellipse_1909" data-name="Ellipse 1909" cx="14.116" cy="14.116" r="14.116" transform="translate(96.184 124.433)" fill="#fff"/>
      <g id="Group_13617" data-name="Group 13617" transform="translate(102.103 127.985)">
        <g id="time" transform="translate(2.368 0)">
          <g id="Group_10299" data-name="Group 10299" transform="translate(0)">
            <path id="Path_1896" data-name="Path 1896" d="M86.456,19.259h-.672V15.676A6.048,6.048,0,0,0,82.5,10.3a6.044,6.044,0,0,0,3.289-5.374V1.344h.672a.672.672,0,1,0,0-1.344H73.02a.672.672,0,1,0,0,1.344h.672V4.927A6.044,6.044,0,0,0,76.98,10.3a6.048,6.048,0,0,0-3.289,5.374v3.583H73.02a.672.672,0,1,0,0,1.344H86.456a.672.672,0,0,0,0-1.344ZM75.056,5.332c-.033-.383-.021-.22-.021-3.988h9.405c0,3.769.012,3.606-.021,3.988ZM84.441,18.5c-3.706-3.089-3.571-3.033-4.031-3.2v-.745a.672.672,0,0,0-1.344,0V15.3c-.455.161-.313.1-4.031,3.2V15.676a4.706,4.706,0,0,1,4.031-4.649v.842a.672.672,0,0,0,1.344,0v-.842a4.706,4.706,0,0,1,4.031,4.649Z" transform="translate(-72.348 0)" fill="#d1d3d4"/>
          </g>
        </g>
        <g id="time-2" data-name="time" transform="translate(1.184 0)">
          <g id="Group_10299-2" data-name="Group 10299" transform="translate(0)">
            <path id="Path_1896-2" data-name="Path 1896" d="M86.456,19.259h-.672V15.676A6.048,6.048,0,0,0,82.5,10.3a6.044,6.044,0,0,0,3.289-5.374V1.344h.672a.672.672,0,1,0,0-1.344H73.02a.672.672,0,1,0,0,1.344h.672V4.927A6.044,6.044,0,0,0,76.98,10.3a6.048,6.048,0,0,0-3.289,5.374v3.583H73.02a.672.672,0,1,0,0,1.344H86.456a.672.672,0,0,0,0-1.344ZM75.056,5.332c-.033-.383-.021-.22-.021-3.988h9.405c0,3.769.012,3.606-.021,3.988ZM84.441,18.5c-3.706-3.089-3.571-3.033-4.031-3.2v-.745a.672.672,0,0,0-1.344,0V15.3c-.455.161-.313.1-4.031,3.2V15.676a4.706,4.706,0,0,1,4.031-4.649v.842a.672.672,0,0,0,1.344,0v-.842a4.706,4.706,0,0,1,4.031,4.649Z" transform="translate(-72.348 0)" fill="#004f9e"/>
          </g>
        </g>
        <g id="time-3" data-name="time" transform="translate(0 0)">
          <g id="Group_10299-3" data-name="Group 10299" transform="translate(0)">
            <path id="Path_1896-3" data-name="Path 1896" d="M86.456,19.259h-.672V15.676A6.048,6.048,0,0,0,82.5,10.3a6.044,6.044,0,0,0,3.289-5.374V1.344h.672a.672.672,0,1,0,0-1.344H73.02a.672.672,0,1,0,0,1.344h.672V4.927A6.044,6.044,0,0,0,76.98,10.3a6.048,6.048,0,0,0-3.289,5.374v3.583H73.02a.672.672,0,1,0,0,1.344H86.456a.672.672,0,0,0,0-1.344ZM75.056,5.332c-.033-.383-.021-.22-.021-3.988h9.405c0,3.769.012,3.606-.021,3.988ZM84.441,18.5c-3.706-3.089-3.571-3.033-4.031-3.2v-.745a.672.672,0,0,0-1.344,0V15.3c-.455.161-.313.1-4.031,3.2V15.676a4.706,4.706,0,0,1,4.031-4.649v.842a.672.672,0,0,0,1.344,0v-.842a4.706,4.706,0,0,1,4.031,4.649Z" transform="translate(-72.348 0)" fill="#27c1e6"/>
          </g>
        </g>
      </g>
    </g>
  </g>
</svg>
