<svg xmlns="http://www.w3.org/2000/svg" width="7.857" height="13.1" viewBox="0 0 7.857 13.1">
    <g data-name="Group 9966">
        <g data-name="Group 9965">
            <path data-name="Path 1767" d="M207.019 25.6H205a.2.2 0 0 0 0 .4h2.017a.2.2 0 1 0 0-.4z" transform="translate(-202.083 -24.495)" style="fill:#fff;stroke:#fff"/>
        </g>
    </g>
    <g data-name="Group 9968">
        <g data-name="Group 9967">
            <path data-name="Path 1768" d="M341.737 25.6h-.2a.2.2 0 1 0 0 .4h.2a.2.2 0 1 0 0-.4z" transform="translate(-335.389 -24.495)" style="fill:#fff;stroke:#fff"/>
        </g>
    </g>
    <g data-name="Group 9970">
        <g data-name="Group 9969">
            <path data-name="Path 1769" d="M222.924 435.2h-.5a.557.557 0 0 0-.556.556v.1a.557.557 0 0 0 .556.556h.5a.557.557 0 0 0 .556-.556v-.1a.557.557 0 0 0-.556-.556zm.153.654a.153.153 0 0 1-.153.153h-.5a.153.153 0 0 1-.153-.153v-.1a.153.153 0 0 1 .153-.153h.5a.153.153 0 0 1 .153.153z" transform="translate(-218.745 -424.415)" style="fill:#fff;stroke:#fff"/>
        </g>
    </g>
    <g data-name="Group 9972">
        <g data-name="Group 9971">
            <path data-name="Path 1770" d="M117.061 0h-5.4a.73.73 0 0 0-.729.729v10.642a.73.73 0 0 0 .729.729h5.4a.73.73 0 0 0 .729-.729V.729a.73.73 0 0 0-.729-.729zm.325 11.371a.326.326 0 0 1-.325.326h-5.4a.326.326 0 0 1-.326-.325V.729a.326.326 0 0 1 .327-.329h5.4a.326.326 0 0 1 .326.326v10.645z" transform="translate(-110.433 .5)" style="fill:#fff;stroke:#fff"/>
        </g>
    </g>
    <g data-name="Group 9974">
        <g data-name="Group 9973">
            <path data-name="Path 1771" d="M117.589 51.2h-6.453a.2.2 0 0 0-.2.2v8.47a.2.2 0 0 0 .2.2h6.453a.2.2 0 0 0 .2-.2V51.4a.2.2 0 0 0-.2-.2zm-.2 8.47h-6.05V51.6h6.05z" transform="translate(-110.434 -49.49)" style="fill:#fff;stroke:#fff"/>
        </g>
    </g>
</svg>
