<svg xmlns="http://www.w3.org/2000/svg" xmlns:xlink="http://www.w3.org/1999/xlink" width="38.755" height="38.755" viewBox="0 0 38.755 38.755">
  <defs>
    <filter id="Path_2121" x="0" y="0" width="38.755" height="38.755" filterUnits="userSpaceOnUse">
      <feOffset dy="3" input="SourceAlpha"/>
      <feGaussianBlur stdDeviation="3" result="blur"/>
      <feFlood flood-opacity="0.161"/>
      <feComposite operator="in" in2="blur"/>
      <feComposite in="SourceGraphic"/>
    </filter>
  </defs>
  <g id="phone" transform="translate(9 6)">
    <g id="Group_10631" data-name="Group 10631">
      <g transform="matrix(1, 0, 0, 1, -9, -6)" filter="url(#Path_2121)">
        <path id="Path_2121-2" data-name="Path 2121" d="M19.117,13.666a11.866,11.866,0,0,1-3.723-.592,1.6,1.6,0,0,0-1.62.343L11.418,15.2A13.161,13.161,0,0,1,5.56,9.34l1.731-2.3A1.653,1.653,0,0,0,7.7,5.368a11.861,11.861,0,0,1-.6-3.729A1.641,1.641,0,0,0,5.462,0H1.639A1.641,1.641,0,0,0,0,1.639,19.139,19.139,0,0,0,19.117,20.755a1.641,1.641,0,0,0,1.639-1.639V15.3A1.641,1.641,0,0,0,19.117,13.666Z" transform="translate(9 6)" fill="#4caf50"/>
      </g>
    </g>
  </g>
</svg>
