<svg xmlns="http://www.w3.org/2000/svg" width="25" height="25" viewBox="0 0 25 25">
  <g id="question" transform="translate(0 0)">
    <path id="Path_4794" data-name="Path 4794" d="M184.134,192.143a8,8,0,1,1,13.265,6.032.348.348,0,0,0,.051.561l1.508.892a.278.278,0,0,1-.142.518l-6.83,0A8,8,0,0,1,184.134,192.143Z" transform="translate(-175.143 -175.148)" fill="#7acaa6"/>
    <path id="Path_4795" data-name="Path 4795" d="M340.171,199.631l-1.508-.892a.348.348,0,0,1-.051-.561,8,8,0,0,0-5.143-14.036,8.117,8.117,0,0,0-.873.035,8,8,0,0,1,4.507,14,.348.348,0,0,0,.051.561l1.508.892a.278.278,0,0,1-.137.518h1.5a.278.278,0,0,0,.142-.518Z" transform="translate(-316.355 -175.149)" fill="#52b9b1"/>
    <g id="Group_13494" data-name="Group 13494" transform="translate(0 0)">
      <path id="Path_4796" data-name="Path 4796" d="M192.444,184.145l-.188-.005a8,8,0,0,0-8.122,8c0,.1,0,.2.006.305A9.352,9.352,0,0,0,192.444,184.145Z" transform="translate(-175.142 -175.147)" fill="#52b9b1"/>
      <path id="Path_4797" data-name="Path 4797" d="M16.009,8A8,8,0,1,0,2.743,14.037a.348.348,0,0,1-.051.561l-1.508.892a.278.278,0,0,0,.142.518l6.83,0a8,8,0,0,0,7.853-8Z" transform="translate(0 0)" fill="#2673bf"/>
      <path id="Path_4798" data-name="Path 4798" d="M33.635,0q-.321,0-.636.035a8,8,0,0,1-.6,15.972H27.074l6.83,0A8,8,0,0,0,33.635,0Z" transform="translate(-25.748 0)" fill="#004f9e"/>
      <g id="Group_13493" data-name="Group 13493" transform="translate(4.68 1.743)">
        <circle id="Ellipse_1892" data-name="Ellipse 1892" cx="0.841" cy="0.841" r="0.841" transform="translate(2.484 10.842)" fill="#fff"/>
        <g id="Group_13492" data-name="Group 13492">
          <g id="Group_13491" data-name="Group 13491">
            <path id="Path_4799" data-name="Path 4799" d="M99.177,45.026a.755.755,0,0,1-.755-.755V41.585a.755.755,0,0,1,.755-.755,1.816,1.816,0,0,0,1.813-1.913,1.815,1.815,0,0,0-3.61-.156,1.841,1.841,0,0,0-.018.254.755.755,0,0,1-1.509,0,3.322,3.322,0,0,1,3.324-3.324h.068a3.334,3.334,0,0,1,3.251,3.148,3.3,3.3,0,0,1-.909,2.464,3.34,3.34,0,0,1-1.656.948v2.02A.755.755,0,0,1,99.177,45.026Z" transform="translate(-95.853 -35.691)" fill="#fff"/>
          </g>
        </g>
      </g>
    </g>
    <g id="Group_13495" data-name="Group 13495" transform="translate(12.382 16.155)">
      <circle id="Ellipse_1893" data-name="Ellipse 1893" cx="0.841" cy="0.841" r="0.841" transform="translate(3.773)" fill="#fff"/>
      <circle id="Ellipse_1894" data-name="Ellipse 1894" cx="0.841" cy="0.841" r="0.841" transform="translate(7.545)" fill="#fff"/>
      <circle id="Ellipse_1895" data-name="Ellipse 1895" cx="0.841" cy="0.841" r="0.841" fill="#fff"/>
    </g>
  </g>
</svg>
