<svg id="recive_green" xmlns="http://www.w3.org/2000/svg" width="40" height="39" viewBox="0 0 40 39">
  <ellipse id="Ellipse_110" data-name="Ellipse 110" cx="20" cy="19.5" rx="20" ry="19.5" fill="#0d8700"/>
  <g id="bags" transform="translate(8.751 8.265)">
    <g id="Group_10319" data-name="Group 10319" transform="translate(6.736 15.569)">
      <g id="Group_10318" data-name="Group 10318">
        <path id="Path_1905" data-name="Path 1905" d="M154.386,382.583a.455.455,0,0,0-.025-.082.449.449,0,0,0-.04-.075.423.423,0,0,0-.054-.067.434.434,0,0,0-.143-.1.45.45,0,0,0-.082-.025.434.434,0,0,0-.172,0,.448.448,0,0,0-.082.025.434.434,0,0,0-.143.1.421.421,0,0,0-.054.067.447.447,0,0,0-.04.075.456.456,0,0,0-.025.082.436.436,0,0,0,.12.4.441.441,0,0,0,.143.095.437.437,0,0,0,.336,0,.463.463,0,0,0,.076-.04.469.469,0,0,0,.067-.054.441.441,0,0,0,.12-.4Z" transform="translate(-153.517 -382.23)" fill="#fff"/>
      </g>
    </g>
    <g id="Group_10321" data-name="Group 10321" transform="translate(1.879 13.34)">
      <g id="Group_10320" data-name="Group 10320">
        <path id="Path_1906" data-name="Path 1906" d="M43.691,331.791a.444.444,0,0,0-.025-.082.433.433,0,0,0-.04-.076.451.451,0,0,0-.055-.067.421.421,0,0,0-.067-.054.441.441,0,0,0-.075-.04.45.45,0,0,0-.082-.025.435.435,0,0,0-.172,0,.44.44,0,0,0-.082.025.445.445,0,0,0-.076.04.427.427,0,0,0-.121.121.434.434,0,0,0-.04.076.444.444,0,0,0-.025.082.432.432,0,0,0-.009.086.44.44,0,0,0,.009.086.463.463,0,0,0,.025.082.443.443,0,0,0,.04.075.42.42,0,0,0,.054.067.434.434,0,0,0,.143.1.438.438,0,0,0,.082.025.431.431,0,0,0,.086.008.439.439,0,0,0,.439-.439A.432.432,0,0,0,43.691,331.791Z" transform="translate(-42.822 -331.438)" fill="#fff"/>
      </g>
    </g>
    <g id="Group_10323" data-name="Group 10323" transform="translate(0 0)">
      <g id="Group_10322" data-name="Group 10322">
        <path id="Path_1907" data-name="Path 1907" d="M22.275,39.365a1.6,1.6,0,0,0-2.564-.343l-.146.138V30.82a.439.439,0,0,0-.439-.439h-1.51V27.826a.439.439,0,0,0-.439-.439H9.29a.439.439,0,0,0-.439.439v2.556H6.61a.439.439,0,0,0-.439.439v8.485a4.8,4.8,0,0,0-1.536,1.025V39.4a.439.439,0,0,0-.439-.439H.439A.439.439,0,0,0,0,39.4v7.563a.439.439,0,0,0,.439.439H4.2a.439.439,0,0,0,.439-.439V45.737c.284.148.56.3.831.455A7.265,7.265,0,0,0,9.14,47.448h4.748c1.555,0,3.783-.733,4.682-1.917l3.413-4,.016-.02A2.1,2.1,0,0,0,22.275,39.365ZM3.758,46.526h-1V42.76a.439.439,0,1,0-.877,0v3.766h-1V39.841h2.88v6.685ZM17.616,31.259h1.072V39.99L17.616,41Zm-2.629-2.995h1.751v2.117H14.987Zm-2.629,0H14.11v2.117H12.358Zm-2.629,0h1.751v2.117H9.729V28.264Zm-2.68,2.995h1.8v1.757a.439.439,0,1,0,.877,0V31.259h4.38v1.757a.439.439,0,1,0,.877,0V31.259h1.751V41.18a1.69,1.69,0,0,0-1.39-.729H11.443c-.075,0-.126-.038-.291-.187-.042-.038-.086-.078-.135-.119a4.644,4.644,0,0,0-3.806-1.132q-.081.013-.162.028V31.259Zm14.258,9.715-3.413,4-.017.022a5.79,5.79,0,0,1-3.989,1.578H9.14A6.5,6.5,0,0,1,5.9,45.427c-.4-.226-.816-.458-1.26-.672V41.726a3.892,3.892,0,0,1,2.711-1.847,3.77,3.77,0,0,1,3.091.925l.009.007c.039.033.076.066.116.1a1.251,1.251,0,0,0,.881.414h3.906a.814.814,0,0,1,0,1.627H8.916a.439.439,0,1,0,0,.877h6.432a1.692,1.692,0,0,0,1.484-.881l3.51-3.32a.7.7,0,0,1,.62-.223.712.712,0,0,1,.539.368A1.229,1.229,0,0,1,21.307,40.974Z" transform="translate(0 -27.387)" fill="#fff"/>
      </g>
    </g>
    <g id="Group_10325" data-name="Group 10325" transform="translate(9.249 6.756)">
      <g id="Group_10324" data-name="Group 10324">
        <path id="Path_1908" data-name="Path 1908" d="M216.1,181.378H211.24a.439.439,0,0,0-.439.439v2.525a.439.439,0,0,0,.439.439H216.1a.439.439,0,0,0,.439-.439v-2.525A.439.439,0,0,0,216.1,181.378Zm-.439,2.525h-3.983v-1.648h3.983Z" transform="translate(-210.801 -181.378)" fill="#fff"/>
      </g>
    </g>
  </g>
</svg>
