<svg xmlns="http://www.w3.org/2000/svg" width="174" height="174" viewBox="0 0 174 174">
    <defs>
        <filter id="Ellipse_77" x="0" y="0" width="174" height="174" filterUnits="userSpaceOnUse">
            <feOffset dy="3"/>
            <feGaussianBlur stdDeviation="10" result="blur"/>
            <feFlood flood-opacity=".451"/>
            <feComposite operator="in" in2="blur"/>
            <feComposite in="SourceGraphic"/>
        </filter>
    </defs>
    <g id="Group_12742" data-name="Group 12742" transform="translate(-123 -17)">
        <g id="Group_12726" data-name="Group 12726" transform="translate(-2182 -2180)">
            <g transform="translate(2305 2197)" style="filter:url(#Ellipse_77)" id="Group_12725" data-name="Group 12725">
                <circle id="Ellipse_77-2" data-name="Ellipse 77" cx="57" cy="57" r="57" transform="translate(30 27)" style="fill:#004f9e"/>
            </g>
        </g>
        <g id="Group_12738" data-name="Group 12738" transform="translate(144.244 34.581)">
            <g id="Group_12733" data-name="Group 12733" transform="translate(29.756 33.419)">
                <path id="Path_4193" data-name="Path 4193" style="fill:#fff" d="m99.37 53.575-.522.282-35.5 20.4a.593.593 0 0 0-.34.606q.015 6.3.009 12.591c0 .117-.044.25.061.374l.26-.146 19.008-10.93L99 67.182c.215-.124.376-.227.375-.542-.014-4.326-.01-8.653-.01-13.065M40.8 40.027c.185.11.323.194.462.274l9.7 5.623L76.6 60.8c.253.147.452.272.784.078 3.617-2.112 7.249-4.2 10.875-6.3.117-.068.279-.093.322-.263-.055-.039-.1-.081-.16-.113Q70.6 43.874 52.787 33.538a.675.675 0 0 0-.786.014q-3.963 2.3-7.938 4.591L40.8 40.027m5.48 9.219v.475l-.046 26.054q-.014 7.388-.045 14.777a.891.891 0 0 0 .515.907c3.553 2.028 7.093 4.08 10.637 6.124.512.3.512.3.513-.293l.017-22.9c0-1.247.024-2.494.028-3.741l.044-14.291a.6.6 0 0 0-.361-.6c-2.034-1.158-4.062-2.338-6.092-3.51l-5.208-3M41.695 73.2v-2.449q.008-11.906.021-23.813a.494.494 0 0 0-.277-.5q-5.487-3.155-10.962-6.33c-.312-.181-.39-.152-.4.224a904.478 904.478 0 0 1-.254 9.317 32.758 32.758 0 0 0 .2 6.586 23.686 23.686 0 0 0 11.25 16.832.488.488 0 0 0 .42.132m44.479 6.657c-.16.087-.244.131-.326.178Q74.6 86.5 63.345 92.963a.6.6 0 0 0-.34.61q.014 6.271.007 12.541v.373c.2.032.306-.082.428-.148 3.386-1.826 6.777-3.642 10.154-5.485a23.913 23.913 0 0 0 12.58-21M104.858 45c-.169-.108-.289-.189-.413-.265L94.9 38.864a23.72 23.72 0 0 0-17.59-3.257 23.071 23.071 0 0 0-7.085 2.663c.054.158.189.192.3.255l22.4 13a.562.562 0 0 0 .66-.006c1.029-.61 2.068-1.2 3.1-1.8L104.858 45" transform="translate(-29.756 -33.418)"/>
                <path id="Path_4194" data-name="Path 4194" style="fill:#fff" d="M266.015 176.027c0 4.412 0 8.739.01 13.065 0 .315-.16.418-.375.542q-8.331 4.783-16.659 9.57l-19.011 10.927-.26.146c-.106-.125-.061-.257-.061-.374q0-6.3-.009-12.591a.593.593 0 0 1 .34-.606q17.757-10.19 35.5-20.4c.15-.086.3-.165.522-.282" transform="translate(-196.401 -155.87)"/>
                <path id="Path_4195" data-name="Path 4195" style="fill:#fff" d="m123.843 86.579 3.262-1.884q3.97-2.293 7.938-4.591a.674.674 0 0 1 .786-.015q17.812 10.344 35.636 20.666c.056.032.106.074.16.113-.044.17-.2.2-.322.263-3.626 2.1-7.257 4.186-10.875 6.3-.331.194-.531.069-.784-.078Q146.824 99.912 134 92.476l-9.7-5.623c-.139-.081-.277-.164-.462-.274" transform="translate(-112.797 -79.97)"/>
                <path id="Path_4196" data-name="Path 4196" style="fill:#fff" d="m149.616 155.4 5.208 3c2.031 1.172 4.058 2.35 6.094 3.513a.6.6 0 0 1 .361.6q-.034 7.145-.044 14.291c0 1.247-.027 2.494-.028 3.741q-.012 11.449-.017 22.9c0 .589 0 .588-.513.293-3.544-2.045-7.084-4.1-10.637-6.124a.891.891 0 0 1-.515-.907q.042-7.388.045-14.777.025-13.027.046-26.054v-.475" transform="translate(-133.09 -139.568)"/>
                <path id="Path_4197" data-name="Path 4197" style="fill:#fff" d="M83.144 144.54a.488.488 0 0 1-.42-.131 23.687 23.687 0 0 1-11.25-16.832 32.756 32.756 0 0 1-.2-6.586c.105-3.105.18-6.211.253-9.317.009-.375.086-.4.4-.224q5.475 3.176 10.962 6.33a.493.493 0 0 1 .277.5q-.017 11.907-.021 23.813v2.449" transform="translate(-71.205 -104.758)"/>
                <path id="Path_4198" data-name="Path 4198" style="fill:#fff" d="M252.82 301.274a23.913 23.913 0 0 1-12.58 21c-3.377 1.842-6.769 3.658-10.154 5.485-.123.066-.229.18-.429.148v-.373q0-6.271-.006-12.541a.6.6 0 0 1 .34-.61q11.257-6.455 22.5-12.928c.082-.047.166-.091.325-.178" transform="translate(-196.402 -254.835)"/>
                <path id="Path_4199" data-name="Path 4199" style="fill:#fff" d="m298.706 97.973-8.166 4.715c-1.036.6-2.075 1.191-3.1 1.8a.562.562 0 0 1-.66.007q-11.2-6.508-22.4-13c-.108-.063-.244-.1-.3-.255a23.072 23.072 0 0 1 7.085-2.663 23.72 23.72 0 0 1 17.59 3.257q4.766 2.946 9.543 5.874c.123.076.244.157.413.265" transform="translate(-223.604 -86.389)"/>
            </g>
        </g>
    </g>
</svg>
