<svg id="delivery" xmlns="http://www.w3.org/2000/svg" width="39" height="39" viewBox="0 0 39 39">
  <g id="Ellipse_116" data-name="Ellipse 116" fill="#c9c9c9" stroke="#707070" stroke-width="1">
    <circle cx="19.5" cy="19.5" r="19.5" stroke="none"/>
    <circle cx="19.5" cy="19.5" r="19" fill="none"/>
  </g>
  <g id="truck" transform="translate(7.31 10.614)">
    <g id="Group_10301" data-name="Group 10301" transform="translate(16.076 11.272)">
      <g id="Group_10300" data-name="Group 10300" transform="translate(0 0)">
        <g id="Path_1897" data-name="Path 1897" transform="translate(-322.151 -304.403)">
          <path d="M 325.3716430664062 311.0942687988281 C 323.4579162597656 311.0942687988281 321.9010009765625 309.537353515625 321.9010009765625 307.6236267089844 C 321.9010009765625 305.7099609375 323.4579162597656 304.1530456542969 325.3716430664062 304.1530456542969 C 327.2853698730469 304.1530456542969 328.84228515625 305.7099609375 328.84228515625 307.6236267089844 C 328.84228515625 309.537353515625 327.2853698730469 311.0942687988281 325.3716430664062 311.0942687988281 Z M 325.3716430664062 306.2633056640625 C 324.6215515136719 306.2633056640625 324.0113220214844 306.87353515625 324.0113220214844 307.6236267089844 C 324.0113220214844 308.3737182617188 324.6215515136719 308.9839477539062 325.3716430664062 308.9839477539062 C 326.1217346191406 308.9839477539062 326.7319641113281 308.3737182617188 326.7319641113281 307.6236267089844 C 326.7319641113281 306.87353515625 326.1217346191406 306.2633056640625 325.3716430664062 306.2633056640625 Z" stroke="none"/>
          <path d="M 325.3716430664062 304.4030456542969 C 323.5957641601562 304.4030456542969 322.1510009765625 305.8477478027344 322.1510009765625 307.6236267089844 C 322.1510009765625 309.3995361328125 323.5957641601562 310.8442687988281 325.3716430664062 310.8442687988281 C 327.1478271484375 310.8442687988281 328.59228515625 309.3995361328125 328.59228515625 307.6236267089844 C 328.59228515625 305.8477478027344 327.1475524902344 304.4030456542969 325.3716430664062 304.4030456542969 M 325.3716430664062 309.2339477539062 C 324.4836120605469 309.2339477539062 323.7613220214844 308.51171875 323.7613220214844 307.6236267089844 C 323.7613220214844 306.7355651855469 324.4836120605469 306.0133056640625 325.3716430664062 306.0133056640625 C 326.2597351074219 306.0133056640625 326.9819641113281 306.7355651855469 326.9819641113281 307.6236267089844 C 326.9819641113281 308.5117492675781 326.2597351074219 309.2339477539062 325.3716430664062 309.2339477539062 M 325.3716430664062 303.9030456542969 C 327.4232177734375 303.9030456542969 329.09228515625 305.5720825195312 329.09228515625 307.6236267089844 C 329.09228515625 309.6752014160156 327.4232177734375 311.3442687988281 325.3716430664062 311.3442687988281 C 323.320068359375 311.3442687988281 321.6510009765625 309.6752014160156 321.6510009765625 307.6236267089844 C 321.6510009765625 305.5720825195312 323.320068359375 303.9030456542969 325.3716430664062 303.9030456542969 Z M 325.3716430664062 308.7339477539062 C 325.98388671875 308.7339477539062 326.4819641113281 308.2358703613281 326.4819641113281 307.6236267089844 C 326.4819641113281 307.0113830566406 325.98388671875 306.5133056640625 325.3716430664062 306.5133056640625 C 324.7593994140625 306.5133056640625 324.2613220214844 307.0113830566406 324.2613220214844 307.6236267089844 C 324.2613220214844 308.2358703613281 324.7593994140625 308.7339477539062 325.3716430664062 308.7339477539062 Z" stroke="none" fill="#c9c9c9"/>
        </g>
      </g>
    </g>
    <g id="Group_10303" data-name="Group 10303" transform="translate(5.072 11.272)">
      <g id="Group_10302" data-name="Group 10302" transform="translate(0 0)">
        <g id="Path_1898" data-name="Path 1898" transform="translate(-101.647 -304.403)">
          <path d="M 104.8676300048828 311.0942687988281 C 102.9539184570312 311.0942687988281 101.3970108032227 309.537353515625 101.3970108032227 307.6236267089844 C 101.3970108032227 305.7099609375 102.9539184570312 304.1530456542969 104.8676300048828 304.1530456542969 C 106.7813491821289 304.1530456542969 108.338264465332 305.7099609375 108.338264465332 307.6236267089844 C 108.338264465332 309.537353515625 106.7813491821289 311.0942687988281 104.8676300048828 311.0942687988281 Z M 104.8676300048828 306.2633056640625 C 104.117546081543 306.2633056640625 103.5073089599609 306.87353515625 103.5073089599609 307.6236267089844 C 103.5073089599609 308.3737182617188 104.117546081543 308.9839477539062 104.8676300048828 308.9839477539062 C 105.6177062988281 308.9839477539062 106.2279510498047 308.3737182617188 106.2279510498047 307.6236267089844 C 106.2279510498047 306.87353515625 105.6177062988281 306.2633056640625 104.8676300048828 306.2633056640625 Z" stroke="none"/>
          <path d="M 104.8676300048828 304.4030456542969 C 103.0917358398438 304.4030456542969 101.6470108032227 305.8477478027344 101.6470108032227 307.6236267089844 C 101.6470108032227 309.3995361328125 103.0917358398438 310.8442687988281 104.8676300048828 310.8442687988281 C 106.6435241699219 310.8442687988281 108.088264465332 309.3995361328125 108.088264465332 307.6236267089844 C 108.088264465332 305.8477478027344 106.6435241699219 304.4030456542969 104.8676300048828 304.4030456542969 M 104.8676300048828 309.2339477539062 C 103.9795608520508 309.2339477539062 103.2573089599609 308.51171875 103.2573089599609 307.6236267089844 C 103.2573089599609 306.7355651855469 103.9795608520508 306.0133056640625 104.8676300048828 306.0133056640625 C 105.7554473876953 306.0133056640625 106.4779510498047 306.7355651855469 106.4779510498047 307.6236267089844 C 106.4779510498047 308.5117492675781 105.7557067871094 309.2339477539062 104.8676300048828 309.2339477539062 M 104.8676300048828 303.9030456542969 C 106.9191970825195 303.9030456542969 108.588264465332 305.5720825195312 108.588264465332 307.6236267089844 C 108.588264465332 309.6752014160156 106.9191970825195 311.3442687988281 104.8676300048828 311.3442687988281 C 102.8160705566406 311.3442687988281 101.1470108032227 309.6752014160156 101.1470108032227 307.6236267089844 C 101.1470108032227 305.5720825195312 102.8160705566406 303.9030456542969 104.8676300048828 303.9030456542969 Z M 104.8676300048828 308.7339477539062 C 105.4798583984375 308.7339477539062 105.9779510498047 308.2358703613281 105.9779510498047 307.6236267089844 C 105.9779510498047 307.0113830566406 105.4798583984375 306.5133056640625 104.8676300048828 306.5133056640625 C 104.2553939819336 306.5133056640625 103.7573089599609 307.0113830566406 103.7573089599609 307.6236267089844 C 103.7573089599609 308.2358703613281 104.2553939819336 308.7339477539062 104.8676300048828 308.7339477539062 Z" stroke="none" fill="#c9c9c9"/>
        </g>
      </g>
    </g>
    <g id="Group_10305" data-name="Group 10305" transform="translate(16.506 1.61)">
      <g id="Group_10304" data-name="Group 10304" transform="translate(0 0)">
        <g id="Path_1899" data-name="Path 1899" transform="translate(-330.756 -110.79)">
          <path d="M 336.5813293457031 117.0967025756836 L 336.4690246582031 116.8733291625977 L 334.3457946777344 112.6503295898438 L 330.7559814453125 112.6503295898438 L 330.5059814453125 112.6503295898438 L 330.5059814453125 112.4003295898438 L 330.5059814453125 110.7900085449219 L 330.5059814453125 110.5400085449219 L 330.7559814453125 110.5400085449219 L 334.9965209960938 110.5400085449219 C 335.3976440429688 110.5400085449219 335.7589111328125 110.7626113891602 335.9393615722656 111.1209411621094 L 338.3548278808594 115.9251327514648 L 338.4671020507812 116.1484832763672 L 338.2437744140625 116.2607803344727 L 336.8046875 116.9843826293945 L 336.5813293457031 117.0967025756836 Z" stroke="none"/>
          <path d="M 330.7559814453125 110.7900085449219 L 330.7559814453125 112.4003295898438 L 334.4999389648438 112.4003295898438 L 336.6923828125 116.7610321044922 L 338.1314697265625 116.0374298095703 L 335.716064453125 111.2333831787109 C 335.5791625976562 110.9615173339844 335.3008422851562 110.7900085449219 334.9965209960938 110.7900085449219 L 330.7559814453125 110.7900085449219 M 330.2559814453125 110.2900085449219 L 334.9965209960938 110.2900085449219 C 335.4926452636719 110.2900085449219 335.939453125 110.5653228759766 336.1626281738281 111.0084991455078 L 338.8027648925781 116.2595291137695 L 336.4702758789062 117.4323577880859 L 334.1916809082031 112.9003295898438 L 330.2559814453125 112.9003295898438 L 330.2559814453125 110.2900085449219 Z" stroke="none" fill="#c9c9c9"/>
        </g>
      </g>
    </g>
    <g id="Group_10307" data-name="Group 10307" transform="translate(10.789 13.714)">
      <g id="Group_10306" data-name="Group 10306" transform="translate(0 0)">
        <rect id="Rectangle_1138" data-name="Rectangle 1138" width="6.092" height="1.61"/>
      </g>
    </g>
    <g id="Group_10309" data-name="Group 10309" transform="translate(2.281 13.714)">
      <g id="Group_10308" data-name="Group 10308" transform="translate(0 0)">
        <g id="Path_1900" data-name="Path 1900" transform="translate(-45.715 -353.345)">
          <path d="M 49.31134796142578 355.2052917480469 L 46.52012634277344 355.2052917480469 C 45.93832778930664 355.2052917480469 45.46499633789062 354.7319641113281 45.46499633789062 354.150146484375 C 45.46499633789062 353.5683288574219 45.93832778930664 353.0950012207031 46.52012634277344 353.0950012207031 L 49.31129837036133 353.0950012207031 C 49.89312744140625 353.0950012207031 50.36647796630859 353.5683288574219 50.36647796630859 354.150146484375 C 50.36647796630859 354.7319641113281 49.89314651489258 355.2052917480469 49.31134796142578 355.2052917480469 Z" stroke="none"/>
          <path d="M 46.52012634277344 353.3450012207031 C 46.07539749145508 353.3450012207031 45.71499633789062 353.7054748535156 45.71499633789062 354.150146484375 C 45.71499633789062 354.5948791503906 46.07544708251953 354.9552917480469 46.52012634277344 354.9552917480469 L 49.31134796142578 354.9552917480469 C 49.75607681274414 354.9552917480469 50.11647796630859 354.5948486328125 50.11647796630859 354.150146484375 C 50.11647796630859 353.7054138183594 49.75603866577148 353.3450012207031 49.31129837036133 353.3450012207031 L 46.52012634277344 353.3450012207031 M 46.52012634277344 352.8450012207031 L 49.31129837036133 352.8450012207031 C 50.03097534179688 352.8450012207031 50.61647796630859 353.4304809570312 50.61647796630859 354.150146484375 C 50.61647796630859 354.8698120117188 50.03099822998047 355.4552917480469 49.31134796142578 355.4552917480469 L 46.52012634277344 355.4552917480469 C 45.80047607421875 355.4552917480469 45.21499633789062 354.8698120117188 45.21499633789062 354.150146484375 C 45.21499633789062 353.4304809570312 45.80047607421875 352.8450012207031 46.52012634277344 352.8450012207031 Z" stroke="none" fill="#c9c9c9"/>
        </g>
      </g>
    </g>
    <g id="Group_10311" data-name="Group 10311" transform="translate(2.281 0)">
      <g id="Group_10310" data-name="Group 10310" transform="translate(0 0)">
        <g id="Path_1901" data-name="Path 1901" transform="translate(-45.715 -78.521)">
          <path d="M 68.17875671386719 94.09566497802734 L 65.14601898193359 94.09566497802734 C 64.564208984375 94.09566497802734 64.09088134765625 93.62233734130859 64.09088134765625 93.04052734375 C 64.09088134765625 92.45872497558594 64.564208984375 91.98539733886719 65.14601898193359 91.98539733886719 L 67.12362670898438 91.98539733886719 L 67.12362670898438 88.1685791015625 L 66.07864379882812 86.82247161865234 L 59.93935775756836 86.82247161865234 C 59.35754776000977 86.82247161865234 58.88422012329102 86.34914398193359 58.88422012329102 85.76734161376953 L 58.88422012329102 80.38126373291016 L 46.52012634277344 80.38126373291016 C 45.93832778930664 80.38126373291016 45.46499633789062 79.90793609619141 45.46499633789062 79.32613372802734 C 45.46499633789062 78.74432373046875 45.93832778930664 78.27099609375 46.52012634277344 78.27099609375 L 59.93939971923828 78.27099609375 C 60.52119827270508 78.27099609375 60.99452972412109 78.74432373046875 60.99452972412109 79.32613372802734 L 60.99452972412109 84.71220397949219 L 66.5953369140625 84.71220397949219 C 66.91923522949219 84.71220397949219 67.23081970214844 84.86483764648438 67.42881011962891 85.12047576904297 L 69.01235198974609 87.15995788574219 C 69.15528106689453 87.34428405761719 69.23394012451172 87.57407379150391 69.23394012451172 87.80712127685547 L 69.23394012451172 93.04052734375 C 69.23388671875 93.62234497070312 68.76053619384766 94.09566497802734 68.17875671386719 94.09566497802734 Z" stroke="none"/>
          <path d="M 68.17875671386719 93.84566497802734 C 68.62349700927734 93.84566497802734 68.98390197753906 93.48521423339844 68.98394012451172 93.04052734375 L 68.98394012451172 87.80712127685547 C 68.98394012451172 87.62836456298828 68.92435455322266 87.4544677734375 68.81488037109375 87.31327056884766 L 67.23115539550781 85.27355194091797 C 67.07899475097656 85.07708740234375 66.84416198730469 84.96220397949219 66.5953369140625 84.96220397949219 L 60.74452972412109 84.96220397949219 L 60.74452972412109 79.32613372802734 C 60.74452972412109 78.88139343261719 60.38408660888672 78.52099609375 59.93939971923828 78.52099609375 L 46.52012634277344 78.52099609375 C 46.07539749145508 78.52099609375 45.71499633789062 78.88144683837891 45.71499633789062 79.32613372802734 C 45.71499633789062 79.77081298828125 46.07544708251953 80.13126373291016 46.52012634277344 80.13126373291016 L 59.13422012329102 80.13126373291016 L 59.13422012329102 85.76734161376953 C 59.13422012329102 86.21207427978516 59.49466705322266 86.57247161865234 59.93935775756836 86.57247161865234 L 66.20105743408203 86.57247161865234 L 67.37362670898438 88.08293151855469 L 67.37362670898438 92.23539733886719 L 65.14601898193359 92.23539733886719 C 64.70127868652344 92.23539733886719 64.34088134765625 92.59584808349609 64.34088134765625 93.04052734375 C 64.34088134765625 93.48526763916016 64.70132446289062 93.84566497802734 65.14601898193359 93.84566497802734 L 68.17875671386719 93.84566497802734 M 68.17875671386719 94.34566497802734 L 65.14601898193359 94.34566497802734 C 64.42636108398438 94.34566497802734 63.84087753295898 93.76018524169922 63.84087753295898 93.04052734375 C 63.84087753295898 92.32087707519531 64.42636108398438 91.73539733886719 65.14601898193359 91.73539733886719 L 66.87362670898438 91.73539733886719 L 66.87362670898438 88.25423431396484 L 65.95623016357422 87.07247161865234 L 59.93935775756836 87.07247161865234 C 59.21969985961914 87.07247161865234 58.63422012329102 86.48699188232422 58.63422012329102 85.76734161376953 L 58.63422012329102 80.63126373291016 L 46.52012634277344 80.63126373291016 C 45.80047988891602 80.63126373291016 45.21499633789062 80.04578399658203 45.21499633789062 79.32613372802734 C 45.21499633789062 78.60647583007812 45.80047988891602 78.02099609375 46.52012634277344 78.02099609375 L 59.93939971923828 78.02099609375 C 60.65904998779297 78.02099609375 61.24452972412109 78.60647583007812 61.24452972412109 79.32613372802734 L 61.24452972412109 84.46220397949219 L 66.5953369140625 84.46220397949219 C 66.99600982666016 84.46220397949219 67.38147735595703 84.65106201171875 67.62646484375 84.9674072265625 L 69.20980834960938 87.00663757324219 C 69.38665771484375 87.23469543457031 69.48394012451172 87.51889801025391 69.48394012451172 87.80712127685547 L 69.48394012451172 93.04052734375 C 69.48387908935547 93.76020812988281 68.89836883544922 94.34566497802734 68.17875671386719 94.34566497802734 Z" stroke="none" fill="#c9c9c9"/>
        </g>
      </g>
    </g>
    <g id="Group_10313" data-name="Group 10313" transform="translate(1.315 9.635)">
      <g id="Group_10312" data-name="Group 10312" transform="translate(0 0)">
        <g id="Path_1902" data-name="Path 1902" transform="translate(-26.353 -271.597)">
          <path d="M 30.8618221282959 273.457275390625 L 27.15813255310059 273.457275390625 C 26.57633209228516 273.457275390625 26.10300254821777 272.9839172363281 26.10300254821777 272.402099609375 C 26.10300254821777 271.8203125 26.57633209228516 271.3469848632812 27.15813255310059 271.3469848632812 L 30.86187171936035 271.3469848632812 C 31.14372253417969 271.3469848632812 31.40868186950684 271.4567260742188 31.60797119140625 271.6560363769531 C 31.80725288391113 271.8553161621094 31.91698265075684 272.1203002929688 31.91695213317871 272.4021301269531 C 31.91695213317871 272.9839172363281 31.44362258911133 273.457275390625 30.8618221282959 273.457275390625 Z" stroke="none"/>
          <path d="M 27.15813255310059 271.5969848632812 C 26.71340179443359 271.5969848632812 26.35300254821777 271.9574584960938 26.35300254821777 272.402099609375 C 26.35300254821777 272.8468627929688 26.71345138549805 273.207275390625 27.15813255310059 273.207275390625 L 30.8618221282959 273.207275390625 C 31.30655288696289 273.207275390625 31.66695213317871 272.8468017578125 31.66695213317871 272.402099609375 C 31.66700172424316 271.9574584960938 31.30655288696289 271.5969848632812 30.86187171936035 271.5969848632812 L 27.15813255310059 271.5969848632812 M 27.15813255310059 271.0969848632812 L 30.86187171936035 271.0969848632812 C 31.21050262451172 271.0969848632812 31.53825187683105 271.2327270507812 31.78475189208984 271.479248046875 C 32.03125 271.7257690429688 32.1669921875 272.0535278320312 32.16695404052734 272.4021606445312 C 32.16695404052734 273.1217651367188 31.58147239685059 273.707275390625 30.8618221282959 273.707275390625 L 27.15813255310059 273.707275390625 C 26.4384822845459 273.707275390625 25.85300064086914 273.1217651367188 25.85300064086914 272.402099609375 C 25.85300064086914 271.6824645996094 26.4384822845459 271.0969848632812 27.15813255310059 271.0969848632812 Z" stroke="none" fill="#c9c9c9"/>
        </g>
      </g>
    </g>
    <g id="Group_10315" data-name="Group 10315" transform="translate(0 6.468)">
      <g id="Group_10314" data-name="Group 10314" transform="translate(0 0)">
        <g id="Path_1903" data-name="Path 1903" transform="translate(0 -208.134)">
          <path d="M 7.675808429718018 209.9943237304688 L 0.8051285147666931 209.9943237304688 C 0.2233285009860992 209.9943237304688 -0.2500014901161194 209.52099609375 -0.2500014901161194 208.939208984375 C -0.2500014901161194 208.3573760986328 0.2233285009860992 207.8840026855469 0.8051285147666931 207.8840026855469 L 7.675808429718018 207.8840026855469 C 8.257608413696289 207.8840026855469 8.730938911437988 208.3573760986328 8.730938911437988 208.939208984375 C 8.730938911437988 209.52099609375 8.257608413696289 209.9943237304688 7.675808429718018 209.9943237304688 Z" stroke="none"/>
          <path d="M 0.8051285743713379 208.1340026855469 C 0.3604488372802734 208.1340026855469 -1.9073486328125e-06 208.4944763183594 -1.9073486328125e-06 208.939208984375 C -1.9073486328125e-06 209.3839111328125 0.3604488372802734 209.7443237304688 0.8051285743713379 209.7443237304688 L 7.675808429718018 209.7443237304688 C 8.120538711547852 209.7443237304688 8.480938911437988 209.3838806152344 8.480938911437988 208.939208984375 C 8.480938911437988 208.4945068359375 8.120538711547852 208.1340026855469 7.675808429718018 208.1340026855469 L 0.8051285743713379 208.1340026855469 M 0.8051285743713379 207.6340026855469 L 7.675808429718018 207.6340026855469 C 8.395458221435547 207.6340026855469 8.980938911437988 208.2195129394531 8.980938911437988 208.939208984375 C 8.980938911437988 209.6588592529297 8.395458221435547 210.2443237304688 7.675808429718018 210.2443237304688 L 0.8051285743713379 210.2443237304688 C 0.08547878265380859 210.2443237304688 -0.5000019073486328 209.6588592529297 -0.5000019073486328 208.939208984375 C -0.5000019073486328 208.2195129394531 0.08547878265380859 207.6340026855469 0.8051285743713379 207.6340026855469 Z" stroke="none" fill="#c9c9c9"/>
        </g>
      </g>
    </g>
    <g id="Group_10317" data-name="Group 10317" transform="translate(1.315 3.301)">
      <g id="Group_10316" data-name="Group 10316" transform="translate(0 0)">
        <g id="Path_1904" data-name="Path 1904" transform="translate(-26.353 -144.672)">
          <path d="M 34.02880096435547 146.5322570800781 L 27.15813255310059 146.5322570800781 C 26.57633209228516 146.5322570800781 26.10300254821777 146.0589141845703 26.10300254821777 145.4771118164062 C 26.10300254821777 144.8953094482422 26.57633209228516 144.4219970703125 27.15813255310059 144.4219970703125 L 34.02880096435547 144.4219970703125 C 34.31067276000977 144.4219970703125 34.57565307617188 144.5317535400391 34.77494430541992 144.7310333251953 C 34.9742317199707 144.9303131103516 35.0839729309082 145.1952819824219 35.08394241333008 145.4771270751953 C 35.08394241333008 146.0589141845703 34.61061096191406 146.5322570800781 34.02880096435547 146.5322570800781 Z" stroke="none"/>
          <path d="M 27.15813064575195 144.6719970703125 C 26.71340179443359 144.6719970703125 26.35300064086914 145.0324554443359 26.35300064086914 145.4771118164062 C 26.35300064086914 145.9218597412109 26.71344375610352 146.2822570800781 27.15813064575195 146.2822570800781 L 34.02880096435547 146.2822570800781 C 34.47354125976562 146.2822570800781 34.83394241333008 145.9217987060547 34.83394241333008 145.4771118164062 C 34.833984375 145.0324554443359 34.47354125976562 144.6719970703125 34.02880096435547 144.6719970703125 L 27.15813064575195 144.6719970703125 M 27.15813064575195 144.1719970703125 L 34.02880096435547 144.1719970703125 C 34.3774528503418 144.1719970703125 34.7052116394043 144.3077545166016 34.95171356201172 144.5542602539062 C 35.19823455810547 144.8007659912109 35.3339729309082 145.1285247802734 35.33394241333008 145.4771423339844 C 35.33394241333008 146.1967620849609 34.74846267700195 146.7822570800781 34.02880096435547 146.7822570800781 L 27.15813064575195 146.7822570800781 C 26.43848419189453 146.7822570800781 25.85300064086914 146.1967620849609 25.85300064086914 145.4771118164062 C 25.85300064086914 144.7574615478516 26.43848419189453 144.1719970703125 27.15813064575195 144.1719970703125 Z" stroke="none" fill="#c9c9c9"/>
        </g>
      </g>
    </g>
  </g>
</svg>
