<svg id="shipping_ic" xmlns="http://www.w3.org/2000/svg" width="168" height="168" viewBox="0 0 168 168">
  <g id="signature">
    <path id="Path_1889" data-name="Path 1889" d="M167.988,82.6A83.856,83.856,0,0,1,135.3,150.514,157.589,157.589,0,0,1,32.8,150.23l-.836-.29A84,84,0,1,1,167.988,82.6Z" transform="translate(0 0)" fill="#f80"/>
    <path id="Path_1890" data-name="Path 1890" d="M168,170.672a83.857,83.857,0,0,1-32.7,66.514A157.589,157.589,0,0,1,32.8,236.9l-.836-.29A84.036,84.036,0,0,1,11.051,129a84.024,84.024,0,0,0,145.9,0A83.6,83.6,0,0,1,168,170.672Z" transform="translate(0 -86.672)" fill="#787878"/>
    <path id="Path_1891" data-name="Path 1891" d="M200.743,119.916V228.292a83.636,83.636,0,0,1-51.3,17.483c-.125,0-.246,0-.371,0A83.619,83.619,0,0,1,97.4,227.716v-107.8a4.156,4.156,0,0,1,4.156-4.156h95.03a4.156,4.156,0,0,1,4.156,4.156Z" transform="translate(-65.441 -77.776)" fill="#fff"/>
    <path id="Path_1892" data-name="Path 1892" d="M306.543,119.916V228.292a83.642,83.642,0,0,1-51.669,17.483l0,0V115.76h47.517a4.156,4.156,0,0,1,4.156,4.156Z" transform="translate(-171.241 -77.776)" fill="#d1f6ff"/>
  </g>
  <g id="delivery-truck" transform="translate(29.423 76.109)">
    <g id="Group_10326" data-name="Group 10326" transform="translate(0 6.35)">
      <path id="Path_1909" data-name="Path 1909" d="M25.4,147.175A3.176,3.176,0,0,0,22.226,144H3.175a3.175,3.175,0,1,0,0,6.35h19.05A3.176,3.176,0,0,0,25.4,147.175Z" transform="translate(0 -144)" fill="#ffc107"/>
      <path id="Path_1910" data-name="Path 1910" d="M47.875,208h-12.7a3.175,3.175,0,0,0,0,6.35h12.7a3.175,3.175,0,0,0,0-6.35Z" transform="translate(-25.65 -195.3)" fill="#ffc107"/>
      <path id="Path_1911" data-name="Path 1911" d="M73.525,272h-6.35a3.175,3.175,0,0,0,0,6.35h6.35a3.175,3.175,0,0,0,0-6.35Z" transform="translate(-51.3 -246.599)" fill="#ffc107"/>
    </g>
    <path id="Path_1912" data-name="Path 1912" d="M357.65,193.418l-9.525-15.875A3.168,3.168,0,0,0,345.4,176H323.175A3.176,3.176,0,0,0,320,179.175v31.751a3.176,3.176,0,0,0,3.175,3.175h31.751a3.176,3.176,0,0,0,3.175-3.175V195.05A3.127,3.127,0,0,0,357.65,193.418Z" transform="translate(-256.498 -163.3)" fill="#f44336"/>
    <path id="Path_1913" data-name="Path 1913" d="M384,208h10.9l7.62,12.7H384Z" transform="translate(-307.798 -188.95)" fill="#fafafa"/>
    <path id="Path_1914" data-name="Path 1914" d="M143.626,112H99.175A3.176,3.176,0,0,0,96,115.175v44.451a3.176,3.176,0,0,0,3.175,3.175H146.8V115.175A3.176,3.176,0,0,0,143.626,112Z" transform="translate(-76.95 -112)" fill="#ffc107"/>
    <circle id="Ellipse_112" data-name="Ellipse 112" cx="6.5" cy="6.5" r="6.5" transform="translate(78.615 41.576)" fill="#fafafa"/>
    <path id="Path_1915" data-name="Path 1915" d="M393.525,323.05a9.525,9.525,0,1,1,9.525-9.525A9.537,9.537,0,0,1,393.525,323.05Zm0-12.7a3.175,3.175,0,1,0,3.175,3.175A3.184,3.184,0,0,0,393.525,310.35Z" transform="translate(-307.798 -265.899)" fill="#455a64"/>
    <path id="Path_1916" data-name="Path 1916" d="M146.8,316.7H99.175A3.176,3.176,0,0,1,96,313.525V304h50.8Z" transform="translate(-76.95 -265.899)" fill="#f44336"/>
    <circle id="Ellipse_113" data-name="Ellipse 113" cx="6.5" cy="6.5" r="6.5" transform="translate(34.615 41.576)" fill="#fafafa"/>
    <path id="Path_1917" data-name="Path 1917" d="M169.525,323.05a9.525,9.525,0,1,1,9.525-9.525A9.537,9.537,0,0,1,169.525,323.05Zm0-12.7a3.175,3.175,0,1,0,3.175,3.175A3.18,3.18,0,0,0,169.525,310.35Z" transform="translate(-128.249 -265.899)" fill="#455a64"/>
  </g>
</svg>
