<svg xmlns="http://www.w3.org/2000/svg" width="119" height="119" viewBox="0 0 119 119">
  <g id="reject" transform="translate(-16 -13.533)">
    <circle id="Ellipse_1911" data-name="Ellipse 1911" cx="59.5" cy="59.5" r="59.5" transform="translate(16 13.533)" fill="#004f9e"/>
    <circle id="Ellipse_1912" data-name="Ellipse 1912" cx="50.5" cy="50.5" r="50.5" transform="translate(25 22.533)" fill="#3998ab"/>
    <path id="Path_4954" data-name="Path 4954" d="M194.1,154.221V123.9a12.791,12.791,0,0,0-2.258,1.911h-28.36a2.1,2.1,0,0,0-2.084,2.084v63.371a2.1,2.1,0,0,0,2.084,2.084h11.438a11.915,11.915,0,0,0,19.9,0h11.438a2.1,2.1,0,0,0,2.084-2.084V154.221Z" transform="translate(-109.323 -83.048)" fill="#382b73"/>
    <path id="Path_4955" data-name="Path 4955" d="M206.261,191.2H163.484a2.1,2.1,0,0,1-2.084-2.084V127.784a2.1,2.1,0,0,1,2.084-2.084h42.8a2.1,2.1,0,0,1,2.084,2.084V189.12A2.118,2.118,0,0,1,206.261,191.2Z" transform="translate(-109.323 -84.401)" fill="#d1d3d4"/>
    <path id="Path_4956" data-name="Path 4956" d="M206.261,183H163.484a2.1,2.1,0,0,1-2.084-2.084V119.584a2.1,2.1,0,0,1,2.084-2.084h42.8a2.1,2.1,0,0,1,2.084,2.084V180.92A2.118,2.118,0,0,1,206.261,183Z" transform="translate(-109.323 -78.236)" fill="#fff"/>
    <g id="Group_13619" data-name="Group 13619" transform="translate(57.585 44.574)">
      <path id="Path_4957" data-name="Path 4957" d="M204.07,213.077H185.089a1.489,1.489,0,1,1,0-2.977H204.07a1.493,1.493,0,0,1,1.489,1.489A1.477,1.477,0,0,1,204.07,213.077Z" transform="translate(-183.6 -192.434)" fill="#d1d3d4"/>
      <path id="Path_4958" data-name="Path 4958" d="M209.257,141.877h-23.1c-1.365,0-2.456-.67-2.456-1.489s1.092-1.489,2.456-1.489h23.1c1.365,0,2.456.67,2.456,1.489C211.713,141.232,210.621,141.877,209.257,141.877Z" transform="translate(-183.675 -138.9)" fill="#d1d3d4"/>
      <path id="Path_4959" data-name="Path 4959" d="M209.257,165.977h-23.1c-1.365,0-2.456-.67-2.456-1.489S184.792,163,186.156,163h23.1c1.365,0,2.456.67,2.456,1.489C211.713,165.332,210.621,165.977,209.257,165.977Z" transform="translate(-183.675 -157.02)" fill="#d1d3d4"/>
      <path id="Path_4960" data-name="Path 4960" d="M219.033,243.077H185.189a1.489,1.489,0,1,1,0-2.977h33.869a1.493,1.493,0,0,1,1.489,1.489A1.515,1.515,0,0,1,219.033,243.077Z" transform="translate(-183.675 -214.99)" fill="#d1d3d4"/>
      <path id="Path_4961" data-name="Path 4961" d="M219.033,273.177H185.189a1.489,1.489,0,1,1,0-2.977h33.869a1.493,1.493,0,0,1,1.489,1.489A1.515,1.515,0,0,1,219.033,273.177Z" transform="translate(-183.675 -237.622)" fill="#d1d3d4"/>
      <path id="Path_4962" data-name="Path 4962" d="M219.033,303.177H185.189a1.489,1.489,0,1,1,0-2.977h33.869a1.493,1.493,0,0,1,1.489,1.489A1.515,1.515,0,0,1,219.033,303.177Z" transform="translate(-183.675 -260.178)" fill="#d1d3d4"/>
      <path id="Path_4963" data-name="Path 4963" d="M219.033,333.177H185.189a1.489,1.489,0,1,1,0-2.977h33.869a1.489,1.489,0,1,1-.025,2.977Z" transform="translate(-183.675 -282.734)" fill="#d1d3d4"/>
      <path id="Path_4964" data-name="Path 4964" d="M293.2,218.5c0,.025.025.05.025.074C293.225,218.55,293.2,218.525,293.2,218.5Zm.844.62h0Z" transform="translate(-266.006 -198.749)" fill="#d1d3d4"/>
    </g>
    <circle id="Ellipse_1913" data-name="Ellipse 1913" cx="11.935" cy="11.935" r="11.935" transform="translate(63.615 88.368)" fill="#fede3a"/>
    <path id="Path_4965" data-name="Path 4965" d="M243.931,354.45l.025-.025a225.562,225.562,0,0,1,.05-.1l.025-.025c0-.025.025-.025.025-.05h0a1.961,1.961,0,0,0-.273-2.432l-2.357-2.357,2.357-2.357.074-.074.025-.025.05-.05.025-.025c0-.025.025-.025.025-.05l.025-.025.025-.025c0-.025.025-.025.025-.05h0a1.961,1.961,0,0,0-.273-2.432,1.932,1.932,0,0,0-2.754,0l-2.357,2.357-2.357-2.357a1.932,1.932,0,0,0-2.754,0,1.957,1.957,0,0,0-.273,2.432h0c0,.025.025.025.025.05l.025.025c0,.025.025.025.025.05a.087.087,0,0,1,.025.05l.025.025.05.05.025.025.074.074,2.357,2.357-2.357,2.357a1.957,1.957,0,0,0-.273,2.432h0c0,.025.025.025.025.05l.025.025.025.05a.087.087,0,0,1,.025.05l.025.025.05.05.025.025.074.074a1.932,1.932,0,0,0,2.754,0l2.357-2.357,2.357,2.357a1.932,1.932,0,0,0,2.754,0l.074-.074.025-.025c.025-.025.025-.05.05-.074Z" transform="translate(-163.146 -248.367)" fill="#f7cb15"/>
    <path id="Path_4966" data-name="Path 4966" d="M241.517,345.063l2.357-2.357a1.947,1.947,0,0,0-2.754-2.754l-2.357,2.357-2.357-2.357a1.947,1.947,0,0,0-2.754,2.754l2.357,2.357-2.357,2.357a1.947,1.947,0,0,0,2.754,2.754l2.357-2.357,2.357,2.357a1.947,1.947,0,0,0,2.754-2.754Z" transform="translate(-163.214 -245.058)" fill="#ef5a9d"/>
    <path id="Path_4967" data-name="Path 4967" d="M243.922,367.957a1.932,1.932,0,0,1-2.754,0l-2.357-2.357-2.357,2.357a1.932,1.932,0,0,1-2.754,0,1.513,1.513,0,0,1-.3-.4,1.958,1.958,0,0,0,.3,2.357,1.932,1.932,0,0,0,2.754,0l2.357-2.357,2.357,2.357a1.943,1.943,0,0,0,3.052-2.357A2.071,2.071,0,0,1,243.922,367.957Z" transform="translate(-163.261 -264.776)" fill="#e43d91"/>
    <path id="Path_4968" data-name="Path 4968" d="M236.057,348.09l.968-.968L233.7,343.8a1.514,1.514,0,0,1-.3-.4,1.958,1.958,0,0,0,.3,2.357Z" transform="translate(-163.261 -248.085)" fill="#e43d91"/>
    <path id="Path_4969" data-name="Path 4969" d="M266.525,343.722l-3.325,3.325.968.968,2.357-2.357a1.923,1.923,0,0,0,.3-2.357A1.63,1.63,0,0,1,266.525,343.722Z" transform="translate(-185.864 -248.01)" fill="#e43d91"/>
  </g>
</svg>
