<svg xmlns="http://www.w3.org/2000/svg" width="18.633" height="25.973" viewBox="0 0 18.633 25.973">
    <g data-name="Group 10299">
        <path data-name="Path 1896" d="M90.134 24.279h-.847v-4.517a7.625 7.625 0 0 0-4.146-6.775 7.62 7.62 0 0 0 4.146-6.775V1.694h.847a.847.847 0 1 0 0-1.694H73.195a.847.847 0 1 0 0 1.694h.847v4.517a7.62 7.62 0 0 0 4.146 6.775 7.625 7.625 0 0 0-4.146 6.775v4.517h-.847a.847.847 0 1 0 0 1.694h16.939a.847.847 0 0 0 0-1.694zM75.762 6.722c-.041-.482-.026-.277-.026-5.028h11.857c0 4.751.016 4.546-.026 5.028zm11.831 16.6c-4.672-3.894-4.5-3.823-5.082-4.028v-.944a.847.847 0 1 0-1.694 0v.939c-.574.2-.394.122-5.082 4.028v-3.555a5.933 5.933 0 0 1 5.082-5.862v1.062a.847.847 0 1 0 1.694 0V13.9a5.933 5.933 0 0 1 5.082 5.861z" transform="translate(-72.348)" style="fill:#fff"/>
    </g>
</svg>
