<svg xmlns="http://www.w3.org/2000/svg" width="33.016" height="23.196" viewBox="0 0 33.016 23.196">
    <g data-name="Group 10301">
        <g data-name="Group 10300">
            <g data-name="Path 1897" style="fill:#fff">
                <path d="M326.187 312.724a4.29 4.29 0 0 1-4.286-4.285 4.29 4.29 0 0 1 4.286-4.286 4.29 4.29 0 0 1 4.285 4.286 4.29 4.29 0 0 1-4.285 4.285zm0-6.053a1.77 1.77 0 0 0-1.768 1.768 1.77 1.77 0 0 0 1.768 1.767 1.77 1.77 0 0 0 1.767-1.767 1.77 1.77 0 0 0-1.767-1.768z" style="stroke:none" transform="translate(-301.507 -289.778)"/>
                <path d="M326.187 304.403a4.04 4.04 0 0 0-4.036 4.036 4.04 4.04 0 0 0 4.036 4.035 4.04 4.04 0 0 0 4.035-4.035 4.04 4.04 0 0 0-4.035-4.036m0 6.053a2.02 2.02 0 0 1-2.018-2.017 2.02 2.02 0 0 1 2.018-2.018 2.02 2.02 0 0 1 2.017 2.018 2.02 2.02 0 0 1-2.017 2.017m0-6.553a4.54 4.54 0 0 1 4.535 4.536 4.54 4.54 0 0 1-4.535 4.535 4.54 4.54 0 0 1-4.536-4.535 4.54 4.54 0 0 1 4.536-4.536zm0 6.053a1.52 1.52 0 0 0 1.517-1.517 1.52 1.52 0 0 0-1.517-1.518 1.52 1.52 0 0 0-1.518 1.518c0 .837.68 1.517 1.518 1.517z" style="fill:#f80;stroke:none" transform="translate(-301.507 -289.778)"/>
            </g>
        </g>
    </g>
    <g data-name="Group 10303">
        <g data-name="Group 10302">
            <g data-name="Path 1898" style="fill:#fff">
                <path d="M105.683 312.724a4.29 4.29 0 0 1-4.286-4.285 4.29 4.29 0 0 1 4.286-4.286 4.29 4.29 0 0 1 4.285 4.286 4.29 4.29 0 0 1-4.285 4.285zm0-6.053a1.77 1.77 0 0 0-1.768 1.768 1.77 1.77 0 0 0 1.768 1.767 1.77 1.77 0 0 0 1.767-1.767 1.77 1.77 0 0 0-1.767-1.768z" style="stroke:none" transform="translate(-94.791 -289.778)"/>
                <path d="M105.683 304.403a4.04 4.04 0 0 0-4.036 4.036 4.04 4.04 0 0 0 4.036 4.035 4.04 4.04 0 0 0 4.035-4.035 4.04 4.04 0 0 0-4.035-4.036m0 6.053a2.02 2.02 0 0 1-2.018-2.017 2.02 2.02 0 0 1 2.018-2.018 2.02 2.02 0 0 1 2.017 2.018 2.02 2.02 0 0 1-2.017 2.017m0-6.553a4.54 4.54 0 0 1 4.535 4.536 4.54 4.54 0 0 1-4.535 4.535 4.54 4.54 0 0 1-4.536-4.535 4.54 4.54 0 0 1 4.536-4.536zm0 6.053a1.52 1.52 0 0 0 1.517-1.517 1.52 1.52 0 0 0-1.517-1.518 1.52 1.52 0 0 0-1.518 1.518c0 .837.68 1.517 1.518 1.517z" style="fill:#f80;stroke:none" transform="translate(-94.791 -289.778)"/>
            </g>
        </g>
    </g>
    <g data-name="Group 10305">
        <g data-name="Group 10304">
            <g data-name="Path 1899" style="fill:#fff">
                <path d="m338.084 118.608-.113-.224-2.678-5.326h-4.787v-2.518h5.564c.478 0 .91.266 1.125.693l3.026 6.02.113.223-.224.113-1.803.906-.223.113z" style="stroke:none" transform="translate(-309.574 -108.272)"/>
                <path d="M330.756 110.79v2.018h4.691l2.748 5.464 1.803-.907-3.027-6.02a1.01 1.01 0 0 0-.901-.555h-5.314m-.5-.5h5.814c.573 0 1.09.318 1.348.83l3.251 6.467-2.696 1.356-2.834-5.635h-4.883v-3.018z" style="fill:#f80;stroke:none" transform="translate(-309.574 -108.272)"/>
            </g>
        </g>
    </g>
    <g data-name="Group 10307">
        <g data-name="Group 10306">
            <path data-name="Rectangle 1138" style="fill:#fff" d="M0 0h7.634v2.018H0z" transform="translate(14.019 17.685)"/>
        </g>
    </g>
    <g data-name="Group 10309">
        <g data-name="Group 10308">
            <g data-name="Path 1900" style="fill:#fff">
                <path d="M50.221 355.613h-3.497a1.26 1.26 0 0 1-1.259-1.26 1.26 1.26 0 0 1 1.259-1.258h3.497a1.26 1.26 0 0 1 1.26 1.259 1.26 1.26 0 0 1-1.26 1.259z" style="stroke:none" transform="translate(-42.356 -335.66)"/>
                <path d="M46.724 353.345a1.009 1.009 0 1 0 0 2.018h3.497a1.009 1.009 0 1 0 0-2.018h-3.497m0-.5h3.497a1.51 1.51 0 0 1 1.51 1.509 1.51 1.51 0 0 1-1.51 1.509h-3.497a1.51 1.51 0 0 1-1.509-1.51 1.51 1.51 0 0 1 1.509-1.508z" style="fill:#f80;stroke:none" transform="translate(-42.356 -335.66)"/>
            </g>
        </g>
    </g>
    <g data-name="Group 10311">
        <g data-name="Group 10310">
            <g data-name="Path 1901" style="fill:#fff">
                <path d="M73.863 97.974h-3.8a1.26 1.26 0 0 1-1.259-1.26 1.26 1.26 0 0 1 1.26-1.258h2.54v-4.868l-1.341-1.728h-7.724A1.26 1.26 0 0 1 62.28 87.6V80.79H46.724a1.26 1.26 0 0 1-1.259-1.26 1.26 1.26 0 0 1 1.259-1.258h16.815a1.26 1.26 0 0 1 1.259 1.259v6.812h7.081c.387 0 .758.182.995.487l1.984 2.556c.17.22.264.494.264.772v6.558a1.26 1.26 0 0 1-1.259 1.259z" style="stroke:none" transform="translate(-42.356 -78.021)"/>
                <path d="M73.863 97.724c.558 0 1.01-.452 1.01-1.01v-6.557a1.01 1.01 0 0 0-.213-.619l-1.984-2.556a1.007 1.007 0 0 0-.797-.39h-7.331V79.53c0-.557-.452-1.009-1.01-1.009H46.725a1.009 1.009 0 1 0 0 2.018H62.53V87.6c0 .557.452 1.009 1.009 1.009h7.846l1.47 1.893v5.203h-2.792a1.009 1.009 0 1 0 0 2.018h3.8m0 .5h-3.8a1.51 1.51 0 0 1-1.509-1.51 1.51 1.51 0 0 1 1.51-1.508h2.29v-4.532L71.14 89.11H63.54A1.51 1.51 0 0 1 62.03 87.6V81.04H46.724a1.51 1.51 0 0 1-1.509-1.51 1.51 1.51 0 0 1 1.509-1.508h16.815a1.51 1.51 0 0 1 1.509 1.509v6.562h6.831c.463 0 .91.219 1.192.584l1.984 2.556c.205.263.317.592.317.925v6.558a1.51 1.51 0 0 1-1.509 1.509z" style="fill:#f80;stroke:none" transform="translate(-42.356 -78.021)"/>
            </g>
        </g>
    </g>
    <g data-name="Group 10313">
        <g data-name="Group 10312">
            <g data-name="Path 1902" style="fill:#fff">
                <path d="M32.003 273.865h-4.641a1.26 1.26 0 0 1-1.259-1.26 1.26 1.26 0 0 1 1.259-1.258h4.64c.337 0 .653.13.891.369a1.26 1.26 0 0 1-.89 2.15z" style="stroke:none" transform="translate(-24.205 -259.024)"/>
                <path d="M27.362 271.597a1.009 1.009 0 1 0 0 2.018h4.64a1.009 1.009 0 1 0 0-2.018h-4.64m0-.5h4.64c.404 0 .783.157 1.068.442a1.51 1.51 0 0 1-1.067 2.576h-4.641a1.51 1.51 0 0 1-1.509-1.51 1.51 1.51 0 0 1 1.509-1.508z" style="fill:#f80;stroke:none" transform="translate(-24.205 -259.024)"/>
            </g>
        </g>
    </g>
    <g data-name="Group 10315">
        <g data-name="Group 10314">
            <g data-name="Path 1903" style="fill:#fff">
                <path d="M9.618 210.402h-8.61a1.26 1.26 0 0 1-1.258-1.259 1.26 1.26 0 0 1 1.259-1.259h8.61a1.26 1.26 0 0 1 1.258 1.259 1.26 1.26 0 0 1-1.259 1.259z" style="stroke:none" transform="translate(.5 -199.529)"/>
                <path d="M1.009 208.134a1.009 1.009 0 1 0 0 2.018h8.61a1.009 1.009 0 1 0 0-2.018h-8.61m0-.5h8.61a1.51 1.51 0 0 1 1.508 1.509 1.51 1.51 0 0 1-1.509 1.509h-8.61A1.51 1.51 0 0 1-.5 209.143a1.51 1.51 0 0 1 1.509-1.509z" style="fill:#f80;stroke:none" transform="translate(.5 -199.529)"/>
            </g>
        </g>
    </g>
    <g data-name="Group 10317">
        <g data-name="Group 10316">
            <g data-name="Path 1904" style="fill:#fff">
                <path d="M35.971 146.94h-8.61a1.26 1.26 0 0 1-1.258-1.26 1.26 1.26 0 0 1 1.259-1.258h8.61c.335 0 .652.13.89.369a1.26 1.26 0 0 1-.89 2.15z" style="stroke:none" transform="translate(-24.205 -140.036)"/>
                <path d="M27.362 144.672a1.009 1.009 0 1 0 0 2.018h8.61a1.009 1.009 0 1 0 0-2.018h-8.61m0-.5h8.61a1.5 1.5 0 0 1 1.066.442 1.51 1.51 0 0 1-1.067 2.576h-8.61a1.51 1.51 0 0 1-1.508-1.51 1.51 1.51 0 0 1 1.509-1.508z" style="fill:#f80;stroke:none" transform="translate(-24.205 -140.036)"/>
            </g>
        </g>
    </g>
</svg>
