<svg id="user" xmlns="http://www.w3.org/2000/svg" width="22" height="22" viewBox="0 0 22 22">
  <g id="Group_12722" data-name="Group 12722">
    <path id="Path_4176" data-name="Path 4176" d="M11,0A10.994,10.994,0,0,0,2.52,18c0,.005,0,.012.009.018a11,11,0,0,0,4.154,3.1l.055.024c.129.054.259.1.389.154l.155.058q.169.061.34.115c.073.023.146.047.22.069q.151.045.3.087c.089.024.18.047.27.068s.183.044.275.063.206.041.311.061c.084.015.167.032.251.045.115.019.232.033.348.048.075.01.15.021.226.029.132.014.265.024.4.033.062,0,.124.011.186.014Q10.7,22,11,22c.2,0,.4-.006.591-.016.062,0,.124-.01.186-.014.133-.01.267-.019.4-.033.076-.008.15-.019.226-.029.117-.015.233-.03.348-.048.084-.014.168-.03.251-.045.1-.019.208-.038.311-.061s.183-.041.275-.063.18-.044.27-.068.2-.056.3-.087c.074-.022.147-.045.22-.069q.171-.055.34-.115l.155-.058c.131-.049.261-.1.389-.154l.055-.024a11,11,0,0,0,4.154-3.1c0-.005,0-.012.009-.018A11,11,0,0,0,11,0Zm4.458,20.247-.016.008c-.131.063-.264.122-.4.18l-.091.039q-.176.074-.356.14l-.15.055c-.106.038-.212.074-.32.109l-.2.061c-.1.029-.191.056-.288.082-.081.022-.164.041-.246.061s-.172.041-.259.06-.191.037-.286.055c-.077.014-.154.029-.232.042-.107.017-.216.03-.324.044-.069.009-.137.019-.206.026-.124.013-.248.022-.373.03-.055,0-.11.01-.166.013q-.272.014-.546.015t-.546-.015c-.056,0-.111-.009-.166-.013-.125-.008-.249-.017-.373-.03-.069-.007-.138-.018-.206-.026-.108-.014-.217-.027-.324-.044-.078-.012-.155-.028-.232-.042-.1-.017-.191-.035-.286-.055s-.173-.039-.259-.06-.164-.039-.246-.061c-.1-.026-.193-.054-.288-.082l-.2-.061q-.161-.052-.32-.109l-.15-.055q-.179-.067-.356-.14l-.091-.038c-.134-.058-.267-.117-.4-.18l-.016-.008a10.316,10.316,0,0,1-3.326-2.564,8.093,8.093,0,0,1,5.3-5.551c.051.031.1.059.157.088.031.017.061.036.092.052.109.058.22.112.333.161.087.038.177.07.266.1l.053.019a4.68,4.68,0,0,0,3.171,0l.053-.019c.089-.033.179-.065.266-.1.113-.049.224-.1.333-.161l.092-.052c.052-.029.106-.057.157-.089a8.1,8.1,0,0,1,5.3,5.551A10.327,10.327,0,0,1,15.458,20.247ZM6.967,8.067a4.033,4.033,0,1,1,6.227,3.38,3.884,3.884,0,0,1-.449.251l-.055.026a4.126,4.126,0,0,1-3.381,0L9.255,11.7a3.854,3.854,0,0,1-.449-.251A4.031,4.031,0,0,1,6.967,8.067Zm12.367,8.918a8.835,8.835,0,0,0-5.151-5.38,4.767,4.767,0,1,0-6.366,0,8.836,8.836,0,0,0-5.151,5.38A10.264,10.264,0,1,1,21.267,11,10.209,10.209,0,0,1,19.334,16.985Z"/>
  </g>
</svg>
